<?xml version="1.0" encoding="UTF-8" standalone="no"?>
<svg
   data-name="Layer 1"
   width="554.03459"
   height="564.54076"
   viewBox="0 0 554.03459 564.54076"
   version="1.1"
   id="svg21"
   sodipodi:docname="undraw_noted_re_c5wv.svg"
   inkscape:version="1.3 (0e150ed, 2023-07-21)"
   xmlns:inkscape="http://www.inkscape.org/namespaces/inkscape"
   xmlns:sodipodi="http://sodipodi.sourceforge.net/DTD/sodipodi-0.dtd"
   xmlns="http://www.w3.org/2000/svg"
   xmlns:svg="http://www.w3.org/2000/svg">
  <defs
     id="defs21" />
  <sodipodi:namedview
     id="namedview21"
     pagecolor="#ffffff"
     bordercolor="#000000"
     borderopacity="0.25"
     inkscape:showpageshadow="2"
     inkscape:pageopacity="0.0"
     inkscape:pagecheckerboard="0"
     inkscape:deskcolor="#d1d1d1"
     inkscape:zoom="0.41803889"
     inkscape:cx="276.29008"
     inkscape:cy="282.27039"
     inkscape:window-width="1312"
     inkscape:window-height="449"
     inkscape:window-x="0"
     inkscape:window-y="25"
     inkscape:window-maximized="0"
     inkscape:current-layer="svg21" />
  <rect
     x="14.79004"
     y="75.97998"
     width="261.20996"
     height="2.78027"
     fill="#f2f2f2"
     id="rect1" />
  <rect
     x="14.79004"
     y="139.83008"
     width="261.20996"
     height="2.77002"
     fill="#f2f2f2"
     id="rect2" />
  <rect
     x="14.79004"
     y="203.66992"
     width="261.20996"
     height="2.78027"
     fill="#f2f2f2"
     id="rect3" />
  <rect
     x="14.79004"
     y="267.52002"
     width="261.20996"
     height="2.77002"
     fill="#f2f2f2"
     id="rect4" />
  <rect
     x="14.79004"
     y="331.36035"
     width="261.20996"
     height="2.77979"
     fill="#f2f2f2"
     id="rect5" />
  <path
     d="M439.14262,168.16956a9.71509,9.71509,0,0,0,0,19.43018H598.9827V168.16956Z"
     transform="translate(-322.9827 -167.72962)"
     fill="#e6e6e6"
     id="path6" />
  <polygon
     points="434.863 546.37 426.428 546.37 422.415 513.834 434.865 513.834 434.863 546.37"
     fill="#a0616a"
     id="polygon6" />
  <path
     d="M732.38617,726.54541a3.58787,3.58787,0,0,0,3.56513,3.57227h15.87914l.492-1.01962,2.246-4.63468.86988,4.63468.19253,1.01962h5.9894l-.08556-1.02676L759.93756,709.939l-2.08917-.12834-9.02691-.53477-2.21754-.13548v5.7185C744.9212,716.64858,731.71592,723.41521,732.38617,726.54541Z"
     transform="translate(-322.9827 -167.72962)"
     fill="#2f2e41"
     id="path7" />
  <polygon
     points="511.622 539.983 503.636 542.699 489.36 513.188 501.147 509.18 511.622 539.983"
     fill="#a0616a"
     id="polygon7" />
  <path
     d="M814.508,727.69363a3.58789,3.58789,0,0,0,4.52553,2.23405l15.03341-5.11306.13747-1.12374.63407-5.11106,2.3159,4.10774.5106.90332,5.67041-1.92857-.41162-.94453-7.679-17.61763-2.01922.5512-8.71833,2.40036-2.14307.58579,1.84135,5.41393C823.18861,714.28765,812.86548,724.946,814.508,727.69363Z"
     transform="translate(-322.9827 -167.72962)"
     fill="#2f2e41"
     id="path8" />
  <circle
     cx="448.0019"
     cy="182.63827"
     r="9.3999"
     fill="#2f2e41"
     id="circle8" />
  <path
     d="M771.06087,363.98542a9.289,9.289,0,0,1-2.95639-12.96056,9.39991,9.39991,0,0,1,12.96056-2.95639c4.39534,2.76257,1.09516,8.11425,2.95639,12.96056C786.6544,367.88481,777.11362,367.50378,771.06087,363.98542Z"
     transform="translate(-322.9827 -167.72962)"
     fill="#2f2e41"
     id="path9" />
  <path
     d="M733.92816,487.18384h47.60807l4.09138,22.97753s18.88615,20.64994,10.2264,38.52467c0,0,6.01166,9.06413,2.85369,12.425s-8.90236,1.75933-3.158,5.17118,8.87768,1.53269,5.74438,4.82225,15.6665,67,15.6665,67l21.41911,60.43244L818.005,700.24823l-41.79789-60.02252L754.29873,561.111l9.47391,139.13719H741.27209l-11.25027-15.19985s4.44912-.78327,0-5.586-8.62686-5.31088-4.44912-7.14568-9.3999-43.08992-9.3999-43.08992Z"
     transform="translate(-322.9827 -167.72962)"
     fill="#2f2e41"
     id="path10" />
  <path
     d="M733.14484,473.86732s-6.2666,3.65551-3.1333,5.22216,3.1333,1.67768,3.1333,4.23325,1.04443,7.25552,2.61108,7.25552,14.62207,0,21.41088,12.011,32.89965,7.83325,32.89965,4.17774-1.8956-16.71094-5.12553-19.58313-6.36323-1.82776-3.75215-4.43884,6.78882-1.04443,3.65552-4.17773-5.74439-3.65552-5.74439-8.35547,10.96655-50.065,10.96655-50.065-1.04443-15.21213-8.87768-15.21213a12.45769,12.45769,0,0,1-10.96655-6.78882l-1.30554-10.18322-19.322-2.61108-4.43884,12.27209s-7.57214,8.61657-7.57214,11.22765-17.23315,18.27759-10.44433,29.76635,9.13879,3.91663,7.04992,9.13879S733.14484,473.86732,733.14484,473.86732Z"
     transform="translate(-322.9827 -167.72962)"
     fill="#3f3d56"
     id="path11" />
  <path
     d="M749.2356,361.07611c-.32667.76127-10.39928.6797-10.8606,1.35758-3.55684,5.23346,9.26489,27.50054,5.708,32.7408l-.4955.59055a23.4151,23.4151,0,0,0,3.33283-1.88026c.095-2.14495.19008-4.29674.29187-6.44169a17.70549,17.70549,0,0,1,2.55225,4.48678,29.05916,29.05916,0,0,1,5.057-3.7944,22.26109,22.26109,0,0,1,4.91889-4.04911Z"
     transform="translate(-322.9827 -167.72962)"
     fill="#2f2e41"
     id="path12" />
  <circle
     cx="431.24594"
     cy="201.36856"
     r="16.67165"
     fill="#a0616a"
     id="circle12" />
  <path
     d="M766.89087,393.11489a8.0292,8.0292,0,0,1-2.688-4.41212,17.2511,17.2511,0,0,0,.2376,6.29913c-.9028.67878-1.77842,1.32364-2.60656,1.90739a17.70549,17.70549,0,0,0-2.55225-4.48678c-.10179,2.14495-.19683,4.29674-.29187,6.44169a23.41483,23.41483,0,0,1-3.33283,1.88025l.4955-.59054c3.55684-5.24026-5.64752-14.8858-2.09068-20.11927.99784-1.4662-3.50932-13.05307-6.944-13.57575-3.05454-.46157-2.92557.42085-5.88508,1.0657a14.80917,14.80917,0,0,0-1.41868-3.67226,12.13359,12.13359,0,0,1-.11538,3.8691c-1.05212.04072-1.87989-.62967-3.00023-.801-7.14766-1.09284-6.42135-8.8242-4.43251-11.27465,1.99564-2.44362,8.62061-3.17672,11.67516-3.97093.27828-.27149.90955-.1018,1.18788-.35974,5.85386-5.35734,13.683-6.24457,20.72853-3.87007,7.51351,2.53222,12.19806,7.4332,14.60235,14.98862l.68957,6.04627c.61865,1.94408-.15959,10.98967-.68957,12.95978C778.3997,389.09784,774.0122,385.27489,766.89087,393.11489Z"
     transform="translate(-322.9827 -167.72962)"
     fill="#2f2e41"
     id="path13" />
  <path
     d="M712.60516,510.84093a5.13081,5.13081,0,0,0,1.30916-7.0356,4.92236,4.92236,0,0,0-.51561-.62951l17.416-34.78943-9.89489-8.0676L706.1153,503.39767a5.11659,5.11659,0,0,0-.42409,6.23216,4.89654,4.89654,0,0,0,6.80386,1.28836Q712.55064,510.88032,712.60516,510.84093Z"
     transform="translate(-322.9827 -167.72962)"
     fill="#a0616a"
     id="path14" />
  <path
     d="M760.79157,409.22861s-4.75651-10.26161-17.49846-.07818-23.1106,42.15093-22.93272,44.19665,1.78871.05913-.71846,4.12759c-2.03909,3.3089.62136,4.01213-.607,4.34984-3.239.89052,3.16512,4.13738-.98353,4.32075s10.6607,7.45624,10.6607,7.45624,2.40956-.452,3.416-5.90873c.56529-3.06483-.73688-4.8868,1.73618-5.278s.45958-6.0863.856-6.94666,15.10081-16.87492,15.10081-16.87492Z"
     transform="translate(-322.9827 -167.72962)"
     fill="#3f3d56"
     id="path15" />
  <path
     d="M776.40309,518.95517a5.1308,5.1308,0,0,1,1.7761-6.93246,4.92152,4.92152,0,0,1,.73279-.35376L777.7699,472.7804l12.37247-3.14919L785.42432,514.938a5.11658,5.11658,0,0,1-2.24041,5.831,4.89655,4.89655,0,0,1-6.71353-1.69736Q776.43594,519.01386,776.40309,518.95517Z"
     transform="translate(-322.9827 -167.72962)"
     fill="#a0616a"
     id="path17" />
  <path
     d="M775.49988,406.49994s8.63627-7.30342,15.90339,7.29961,3.20608,47.96376,2.18307,49.74423-1.6472-.69979-1.087,4.0462c.45564,3.85993-2.25349,3.37713-1.28169,4.2008,2.56257,2.172-4.61335,2.41928-.92792,4.333s-12.8095,2.27214-12.8095,2.27214-1.995-1.42487-.6094-6.79787c.77823-3.01779,2.72668-4.12177.64848-5.51823s2.14678-5.71363,2.14966-6.66091-6.588-21.66554-6.588-21.66554Z"
     transform="translate(-322.9827 -167.72962)"
     fill="#3f3d56"
     id="path18" />
  <path
     d="M621.34725,731.08038a1.18647,1.18647,0,0,0,1.19007,1.19h253.29a1.19,1.19,0,1,0,0-2.38h-253.29A1.1865,1.1865,0,0,0,621.34725,731.08038Z"
     transform="translate(-322.9827 -167.72962)"
     fill="#ccc"
     id="path20" />
  <circle
     cx="15"
     cy="246.66016"
     r="15"
     fill="#fff"
     id="circle20" />
  <circle
     cx="15"
     cy="315.66016"
     r="15"
     fill="#fff"
     id="circle21" />
</svg>
