<?xml version="1.0" encoding="UTF-8"?>
<svg xmlns="http://www.w3.org/2000/svg" xmlns:xlink="http://www.w3.org/1999/xlink" version="1.1" viewBox="0 0 282.97 282.14">
  <!-- Generator: Adobe Illustrator 30.3.0, SVG Export Plug-In . SVG Version: 2.1.3 Build 182)  -->
  <defs>
    <style>
      .st0 {
        fill: #8dc4e9;
      }

      .st1 {
        fill: #b70000;
      }

      .st2 {
        fill: #383872;
      }

      .st3 {
        fill: #000543;
      }

      .st4 {
        fill: url(#linear-gradient2);
      }

      .st5 {
        fill: url(#linear-gradient1);
      }

      .st6 {
        fill: url(#linear-gradient9);
      }

      .st7 {
        fill: url(#linear-gradient3);
      }

      .st8 {
        fill: url(#linear-gradient6);
      }

      .st9 {
        fill: url(#linear-gradient8);
      }

      .st10 {
        fill: url(#linear-gradient7);
      }

      .st11 {
        fill: url(#linear-gradient5);
      }

      .st12 {
        fill: url(#linear-gradient4);
      }

      .st13 {
        fill: #c4ecf5;
      }

      .st14 {
        fill: #4db4e8;
      }

      .st15 {
        fill: url(#linear-gradient31);
      }

      .st16 {
        fill: url(#linear-gradient30);
      }

      .st17 {
        fill: url(#linear-gradient32);
      }

      .st18 {
        fill: url(#linear-gradient28);
      }

      .st19 {
        fill: url(#linear-gradient29);
      }

      .st20 {
        fill: url(#linear-gradient18);
      }

      .st21 {
        fill: url(#linear-gradient13);
      }

      .st22 {
        fill: url(#linear-gradient12);
      }

      .st23 {
        fill: url(#linear-gradient15);
      }

      .st24 {
        fill: url(#linear-gradient16);
      }

      .st25 {
        fill: url(#linear-gradient11);
      }

      .st26 {
        fill: url(#linear-gradient10);
      }

      .st27 {
        fill: url(#linear-gradient17);
      }

      .st28 {
        fill: url(#linear-gradient14);
      }

      .st29 {
        fill: url(#linear-gradient19);
      }

      .st30 {
        fill: url(#linear-gradient23);
      }

      .st31 {
        fill: url(#linear-gradient22);
      }

      .st32 {
        fill: url(#linear-gradient24);
      }

      .st33 {
        fill: url(#linear-gradient25);
      }

      .st34 {
        fill: url(#linear-gradient21);
      }

      .st35 {
        fill: url(#linear-gradient20);
      }

      .st36 {
        fill: url(#linear-gradient27);
      }

      .st37 {
        fill: url(#linear-gradient26);
      }

      .st38 {
        fill: #dde6ed;
      }

      .st39 {
        fill: #1b2d87;
      }

      .st40, .st41 {
        fill: #002e61;
      }

      .st42 {
        fill: #efefef;
      }

      .st43 {
        fill: #ffe578;
      }

      .st44 {
        fill: #b6e4fc;
      }

      .st45 {
        fill: #1a3474;
      }

      .st46 {
        fill: #452a51;
      }

      .st47 {
        fill: #dbeaf7;
      }

      .st48 {
        fill: url(#linear-gradient);
      }

      .st41 {
        isolation: isolate;
      }

      .st41, .st49 {
        opacity: .06;
      }

      .st50 {
        fill: #7cbdf4;
      }

      .st51 {
        fill: #fa694f;
      }

      .st52 {
        fill: #265b9c;
      }

      .st53 {
        fill: #ed1c24;
      }

      .st54 {
        fill: #ff8600;
      }

      .st55 {
        fill: #65d5ef;
      }

      .st56 {
        fill: #271730;
      }

      .st57 {
        fill: #ffb288;
      }

      .st58 {
        fill: #6d72a0;
      }

      .st59 {
        fill: #ff9985;
      }

      .st60 {
        fill: #e0e0ea;
      }

      .st61 {
        fill: #9194ca;
      }

      .st62, .st63 {
        fill: #fff;
      }

      .st64 {
        fill: #3074a7;
      }

      .st65 {
        fill: #2ab77e;
      }

      .st66 {
        fill: #bbdbed;
      }

      .st67 {
        fill: #2186c4;
      }

      .st68 {
        fill: #798599;
      }

      .st69 {
        fill: #ffb0c1;
      }

      .st70 {
        fill: #f0ede8;
        stroke: #fff;
      }

      .st70, .st63 {
        stroke-miterlimit: 10;
      }

      .st71 {
        fill: #5c5c9b;
      }

      .st72 {
        fill: #e1f5fa;
      }

      .st73 {
        opacity: .48;
      }

      .st74 {
        fill: #14407f;
      }

      .st75 {
        fill: #dee8ff;
      }

      .st76 {
        fill: #f2f2f2;
      }

      .st77 {
        fill: #f9cdaf;
      }

      .st78 {
        fill: #f6f7f7;
      }

      .st79 {
        fill: #321224;
      }

      .st80 {
        fill: #ffbb61;
      }

      .st81 {
        fill: #26182d;
      }

      .st82 {
        fill: #091946;
      }

      .st83 {
        fill: #4f99db;
      }

      .st84 {
        fill: #ccd5e2;
      }

      .st85 {
        fill: #32b1dc;
      }

      .st86 {
        fill: #b1bdd4;
      }

      .st87 {
        fill: #4a8dbd;
      }

      .st88 {
        fill: #818b9b;
      }

      .st89 {
        fill: #ff9f1a;
      }

      .st90 {
        fill: #0b3654;
      }

      .st91 {
        fill: #12040b;
      }

      .st92 {
        fill: #ff685a;
      }

      .st93 {
        fill: #0c1f55;
      }

      .st94 {
        fill: #ffa27f;
      }

      .st95 {
        fill: #ffb403;
      }

      .st96 {
        fill: #3d3935;
      }

      .st63 {
        stroke: #eae8e8;
      }
    </style>
    <linearGradient id="linear-gradient" x1="-221.34" y1="23.69" x2="-223.8" y2="17.86" gradientTransform="translate(-180.67 284) rotate(-180)" gradientUnits="userSpaceOnUse">
      <stop offset="0" stop-color="#ff8600"/>
      <stop offset="1" stop-color="#ff7227"/>
    </linearGradient>
    <linearGradient id="linear-gradient1" x1="-242.53" y1="13.03" x2="-243.28" y2="4.08" gradientTransform="translate(-180.67 284) rotate(-180)" gradientUnits="userSpaceOnUse">
      <stop offset="0" stop-color="#ff8600"/>
      <stop offset="1" stop-color="#ff7227"/>
    </linearGradient>
    <linearGradient id="linear-gradient2" x1="-218.82" y1="51" x2="-229.37" y2="48.17" gradientTransform="translate(-180.67 284) rotate(-180)" gradientUnits="userSpaceOnUse">
      <stop offset="0" stop-color="#091946"/>
      <stop offset=".81" stop-color="#1a3474"/>
    </linearGradient>
    <linearGradient id="linear-gradient3" x1="-243.26" y1="52.28" x2="-233.76" y2="52.28" gradientTransform="translate(-180.67 284) rotate(-180)" gradientUnits="userSpaceOnUse">
      <stop offset="0" stop-color="#475b8f"/>
      <stop offset="1" stop-color="#1a3474"/>
    </linearGradient>
    <linearGradient id="linear-gradient4" x1="-3632.76" y1="899.9" x2="-3633.71" y2="900.73" gradientTransform="translate(-3677.58 143.6) rotate(166.37) scale(1 -1)" gradientUnits="userSpaceOnUse">
      <stop offset="0" stop-color="#ffb0c1"/>
      <stop offset="1" stop-color="#ff9ca8"/>
    </linearGradient>
    <linearGradient id="linear-gradient5" x1="-3635.14" y1="898.86" x2="-3635.45" y2="899.75" gradientTransform="translate(-3677.58 143.6) rotate(166.37) scale(1 -1)" gradientUnits="userSpaceOnUse">
      <stop offset="0" stop-color="#ffb0c1"/>
      <stop offset="1" stop-color="#ff9ca8"/>
    </linearGradient>
    <linearGradient id="linear-gradient6" x1="-240.91" y1="125.43" x2="-232.47" y2="121.72" gradientTransform="translate(-180.67 284) rotate(-180)" gradientUnits="userSpaceOnUse">
      <stop offset="0" stop-color="#ff9f1a"/>
      <stop offset="1" stop-color="#ff7227"/>
    </linearGradient>
    <linearGradient id="linear-gradient7" x1="-246.11" y1="118.3" x2="-243.42" y2="118.3" gradientTransform="translate(-180.67 284) rotate(-180)" gradientUnits="userSpaceOnUse">
      <stop offset="0" stop-color="#475b8f"/>
      <stop offset="1" stop-color="#1a3474"/>
    </linearGradient>
    <linearGradient id="linear-gradient8" x1="-235.76" y1="102.7" x2="-213.78" y2="108.26" gradientTransform="translate(-180.67 284) rotate(-180)" gradientUnits="userSpaceOnUse">
      <stop offset="0" stop-color="#ffb61c"/>
      <stop offset="1" stop-color="#ffc751"/>
    </linearGradient>
    <linearGradient id="linear-gradient9" x1="-233.33" y1="98.48" x2="-239.17" y2="98.48" gradientTransform="translate(-180.67 284) rotate(-180)" gradientUnits="userSpaceOnUse">
      <stop offset="0" stop-color="#ffb61c"/>
      <stop offset="1" stop-color="#ff9d00"/>
    </linearGradient>
    <linearGradient id="linear-gradient10" x1="-3713.36" y1="123.43" x2="-3718.58" y2="127.82" gradientTransform="translate(-3665.92 284) rotate(-180)" gradientUnits="userSpaceOnUse">
      <stop offset="0" stop-color="#ffb0c1"/>
      <stop offset="1" stop-color="#ff9ca8"/>
    </linearGradient>
    <linearGradient id="linear-gradient11" x1="-229.48" y1="135.67" x2="-226.16" y2="143.42" gradientTransform="translate(-180.67 284) rotate(-180)" gradientUnits="userSpaceOnUse">
      <stop offset="0" stop-color="#091946"/>
      <stop offset=".81" stop-color="#1a3474"/>
    </linearGradient>
    <linearGradient id="linear-gradient12" x1="-257" y1="111.15" x2="-253.42" y2="111.15" gradientTransform="translate(-180.67 284) rotate(-180)" gradientUnits="userSpaceOnUse">
      <stop offset="0" stop-color="#475b8f"/>
      <stop offset="1" stop-color="#1a3474"/>
    </linearGradient>
    <linearGradient id="linear-gradient13" x1="-250.4" y1="99.95" x2="-244.53" y2="100.08" gradientTransform="translate(-180.67 284) rotate(-180)" gradientUnits="userSpaceOnUse">
      <stop offset="0" stop-color="#ff9f1a"/>
      <stop offset="1" stop-color="#ff7227"/>
    </linearGradient>
    <linearGradient id="linear-gradient14" x1="-256.72" y1="123.7" x2="-244.03" y2="123.7" gradientTransform="translate(-180.67 284) rotate(-180)" gradientUnits="userSpaceOnUse">
      <stop offset="0" stop-color="#ff9f1a"/>
      <stop offset="1" stop-color="#ff7227"/>
    </linearGradient>
    <linearGradient id="linear-gradient15" x1="-3739.91" y1="118.5" x2="-3742.18" y2="116.28" gradientTransform="translate(-3665.92 284) rotate(-180)" gradientUnits="userSpaceOnUse">
      <stop offset="0" stop-color="#ffb0c1"/>
      <stop offset="1" stop-color="#ff9ca8"/>
    </linearGradient>
    <linearGradient id="linear-gradient16" x1="-219.76" y1="145.07" x2="-226.26" y2="147.32" gradientTransform="translate(-180.67 284) rotate(-180)" gradientUnits="userSpaceOnUse">
      <stop offset="0" stop-color="#091946"/>
      <stop offset=".81" stop-color="#1a3474"/>
    </linearGradient>
    <linearGradient id="linear-gradient17" x1="-250.59" y1="38.2" x2="-253.04" y2="33.86" gradientTransform="translate(-39.51 284) rotate(-180)" gradientUnits="userSpaceOnUse">
      <stop offset="0" stop-color="#c4ecf5"/>
      <stop offset="1" stop-color="#72c1d9"/>
    </linearGradient>
    <linearGradient id="linear-gradient18" x1="-265.43" y1="28.86" x2="-267.64" y2="27.25" gradientTransform="translate(-39.51 284) rotate(-180)" gradientUnits="userSpaceOnUse">
      <stop offset="0" stop-color="#c4ecf5"/>
      <stop offset="1" stop-color="#72c1d9"/>
    </linearGradient>
    <linearGradient id="linear-gradient19" x1="-268.3" y1="35.01" x2="-264.98" y2="35.01" gradientTransform="translate(-39.51 284) rotate(-180)" gradientUnits="userSpaceOnUse">
      <stop offset="0" stop-color="#ffb0c1"/>
      <stop offset=".32" stop-color="#fab"/>
      <stop offset=".72" stop-color="#ff9bac"/>
      <stop offset="1" stop-color="#ff8d9d"/>
    </linearGradient>
    <linearGradient id="linear-gradient20" x1="-256.32" y1="43.12" x2="-253.01" y2="43.12" gradientTransform="translate(-39.51 284) rotate(-180)" gradientUnits="userSpaceOnUse">
      <stop offset="0" stop-color="#ffb0c1"/>
      <stop offset=".32" stop-color="#fab"/>
      <stop offset=".72" stop-color="#ff9bac"/>
      <stop offset="1" stop-color="#ff8d9d"/>
    </linearGradient>
    <linearGradient id="linear-gradient21" x1="-250.78" y1="63.47" x2="-262.14" y2="63.47" gradientTransform="translate(-39.51 284) rotate(-180)" gradientUnits="userSpaceOnUse">
      <stop offset="0" stop-color="#265b9c"/>
      <stop offset="1" stop-color="#0c4790"/>
    </linearGradient>
    <linearGradient id="linear-gradient22" x1="-244.93" y1="103.51" x2="-253.33" y2="109.92" gradientTransform="translate(-39.51 284) rotate(-180)" gradientUnits="userSpaceOnUse">
      <stop offset="0" stop-color="#e1f5fa"/>
      <stop offset="1" stop-color="#d2f0f7"/>
    </linearGradient>
    <linearGradient id="linear-gradient23" x1="-260.76" y1="122.06" x2="-263.95" y2="99.54" gradientTransform="translate(-39.51 284) rotate(-180)" gradientUnits="userSpaceOnUse">
      <stop offset="0" stop-color="#091946"/>
      <stop offset=".81" stop-color="#1a3474"/>
    </linearGradient>
    <linearGradient id="linear-gradient24" x1="-264.19" y1="62.24" x2="-272.58" y2="62.24" gradientTransform="translate(-39.51 284) rotate(-180)" gradientUnits="userSpaceOnUse">
      <stop offset="0" stop-color="#4a8dbd"/>
      <stop offset="1" stop-color="#8abfda"/>
    </linearGradient>
    <linearGradient id="linear-gradient25" x1="-257.22" y1="105.42" x2="-272.13" y2="93.58" gradientTransform="translate(-39.51 284) rotate(-180)" gradientUnits="userSpaceOnUse">
      <stop offset="0" stop-color="#c4ecf5"/>
      <stop offset="1" stop-color="#82c8dd"/>
    </linearGradient>
    <linearGradient id="linear-gradient26" x1="-232.18" y1="108.09" x2="-234.07" y2="104.56" gradientTransform="translate(-39.51 284) rotate(-180)" gradientUnits="userSpaceOnUse">
      <stop offset="0" stop-color="#ffb0c1"/>
      <stop offset=".32" stop-color="#fab"/>
      <stop offset=".72" stop-color="#ff9bac"/>
      <stop offset="1" stop-color="#ff8d9d"/>
    </linearGradient>
    <linearGradient id="linear-gradient27" x1="-250.09" y1="99.18" x2="-249.88" y2="101.86" gradientTransform="translate(-39.51 284) rotate(-180)" gradientUnits="userSpaceOnUse">
      <stop offset="0" stop-color="#ffb0c1"/>
      <stop offset=".32" stop-color="#fab"/>
      <stop offset=".72" stop-color="#ff9bac"/>
      <stop offset="1" stop-color="#ff8d9d"/>
    </linearGradient>
    <linearGradient id="linear-gradient28" x1="-262.76" y1="116.65" x2="-256.58" y2="116.65" gradientTransform="translate(-39.51 284) rotate(-180)" gradientUnits="userSpaceOnUse">
      <stop offset="0" stop-color="#ffb0c1"/>
      <stop offset=".32" stop-color="#fab"/>
      <stop offset=".72" stop-color="#ff9bac"/>
      <stop offset="1" stop-color="#ff8d9d"/>
    </linearGradient>
    <linearGradient id="linear-gradient29" x1="-261.69" y1="122.21" x2="-264.88" y2="99.72" gradientTransform="translate(-39.51 284) rotate(-180)" gradientUnits="userSpaceOnUse">
      <stop offset="0" stop-color="#091946"/>
      <stop offset=".81" stop-color="#1a3474"/>
    </linearGradient>
    <linearGradient id="linear-gradient30" x1="-257.46" y1="119.44" x2="-250.02" y2="115.08" gradientTransform="translate(-39.51 284) rotate(-180)" gradientUnits="userSpaceOnUse">
      <stop offset="0" stop-color="#ffb0c1"/>
      <stop offset=".32" stop-color="#fab"/>
      <stop offset=".44" stop-color="#ffa7b8"/>
      <stop offset=".77" stop-color="#ff99a9"/>
      <stop offset="1" stop-color="#ff8d9d"/>
    </linearGradient>
    <linearGradient id="linear-gradient31" x1="-264.51" y1="117.71" x2="-251.45" y2="126.83" gradientTransform="translate(-39.51 284) rotate(-180)" gradientUnits="userSpaceOnUse">
      <stop offset="0" stop-color="#091946"/>
      <stop offset=".81" stop-color="#1a3474"/>
    </linearGradient>
    <linearGradient id="linear-gradient32" x1="-261.66" y1="104.19" x2="-269.51" y2="90.81" gradientTransform="translate(-39.51 284) rotate(-180)" gradientUnits="userSpaceOnUse">
      <stop offset="0" stop-color="#e1f5fa"/>
      <stop offset="1" stop-color="#ebf8fc"/>
    </linearGradient>
  </defs>
  <g id="bg">
    <path class="st70" d="M20.05,65.73c-42.87,65.77,68.14,71.4,25.07,101.35-44.26,30.78,1.54,101.83,84.33,59.45,56.55-28.95,67.4,34.88,111.57-4.3,41.95-37.22,26.24-209-29.37-189.69C95.55,72.85,87.02-37,20.05,65.73Z"/>
  </g>
  <g id="pitching">
    <g>
      <path class="st1" d="M116.03,138.61l5.83,1.99s11.35-5.83,16.41-4.91,15.8,3.68,17.64,7.06c1.84,3.37,4.45,12.27,0,11.96s-6.44-7.36-6.44-8.28-10.28.77-10.28.77c0,0-13.04,4.91-22.24,14.26,0,0-6.59-2.15-7.36-4.91l6.44-17.95h0Z"/>
      <path class="st1" d="M160,171.62c.81,1.65,2.71,2.38,4.25,1.63h0c1.54-.75,2.12-2.7,1.31-4.36l-.98-2c-.81-1.65-2.71-2.38-4.25-1.63h0c-1.53.75-2.12,2.7-1.31,4.36l.98,2Z"/>
      <path class="st1" d="M154.14,175.74c.92,1.88,3,2.74,4.65,1.94h0c1.65-.81,2.24-2.99,1.32-4.86l-1.11-2.27c-.92-1.87-3-2.74-4.65-1.93h0c-1.65.81-2.24,2.99-1.32,4.86l1.11,2.27h0Z"/>
      <path class="st1" d="M147.96,179.12c.96,1.96,3.08,2.89,4.73,2.08h0c1.65-.81,2.2-3.05,1.24-5.01l-1.16-2.37c-.96-1.96-3.07-2.89-4.72-2.08h0c-1.65.81-2.21,3.05-1.24,5.01l1.16,2.37h0Z"/>
      <g>
        <path class="st1" d="M142.15,183.4c.96,1.96,3.08,2.89,4.72,2.08h0c1.65-.81,2.21-3.05,1.24-5.01l-1.16-2.36c-.96-1.96-3.08-2.89-4.72-2.08h0c-1.65.81-2.21,3.05-1.24,5.01l1.16,2.36Z"/>
        <path class="st1" d="M115.57,164.23l12.31-9.81,11.43-5.88,8.57-1.02s4.08,10.34,9.29,8.49c5.21-1.84.24-13.89.24-13.89l8.62-3.65,7.36,18.1-4.76,4.09c-1.27,1.67-2.59,3.21-3.94,4.64-.82-.85-1.93-1.36-3.09-1.36-.61,0-1.2.14-1.74.4-1.33.65-2.12,1.98-2.23,3.41-.62-.31-1.28-.48-1.97-.48-.63,0-1.22.14-1.78.41-1.32.65-2.12,1.94-2.29,3.4-.7-.42-1.49-.66-2.28-.66-.61,0-1.19.13-1.73.4-1.56.76-2.37,2.47-2.27,4.28-.57-.26-1.19-.41-1.81-.41s-1.19.13-1.73.4c-2.1,1.03-2.87,3.78-1.8,6.2-.89.55-3.67,2.12-5.07,1.35-1.69-.92-1.84-3.37-1.84-3.37,0,0-3.22,2.15-5.68,0-2.45-2.15-1.07-3.68-1.07-3.68,0,0-3.53,1.53-5.06,0s-1.07-3.68-1.07-3.68c0,0-2.15,1.53-4.6-1.53-2.45-3.07,0-6.14,0-6.14h-.01Z"/>
      </g>
    </g>
    <g>
      <g>
        <path class="st60" d="M0,144.72c0,13.73,11.13,24.88,24.88,24.88s24.88-11.13,24.88-24.88-11.13-24.88-24.88-24.88S0,130.98,0,144.72Z"/>
        <path class="st78" d="M46.44,144.72c0,11.9-9.66,21.56-21.56,21.56s-21.56-9.66-21.56-21.56,9.66-21.56,21.56-21.56,21.56,9.66,21.56,21.56Z"/>
        <g>
          <path class="st90" d="M38.13,143.86c.22-.22.33-.53.3-.85-.07-.56-.58-.97-1.15-.9l-12.68,1.52c-.56.07-.97.58-.9,1.15s.58.97,1.15.9l12.68-1.52c.24-.03.45-.13.61-.3h0Z"/>
          <path class="st90" d="M25.09,145.37c.24-.24.32-.61.17-.89l-8.25-15.27c-.18-.33-.62-.42-.98-.2-.36.23-.51.68-.33,1.01l8.25,15.27c.18.33.62.42.98.2.06-.03.11-.08.15-.12h.01Z"/>
        </g>
        <path class="st90" d="M14.94,161.92s.03-.04.06-.07l11.64-19.77c.14-.24.07-.56-.19-.7-.24-.14-.56-.06-.7.19l-11.64,19.77c-.14.24-.07.56.19.7.22.13.5.08.66-.11h-.01Z"/>
        <g>
          <path class="st90" d="M23.71,127.95c0,.64.52,1.16,1.16,1.16s1.16-.52,1.16-1.16-.52-1.16-1.16-1.16-1.16.52-1.16,1.16Z"/>
          <path class="st90" d="M23.71,161.48c0,.64.52,1.16,1.16,1.16s1.16-.52,1.16-1.16-.52-1.16-1.16-1.16-1.16.52-1.16,1.16Z"/>
          <path class="st90" d="M8.12,146.16c.64,0,1.16-.52,1.16-1.16s-.52-1.16-1.16-1.16-1.16.52-1.16,1.16.52,1.16,1.16,1.16Z"/>
          <path class="st90" d="M41.64,146.16c.64,0,1.16-.52,1.16-1.16s-.52-1.16-1.16-1.16-1.16.52-1.16,1.16.52,1.16,1.16,1.16Z"/>
          <path class="st90" d="M15.79,130.39c0,.35.29.64.64.64s.64-.29.64-.64-.29-.64-.64-.64-.64.29-.64.64Z"/>
          <path class="st90" d="M9.67,136.65c0,.35.29.64.64.64s.64-.29.64-.64-.29-.64-.64-.64-.64.29-.64.64Z"/>
          <path class="st90" d="M9.72,153.17c0,.35.29.64.64.64s.64-.29.64-.64-.29-.64-.64-.64-.64.29-.64.64Z"/>
          <path class="st90" d="M15.89,159.33c0,.35.29.64.64.64s.64-.29.64-.64-.29-.64-.64-.64-.64.29-.64.64Z"/>
          <path class="st90" d="M32.38,159.36c0,.35.29.64.64.64s.64-.29.64-.64-.29-.64-.64-.64-.64.29-.64.64Z"/>
          <path class="st90" d="M38.57,153.21c0,.35.29.64.64.64s.64-.29.64-.64-.29-.64-.64-.64-.64.29-.64.64Z"/>
          <path class="st90" d="M38.53,136.65c0,.35.29.64.64.64s.64-.29.64-.64-.29-.64-.64-.64-.64.29-.64.64Z"/>
          <path class="st90" d="M32.38,130.47c0,.35.29.64.64.64s.64-.29.64-.64-.29-.64-.64-.64-.64.29-.64.64Z"/>
        </g>
      </g>
      <g>
        <g>
          <polygon class="st63" points="60.92 169.95 72.61 176.37 79.31 158.52 67.61 152.09 60.92 169.95"/>
          <g>
            <path class="st66" d="M77.46,159.77c.09,0,.17-.05.22-.13.07-.12.02-.27-.1-.34l-9.42-5.17c-.12-.07-.27-.02-.34.1-.07.12-.02.27.1.34l9.42,5.17s.08.03.12.03Z"/>
            <path class="st66" d="M76.98,160.88c.09,0,.17-.05.22-.13.07-.12.02-.27-.1-.34l-9.42-5.17c-.12-.07-.27-.02-.34.1-.07.12-.02.27.1.34l9.42,5.17s.08.03.12.03Z"/>
            <path class="st66" d="M76.48,161.94c.09,0,.17-.05.22-.13.07-.12.02-.27-.1-.34l-9.42-5.17c-.12-.07-.27-.02-.34.1-.07.12-.02.27.1.34l9.42,5.17s.08.03.12.03Z"/>
          </g>
          <path class="st54" d="M48.38,259.83c-.51,2.07-4.28,4.32-6.6,7.33-1.03,1.34-1.76,2.66-2.95,3.33-2.07,1.16-4.49.92-4.85-.31-.56-1.94.05-6.47.05-6.47,0,0,.35-1.41,2.81-1.5.4-.02,2.19-1.45,4.02-2.4,5.37-2.76,8.03-2.04,7.52.03h0Z"/>
          <path class="st48" d="M38.52,264.95c.63-.28,1.21-.58,1.53-1.22,0-.02,0-.03.02-.05.05,0,.09,0,.14,0,.4-.02,2.19-1.45,4.02-2.4,1.65-.85,3.05-1.37,4.17-1.62,0,.06,0,.12-.03.18-.51,2.07-4.28,4.32-6.6,7.33-1.03,1.34-1.76,2.66-2.95,3.33-.52.29-1.06.49-1.59.61-.31-1.91.07-5.15.16-5.8.38-.08.74-.19,1.13-.36h0Z"/>
          <path class="st54" d="M53.95,271.24s-1.97.38-2.86,1.42c-.89,1.04-1.13,5.42.47,6.97s6.1-.85,10.24-.93c7.91-.15,11.71-2.37,11.09-4.62-.68-2.51-11.02-2.12-11.02-2.12l-7.94-.71h0Z"/>
          <path class="st5" d="M52.79,274.83c.75.17,1.52.23,2.34.12,1.02-.15,1.76-.53,2.36-1.13l5.89.52s6.39-.25,9.45.87c-.73,1.81-4.45,3.36-11.02,3.48-3.78.07-7.85,2.06-9.75,1.24-.4-1.87-.09-4.19.52-4.9.07-.08.14-.15.21-.22h0Z"/>
          <path class="st69" d="M39.12,257.89v4.32s-.1,2.21-1.99,2.21-2-1.61-2-1.61v-5.77l3.99.85Z"/>
          <path class="st69" d="M57.03,267.82v4.14s-.17,2.03-2.12,2.11c-2.63.12-2.63-1.42-2.63-1.42v-6.36l4.75,1.52h0Z"/>
          <path class="st82" d="M38.26,188.78c-.57.76-4.39,4.61-4.39,11.04s2.17,9.62,2.17,9.62c0,0,.57,10.56,2.23,15.41-7.22,11.95-2.15,14.51-3.7,32.72-.17,1.98,4.87,3.06,5.26,0,2.03-16.12,5.49-26.33,5.49-26.33,0,0,10.39-25.62,5.78-35.05-3.34-6.82-12.83-7.39-12.83-7.39h0Z"/>
          <path class="st4" d="M43.07,208.55s6.1.98,8.49,1.38c-1.77,10.26-6.25,21.32-6.25,21.32,0,0-3.46,10.2-5.49,26.33-.17,1.38-1.29,1.91-2.44,1.9.35-22.77,1.88-27.71,5.15-34.47-.66-7.02.56-16.45.56-16.45h0Z"/>
          <path class="st45" d="M42.04,194.66s-2.7,6.26-1.51,11.9c1.2,5.62,5.62,7.9,6.81,9.09,0,8.01,2.97,18.19,3.1,22.22-3.31,9.87.49,17.02,1.08,30.1.1,2.18,4.78,3.05,6.33,0,0-8.42,1.55-30.57,1.55-30.57,0,0,6.55-24.58-2.16-42.09-2.79-5.6-15.2-.63-15.2-.63h0Z"/>
          <path class="st7" d="M57.25,195.29c8.7,17.51,2.16,42.09,2.16,42.09,0,0-1.55,22.15-1.55,30.57-.59,1.17-1.64,1.75-2.72,1.92-3.77-26.84.04-32.62.04-32.62,0,0,1.14-13.75.79-22.14-.35-8.39-3.69-20.08-3.69-20.08l3.37-1.46c.67.41,1.23.97,1.6,1.72h0Z"/>
          <g>
            <path class="st12" d="M63.14,166.75c.2-.16.41-.32.59-.48.62-.54,1.24-1.12,1.79-1.74.13-.14.25-.29.36-.43-.13-.7,1.06-2.3,1.35-2.72,3.66-1.21,2.41-2.43,2.41-2.43l-3.72,1.71s-1.94,4.19-2.1,4.53l-.69,1.57h0Z"/>
            <path class="st11" d="M63.9,164.16c.54-.26.54.97,1.05.63.69-.46,1.38-.94,2.01-1.48.14-.12.28-.25.42-.38-.03-.71,1.36-2.14,1.7-2.51,3.72,0,2.37-1.44,2.37-1.44l-4.38,1.23-3.16,3.96h0Z"/>
            <path class="st69" d="M62.95,167.41c-.04-.06-.83-2.52-.83-2.52,0,0,.4-.12,1.3-.47.91-.35,1.83-2.32,1.83-2.32l3.94-2.6,4.26.63s.72,1.93-3.17.39c-.45.4-2.45,2.03-1.87,2.6.58.57,3.11-2.41,4.74-.55-3.19,1.46-5.39,3.56-5.39,3.56l-4.79,1.26v.02Z"/>
          </g>
          <path class="st8" d="M63.89,164.04s.81.48,1.19,1.17c.39.69.36,1.61.36,1.61,0,0-16.2,7.27-17.08,6.78-4.43-2.46-13.37-7.5-13.31-7.48.08.02-2.93-3.25-1.25-5.71,2.84-4.17,7.84.06,7.84.06l7.25,6.57c.79.57,15-3.03,15-3.03v.03Z"/>
          <path class="st10" d="M63.89,166.11c-.29-.66-.69-1.23-1.13-1.78.7-.18,1.14-.29,1.14-.29,0,.02.81.48,1.19,1.17.39.69.36,1.61.36,1.61,0,0-.46.21-1.22.54-.06-.43-.16-.84-.34-1.26Z"/>
          <path class="st9" d="M60.82,171.18s-7.58-6.33-12.36-8.49c-4.78-2.15-17.2-9.31-14.09,3.98.62,2.67,4.54,11.55,4.3,15.37-.24,3.82-1.12,7.72-1.12,7.72,0,0-.24,5.69,6.69,7.07,6.93,1.38,13.38-.77,13.38-.77l.19-9.09,3.02-15.79Z"/>
          <path class="st6" d="M54.89,174.05s-.63,10.55-.79,15.53c-.11,3.5-.78,7.41-.78,7.41l4.3-.93.23-9.27.52-7.38-3.47-5.34h0Z"/>
          <path class="st89" d="M42.08,162.9c-.36,1.14,1.25,2.65,3.57,3.36,2.33.71,4.49.37,4.85-.77.35-1.14-1.25-2.65-3.57-3.36s-4.49-.37-4.85.77Z"/>
          <path class="st26" d="M53.32,158.85l-2.99.68s-.52,3.8-.74,5.09-1.5,1.8-3.91,1.02c-2.42-.79-2.99-1.64-2.93-2.92s.22-4.76.22-4.76l7.76-4.81,2.24,1.51.36,4.2h0Z"/>
          <path class="st69" d="M54.87,146.12c-.09-1.44,1.58,3.24,1.58,3.84s-.22,1.26-.22,1.76.22.9.22,1.44c0,1.23-2.42,5.7-3.14,5.7s-1.44-1.76-1.44-1.76l-.54-4.15,3.53-6.82h0Z"/>
          <path class="st82" d="M54.57,149.79s2.54-3.24.75-5.78c-1.79-2.54-5.43-4.75-9.7-3.31-4.27,1.44-5.43,4.82-5.43,4.82,0,0-3.99,0-4.4,4.27-.61,6.33,6.81,8.39,7.02,10.74h0c2.24.57,4.42,2.07,6.11-1.92.46-1.09,1.73-1.8,2.84-2.41,2.96-1.65,2.34-4.06,2.34-4.06,0,0,.69-1.31.48-2.34h0Z"/>
          <path class="st25" d="M50.67,147.72s4.15-2.29,3.04-4.32-4.77-3.26-6.72-2.58.26,2.12-.16,3.94c-.28,1.23-1.92,2.74-4.3,2.57s-.02,4.57,8.14.38h0Z"/>
          <path class="st69" d="M73.69,171.94v-1.08h0s.14-3.5-.16-4.61c.78-.08,1.49,1.04,1.41,2.69,0,.12-.03.34.08.41.11.08.26-.14.26-.14l1.9-5.03,1.47,3.87c.2.53.13,1.13-.2,1.59l-1.75,2.5-1.09,2.38s-2.78-1.22-2.61-1.29c.08-.03.69-1.31.69-1.31h0Z"/>
          <path class="st69" d="M52.54,156.51s.37-1.69-.81-1.84-.97,1.93-.04,2.86c.45.45.85-1.02.85-1.02Z"/>
          <path class="st89" d="M57.65,169.9s-2.88,1.74-2.8,4.92,3.89,19.69,9.37,19.95c5.48.26,11.5-18.53,12.07-21.36.38-1.8-2.33-2.12-3.04-1.1-1.28,1.67-7.77,11.68-7.77,11.68,0,0-2.53-15.78-7.84-14.1h0Z"/>
          <path class="st22" d="M76.17,173.97c-.2-.18-.42-.35-.66-.48-.71-.39-1.77-.57-2.75-.48.21-.3.38-.53.49-.69.71-1.03,3.41-.7,3.04,1.1-.03.14-.08.34-.13.55h0Z"/>
          <path class="st21" d="M65.49,184l.82,4.63s5.09-8.13,3.78-9.12-4.6,4.48-4.6,4.48h0Z"/>
          <polygon class="st28" points="74.6 163.07 63.36 158.62 63.84 157.53 75.15 162 76.05 162.98 74.6 163.07"/>
          <polygon class="st23" points="75.28 169.23 76.82 168.34 76.64 165.63 75.28 169.23"/>
        </g>
        <path class="st89" d="M40.81,146.08c.28.69,1.65.79,3.08.21,1.42-.57,2.34-1.6,2.06-2.3-.28-.69-1.65-.79-3.08-.22-1.42.57-2.34,1.6-2.06,2.3h0Z"/>
        <path class="st82" d="M35.86,140.51c0-3.03,2.45-5.48,5.48-5.48s5.48,2.45,5.48,5.48-2.45,5.48-5.48,5.48-5.48-2.45-5.48-5.48Z"/>
        <path class="st24" d="M41.07,136.34c-.44.82.19,2,1.4,2.63,1.21.64,2.53.49,2.96-.33.44-.82-.19-2-1.4-2.63-1.21-.64-2.53-.49-2.96.33Z"/>
      </g>
    </g>
    <g>
      <g>
        <g>
          <path class="st62" d="M175.15,69.12c-7.06,0-12.8-5.87-12.8-13.07s5.74-13.07,12.8-13.07,12.8,5.87,12.8,13.07-5.74,13.07-12.8,13.07ZM175.15,43.29c-6.89,0-12.49,5.72-12.49,12.76s5.61,12.76,12.49,12.76,12.49-5.72,12.49-12.76-5.61-12.76-12.49-12.76Z"/>
          <path class="st62" d="M175.15,69.2c-7.1,0-12.88-5.9-12.88-13.15s5.77-13.15,12.88-13.15,12.88,5.9,12.88,13.15-5.77,13.15-12.88,13.15ZM175.15,43.05c-7.01,0-12.72,5.82-12.72,12.99s5.7,12.99,12.72,12.99,12.72-5.82,12.72-12.99-5.7-12.99-12.72-12.99ZM175.15,68.89c-6.93,0-12.57-5.76-12.57-12.84s5.64-12.84,12.57-12.84,12.57,5.76,12.57,12.84-5.64,12.84-12.57,12.84ZM175.15,43.37c-6.85,0-12.41,5.69-12.41,12.68s5.57,12.68,12.41,12.68,12.41-5.69,12.41-12.68-5.57-12.68-12.41-12.68Z"/>
        </g>
        <rect class="st62" x="174.93" y="42.97" width=".46" height="26"/>
        <path class="st62" d="M185.62,63.43c-.1-.05-10.89-4.96-20.88-.06l-.2-.42c10.18-5,21.17,0,21.27.06l-.19.43h0Z"/>
        <path class="st62" d="M175.74,51.37c-6.29,0-11.21-2.24-11.28-2.27l.19-.43c.1.05,10.89,4.96,20.88.06l.2.42c-3.39,1.66-6.86,2.22-9.99,2.22Z"/>
        <rect class="st62" x="162.47" y="55.84" width="25.46" height=".47"/>
        <path class="st62" d="M175.12,69.07c-3.49,0-6.34-5.87-6.34-13.08s2.84-13.08,6.34-13.08,6.34,5.87,6.34,13.08-2.84,13.08-6.34,13.08ZM175.12,43.39c-3.24,0-5.88,5.65-5.88,12.6s2.63,12.6,5.88,12.6,5.88-5.65,5.88-12.6-2.63-12.6-5.88-12.6Z"/>
      </g>
      <g>
        <g>
          <path class="st91" d="M232.36,63.67v25.83h-2.96v-22.85c0-1.65,1.32-2.99,2.96-2.99h0Z"/>
          <rect class="st79" x="203.42" y="63.11" width="25.98" height="26.38"/>
        </g>
        <path class="st81" d="M184.85,82.27h73.59c1.33,0,2.42-1.09,2.42-2.44V25.8c0-1.35-1.08-2.44-2.42-2.44h-73.59c-1.33,0-2.42,1.09-2.42,2.44v54.02c0,1.35,1.08,2.44,2.42,2.44Z"/>
        <path class="st46" d="M181.11,82.27h73.59c1.33,0,2.42-1.09,2.42-2.44V25.8c0-1.35-1.08-2.44-2.42-2.44h-73.59c-1.33,0-2.42,1.09-2.42,2.44v54.02c0,1.35,1.08,2.44,2.42,2.44Z"/>
        <path class="st53" d="M253.76,25.78h-71.34c-.9,0-1.63.72-1.63,1.61v49.09c0,.89.73,1.61,1.63,1.61h71.34c.9,0,1.63-.72,1.63-1.61V27.4c0-.89-.73-1.61-1.63-1.61h0Z"/>
      </g>
      <path class="st44" d="M201.81,27.48h-17.59c-.66,0-1.2.55-1.2,1.21v33.2c0,.67.54,1.21,1.2,1.21h17.59c.66,0,1.2-.55,1.2-1.21V28.7c0-.67-.54-1.21-1.2-1.21Z"/>
      <polygon class="st80" points="233.81 109.11 232.25 91.74 230.7 91.74 232.26 109.11 233.81 109.11"/>
      <rect class="st43" x="153.58" y="89.3" width="98.88" height="3.3"/>
      <path class="st46" d="M190.75,109.11h12.26l.03-.45-12.94-.9.63,1.11c0,.08,0,.16.02.23h0Z"/>
      <path class="st46" d="M179.76,109.11h38.27c-.78-1.18-1.91-2.15-3.3-2.75l-.27.64.22-.66c-10.34-4.56-26.87-3.04-33.5-2.18l-.75.1.02.08c-.19.03-.43.07-.69.1v4.68h0Z"/>
      <path class="st50" d="M169.99,102.45h-3.34c-1.72,0-3.13-1.42-3.13-3.17v-4.33c0-.38.3-.69.68-.69s.68.31.68.69v4.33c0,.98.79,1.78,1.76,1.78h3.34c.38,0,.68.31.68.69s-.3.69-.68.69h0Z"/>
      <g>
        <path class="st92" d="M244.25,80.1h-5.28c-.45,0-.82.37-.82.83v7.51c0,.46.36.83.82.83h5.28c.45,0,.82-.37.82-.83v-7.51c0-.46-.36-.83-.82-.83Z"/>
        <path class="st92" d="M238.73,86.44h-1.2c-.82,0-1.5-.68-1.5-1.52v-1.14c0-.84.68-1.52,1.5-1.52h1.2v-.62h-1.2c-1.16,0-2.11.96-2.11,2.13v1.14c0,1.18.94,2.14,2.11,2.14h1.2v-.62h0Z"/>
      </g>
      <polygon class="st80" points="254.76 109.11 253.21 91.86 251.66 91.86 253.21 109.11 254.76 109.11"/>
      <path class="st3" d="M187.09,109.11h1.39l-.94-6.95c-.05-.38-.4-.64-.77-.6-.37.05-.64.4-.59.78l.91,6.77h0Z"/>
      <path class="st80" d="M253.23,89.3h-22.45v3.3h22.44v-3.3s0,0,0,0Z"/>
      <g>
        <path class="st62" d="M209.92,27.48h20.51v24.39h-23.38v-21.53c0-1.58,1.28-2.87,2.87-2.87h0Z"/>
        <path class="st44" d="M230.42,27.48h21.04c1.34,0,2.43,1.09,2.43,2.43v22h-23.47v-24.42h0Z"/>
      </g>
      <g class="st73">
        <rect class="st67" x="234.89" y="56.75" width=".1" height="1.62"/>
      </g>
      <g>
        <path class="st62" d="M250.84,76.3h-20.42v-24.42h23.38v21.47c0,1.63-1.33,2.96-2.96,2.96h0Z"/>
        <path class="st44" d="M230.42,76.3h-20.44c-1.62,0-2.94-1.32-2.94-2.94v-21.49h23.38v24.42h0Z"/>
      </g>
      <g>
        <path class="st62" d="M232.62,43.26c1.6-1.72.16-1.14,4.98,1.33.36.19,1.04-.14,1.24-.57,1.01-1.73,1.91-3.45,2.63-4.72l2.33,1.67c-.15.38-.3.66-.36.77-3.28,6.35-3.4,6.02-4.33,6.35-1.43.51-5.59-3.37-6.54-4.34-.11-.11-.07-.34.07-.49h-.02Z"/>
        <path class="st3" d="M252.29,31.39c.12.42.16.88.4,1.26.2.31.52.52.75.82.23.29.33.76.06,1.05-.12.13-.3.19-.43.32-.35.37-.05.95.04,1.45.1.55-.11,1.18-.54,1.55-.31.27-.75.47-.83.87-.07.32.13.67-.02.95-.22.42-.88.26-1.25.55-.26.21-.32.58-.45.88-.24.58-.84.99-1.44,1-.32,0-.65-.1-.96.02-.4.15-.66.61-1.07.68-.86.16-.98-.88-1.51-1.46-.67-.74-2.06-.75-2.31-1.72-.06-.23-.04-.5-.21-.68-.16-.17-.44-.17-.62-.32-.34-.29-.14-.9-.27-1.32-.03-.03-.13-.24-.16-.27-1.31-2.31-1.34-4.96.13-6.54,1.22-1.31,3.19-1.58,5.13-.91.02-.02.03-.03.05-.05.46-.36,1.01-.42,1.56-.35,1.02.13,1.27,1.12,2.11,1.35.32.09.67-.1,1-.05.42.06.69.5.81.92h.03Z"/>
        <g>
          <path class="st3" d="M243.38,35.48c.45-.29,1.33-.55,1.67-.81.23-.17.47-.36.65-.57.1-.11.22-.3.28-.62,0,0-.16-.35-.03-.09-.29-.62-.34-1.19-.21-1.7-.05-.3-.15-.64-.47-1.05-.7-.9-1.14-.83-1.62-1.07-.48-.23-.46-.18-1.08-.33-.55-.13-1.14,0-1.59.35,0,0-.26.22-.36.33-.1.12-.19.25-.28.38-.15.07-.68.37-.78.76-.18.76,0,1.11,0,1.11.39-.03.78-.53,1.1-.43.15.06.21.09.29.15.43.33.8.6.9,1.19.09.49-.12,1.05.18,1.43.28.35.84.37,1.14.69.08.08.12.17.16.27l.03.02Z"/>
          <path class="st3" d="M247.34,33.26c-.1.38-1.58,2.06-2.16,2.45,0,0-.6.84-.6.83-.6-.55.03-1.97.03-1.97.15-.13.23-.42.2-.74-.03-.42-.26-.75-.49-.73-.02,0-.03.02-.05.03l1.47-1.61c.25.74,1.98.19,1.59,1.73h0Z"/>
        </g>
        <g>
          <path class="st59" d="M233.56,40.85c-.1-.02-.19.05-.21.15l-.18.93c-.02.1.04.2.14.23.1.02.19-.05.21-.15l.18-.93c.02-.1-.04-.2-.14-.23Z"/>
          <path class="st59" d="M231.76,42.06c-.03-.16-.04-.31,0-.42.03-.1.1-.15.17-.2.18-.13.38-.23.6-.31.2-.07.45-.09.66.11.2.19.29.48.3.74.02.49.02.67-.19,1.01-.26.43-.64.53-1.04-.04-.21-.29-.45-.55-.52-.88h.02Z"/>
          <path class="st59" d="M232.95,41.43l-.8-1.1c-.05-.08-.03-.18.03-.23.07-.05.18-.03.23.03l.8,1.1c.05.08.03.18-.03.23-.07.05-.18.03-.23-.03Z"/>
          <path class="st59" d="M232.51,41.59l-.8-1.1c-.05-.08-.03-.18.03-.23.07-.05.18-.03.23.03l.8,1.1c.05.08.03.18-.03.23-.07.05-.18.03-.23-.03Z"/>
          <path class="st59" d="M232.22,42.04l-.8-1.1c-.05-.08-.03-.18.03-.23.07-.05.18-.03.23.03l.8,1.1c.05.08.03.18-.03.23-.07.05-.18.03-.23-.03Z"/>
          <path class="st59" d="M232.1,42.55l-.8-1.1c-.05-.08-.03-.18.03-.23.07-.05.18-.03.23.03l.8,1.1c.05.08.03.18-.03.23-.07.05-.18.03-.23-.03Z"/>
        </g>
        <g>
          <path class="st62" d="M247.71,47.55c.4-.08.74-.75.62-1.22-.53-4.13-1.4-7.93-.77-7.91,2.56.05,2.93,2.83,3.01,3.26,1.27,7.06.98,6.86.44,7.71-.81,1.29-6.46.81-7.79.64-.16-.02-.26-.23-.24-.42.23-2.35-.56-1.01,4.72-2.05h0Z"/>
          <path class="st3" d="M247.97,51.84c-.9-.02-1.8-.02-2.7,0h2.7Z"/>
          <path class="st62" d="M242.23,51.31c.02.21-.07.42-.16.56h8.81c-.08-1.72-.54-4.38-.13-8.02.22-1.92-.53-4.81-2.17-5.18-2.12-.49-4.37-1.41-5.59-.64-.47.23-.86.5-1.19.8-1.44,1.27-.37,3.42.29,5.18,1.73,4.58-.16,4.06.14,7.29h0Z"/>
          <path class="st77" d="M242.18,51.35s.04-.03.04-.04c-.12-1.26.1-1.93.3-2.59.31-.99.62-1.92-.45-4.71-.07-.18-.14-.36-.22-.55-.64-1.62-1.36-3.46-.1-4.59.24-.22.5-.41.78-.57.02,0,.03-.03.02-.06,0-.02-.03-.03-.06-.02-.29.17-.55.36-.8.58-1.31,1.17-.57,3.03.07,4.69.07.18.15.37.22.55,1.05,2.76.77,3.64.45,4.65-.21.66-.43,1.34-.31,2.63,0,.03.02.03.04.03h0Z"/>
          <rect class="st62" x="242.86" y="34.57" width=".5" height=".13" rx=".03" ry=".03"/>
          <g>
            <path class="st59" d="M244.33,40.43c.52-.49,1.05-.96,1.58-1.44.35-.3.42-.75.18-.98-.34-.31-.79-.51-1.34-.43-.62.1-1.73.58-1.61,1.2.15.76.06.41.39,1.59.09.3.5.33.81.04h0Z"/>
            <g>
              <path class="st94" d="M240.89,32.82l2.38-.4c.1-.02.18-.12.16-.23l-.21-1.28c-.03-.22-.23-.36-.45-.32l-2.19.36c-.51.09-.86.57-.77,1.09.09.51.57.87,1.07.78h0Z"/>
              <path class="st3" d="M244.78,34.81c-.06.37-.17.69-.34.94h0c-.63-.48-.69-1.14-.69-1.14.13-.14.2-.42.15-.73-.07-.41-.31-.71-.54-.67-.02,0-.03.02-.04.03l1.33-1.67c.3.69.42,1.72.16,3.23h-.02Z"/>
              <path class="st59" d="M240.07,31.19c-.43.49-.67,1.16-.55,1.85l.29,1.76c.2,1.2,1.34,2.02,2.54,1.81,1.2-.21,2-1.36,1.8-2.57l-.29-1.71-3.8-1.16h0Z"/>
              <path class="st59" d="M245.89,38.02l-1.97-3.89c-.11-.23-.36-.34-.55-.24l-1.37.7c-.19.1-.24.36-.13.6l1.96,3.88,2.05-1.05h0Z"/>
              <path class="st3" d="M239.65,33.09l.41-.07c.06,0,.12.04.13.12s-.03.15-.09.16l-.41.07c-.06,0-.12-.04-.13-.12s.03-.15.09-.16Z"/>
              <path class="st51" d="M240.61,34.42v-.05c.04.1.12.19.22.21l.25.03c.09.02.16-.04.18-.12v.03c.07.16-.04.32-.18.29l-.25-.03c-.15-.03-.25-.19-.22-.36h0Z"/>
              <g>
                <path class="st3" d="M241.77,33.41c.03.14.11.23.2.22.09-.02.14-.14.12-.27-.03-.14-.11-.23-.2-.22-.09.02-.14.14-.12.27Z"/>
                <polygon class="st3" points="241.89 33.14 241.62 33.18 241.81 33.33 241.89 33.14"/>
              </g>
              <g>
                <path class="st3" d="M239.87,33.73c.03.14.11.23.2.22.09-.02.14-.14.12-.27-.03-.14-.11-.23-.2-.22-.09.02-.14.14-.12.27Z"/>
                <polygon class="st3" points="239.99 33.46 239.72 33.5 239.91 33.64 239.99 33.46"/>
              </g>
              <path class="st59" d="M243.97,33.15c.34-.06.67.23.74.64.07.42-.15.8-.49.86-.34.06-.67-.23-.74-.64-.07-.42.15-.8.49-.86Z"/>
              <path class="st3" d="M243.12,32.73c.32.36.54.8.87,1.14.22.23.48.4.76.52.38.16.55.02.8-.3.23-.29.49-.6.29-.93-.39-.68-1.16-1.05-1.61-1.7-.33-.47-.5-1.1-1.01-1.36-.31-.16-.68-.13-1.02-.05-.41.1-.81.25-1.2.41-.29.11-.57.23-.85.34-.03.02-.07.03-.09.05-.03.03-.03.07-.04.11-.03.16-.17.53-.11.68.07.16.28.13.42.11,1.44-.15,2.4.55,2.79.98h0Z"/>
              <path class="st3" d="M241.53,32.43l.53-.09c.08,0,.15.04.16.12,0,.08-.04.16-.12.16l-.53.09c-.08,0-.15-.04-.16-.12,0-.08.04-.16.12-.16Z"/>
            </g>
          </g>
          <path class="st77" d="M247.03,50.3c1.81,0,3.62-.19,4.07-.89.03-.05.07-.1.1-.15.47-.7.65-.97-.54-7.58v-.06c-.05-.23-.14-.78-.4-1.36l-.08.03c.25.57.34,1.11.38,1.33v.06c1.19,6.58,1.02,6.84.56,7.52-.03.05-.07.1-.1.16-.8,1.26-6.32.81-7.76.62-.13-.02-.23-.19-.21-.37.03-.29.04-.51.05-.7.03-.51.35-.79.97-.82.67-.04,1.78-.11,3.67-.49.17-.03.34-.16.47-.37.18-.28.25-.63.19-.9-.16-1.27-.36-2.5-.53-3.61-.16-1.07-.31-1.99-.4-2.72h-.09c.08.74.23,1.66.4,2.74.17,1.09.37,2.34.53,3.61.06.25-.02.58-.18.84-.12.18-.27.3-.42.34-1.89.37-3,.44-3.67.49-.99.06-1.01.08-1.05.91,0,.18-.03.42-.05.69-.03.23.1.45.28.47.67.09,2.22.23,3.77.23l.03-.02Z"/>
        </g>
        <path class="st62" d="M242.02,35.03c.03.15-.09.31-.28.36-.19.05-.38-.03-.42-.18l.7-.19h0Z"/>
        <g>
          <path class="st59" d="M242.05,47.05c-.08.05-.1.17-.04.26l.52.78c.06.09.17.11.25.06s.1-.17.04-.26l-.52-.78c-.06-.09-.17-.11-.25-.06Z"/>
          <path class="st59" d="M241.63,49.2c-.13-.09-.25-.18-.3-.3-.04-.09-.03-.18-.02-.27.03-.23.1-.44.21-.65.1-.19.26-.39.55-.4.28,0,.55.12.74.29.36.33.49.46.58.85.12.49-.08.83-.76.72-.35-.06-.7-.06-.98-.25h0Z"/>
          <path class="st59" d="M242.02,47.9l-1.33-.2c-.09-.02-.16-.1-.14-.19.02-.1.1-.16.19-.14l1.33.2c.09.02.16.1.14.19-.02.1-.1.16-.19.14Z"/>
          <path class="st59" d="M241.82,48.32l-1.33-.2c-.09-.02-.16-.1-.14-.19.02-.1.1-.16.19-.14l1.33.2c.09.02.16.1.14.19-.02.1-.1.16-.19.14Z"/>
          <path class="st59" d="M241.93,48.85l-1.33-.2c-.09-.02-.16-.1-.14-.19.02-.1.1-.16.19-.14l1.33.2c.09.02.16.1.14.19-.02.1-.1.16-.19.14Z"/>
          <path class="st59" d="M242.21,49.29l-1.33-.2c-.09-.02-.16-.1-.14-.19.02-.1.1-.16.19-.14l1.33.2c.09.02.16.1.14.19-.02.1-.1.16-.19.14Z"/>
        </g>
      </g>
      <g>
        <g>
          <path class="st59" d="M212.15,62.75c-.11-.03-.23.06-.24.17l-.21,1.07c-.03.12.05.23.16.26.11.03.23-.06.24-.17l.21-1.07c.03-.12-.05-.23-.16-.26Z"/>
          <path class="st59" d="M210.07,64.16c-.03-.17-.05-.36,0-.49.04-.1.12-.17.2-.23.21-.16.44-.28.69-.36.23-.08.52-.1.76.13.23.23.35.55.36.85.02.57.03.77-.22,1.17-.3.5-.74.62-1.2-.04-.23-.34-.52-.63-.6-1.02h0Z"/>
          <path class="st59" d="M211.45,63.43l-.92-1.27c-.06-.09-.04-.21.04-.27s.21-.04.27.04l.92,1.27c.06.09.04.21-.04.27s-.21.04-.27-.04Z"/>
          <path class="st59" d="M210.94,63.61l-.92-1.27c-.06-.09-.04-.21.04-.27s.21-.04.27.04l.92,1.27c.06.09.04.21-.04.27s-.21.04-.27-.04Z"/>
          <path class="st59" d="M210.6,64.13l-.92-1.27c-.06-.09-.04-.21.04-.27s.21-.04.27.04l.92,1.27c.06.09.04.21-.04.27s-.21.04-.27-.04Z"/>
          <path class="st59" d="M210.47,64.72l-.92-1.27c-.06-.09-.04-.21.04-.27s.21-.04.27.04l.92,1.27c.06.09.04.21-.04.27s-.21.04-.27-.04Z"/>
        </g>
        <path class="st59" d="M211.64,64.1c.03.17.06.34.09.51.28,1.59.67,4,1.06,5.44.21.76,3.12-2.85,4.02-3.72l.86,2.87c-2.04,1.98-5.4,4.91-5.81,3.51-.8-2.73-.86-5.84-.95-7.98,0-.2-.02-.4-.03-.58.27.09.43.07.75-.05h0Z"/>
        <g>
          <path class="st58" d="M217.75,76.3h8.02c-.76-2.7-1.18-4.66-1.2-6.29-.02-1.79-1.71-4.22-3.58-4.47-2.5-.33-2.53-.25-3.78.47-1.63,1.1-1.45,3.75-.76,5.35,1.09,2.56,1.33,3.93,1.3,4.95h0Z"/>
          <path class="st59" d="M218.74,68.1c.67-.29,1.34-.58,2.01-.86.43-.18.67-.59.5-.9-.23-.43-.6-.79-1.15-.9-.62-.13-1.87-.04-1.97.62-.11.81-.08.42-.16,1.72-.02.33.38.5.76.33h0Z"/>
        </g>
        <path class="st59" d="M222.73,74.31c.1.64.17,1.31.22,1.98h1.89c.19-2.5.14-5.11-.26-7.38-.13-.73-.75-1.27-1.47-1.28-1.04-.02-1.79.99-1.49,1.99.41,1.32.86,3.04,1.12,4.68h0Z"/>
        <path class="st3" d="M221.37,53.59c.26,0,.53.08.78,0,.22-.05.4-.2.61-.28.21-.07.49-.04.6.16.05.1.04.22.1.31.14.28.53.22.82.25.33.04.64.29.76.62.09.23.11.52.32.65.16.1.4.05.53.2.2.21-.03.55.06.83.06.19.26.29.41.43.28.25.39.68.28,1.03-.06.19-.18.36-.18.56,0,.26.21.49.17.75-.08.53-.68.4-1.12.59-.55.24-.82,1.06-1.42,1.01-.14,0-.29-.07-.42,0-.13.06-.18.23-.3.3-.23.14-.54-.1-.79-.1-.03,0-.16.03-.18.04-1.55.31-3.04-.17-3.64-1.33-.49-.96-.25-2.16.5-3.16,0-.02,0-.03-.02-.03-.11-.34-.03-.67.11-.98.28-.57.88-.52,1.17-.96.11-.16.08-.41.16-.59.12-.23.42-.3.68-.29v-.03Z"/>
        <g>
          <path class="st3" d="M220.54,62.5c.45-.31,1.33-.61,1.68-.88.23-.18.47-.37.65-.61.09-.12.21-.31.26-.64,0,0-.17-.35-.03-.09-.33-.61-.4-1.2-.28-1.72-.06-.3-.18-.64-.52-1.04-.75-.89-1.2-.81-1.71-1.02-.5-.22-.48-.16-1.13-.29-.56-.1-1.17.05-1.63.42,0,0-.26.23-.36.35-.1.13-.18.26-.27.4-.15.08-.68.41-.77.81-.16.78.06,1.13.06,1.13.4-.04.78-.56,1.12-.49.15.05.22.08.3.14.46.32.84.57.98,1.17.11.49-.09,1.07.25,1.45.29.34.88.35,1.2.66.08.08.14.17.18.27v-.02Z"/>
          <path class="st3" d="M223.58,60.3c-.08.39-1.54,2.15-2.12,2.57,0,0-.58.88-.58.87-.64-.53-.05-1.99-.05-1.99.15-.14.22-.43.18-.75-.05-.42-.29-.75-.54-.72-.02,0-.03.02-.05.03l1.45-1.69c.29.74,2.05.11,1.71,1.69h0Z"/>
        </g>
        <g>
          <g>
            <path class="st94" d="M217.93,59.6l2.5.05c.11,0,.21-.09.21-.2l.03-1.34c0-.23-.17-.41-.39-.42l-2.3-.05c-.53,0-.98.42-.99.96s.42.99.94,1h0Z"/>
            <path class="st3" d="M221.52,62.36c-.14.36-.31.67-.52.89h0c-.55-.6-.49-1.29-.49-1.29.16-.11.28-.39.29-.71,0-.42-.18-.78-.42-.78-.02,0-.03,0-.05.02l1.66-1.45c.17.76.1,1.82-.45,3.32h0Z"/>
            <path class="st59" d="M217.4,57.79c-.54.42-.89,1.05-.9,1.78l-.03,1.85c-.02,1.27.99,2.31,2.24,2.33,1.25.02,2.3-1,2.31-2.26l.03-1.79-3.65-1.92h0Z"/>
            <path class="st59" d="M220.6,66.95l-1.32-.02c-.18,0-.33-.2-.32-.43l.07-4.46c0-.23.16-.43.34-.42l1.32.02c.18,0,.33.2.32.43l-.07,4.46c0,.23-.16.43-.34.42Z"/>
            <path class="st3" d="M218.64,59.41h.55c.08.02.15.08.15.16,0,.08-.07.15-.15.15h-.55c-.08-.02-.15-.08-.15-.16,0-.08.07-.15.15-.15Z"/>
            <path class="st3" d="M216.62,59.36h.43c.06,0,.11.08.11.16s-.05.15-.12.15h-.43c-.06,0-.11-.08-.11-.16s.05-.15.12-.15Z"/>
            <path class="st51" d="M217.34,61.17l.02-.05c0,.11.07.22.17.25l.24.09c.09.03.16-.02.21-.09v.03c.03.17-.1.32-.24.27l-.24-.09c-.15-.05-.22-.24-.16-.41h0Z"/>
            <g>
              <path class="st3" d="M218.71,60.36c0,.14.07.26.16.26.1,0,.16-.11.17-.25,0-.14-.07-.26-.16-.26-.1,0-.16.11-.17.25Z"/>
              <polygon class="st3" points="218.88 60.11 218.6 60.1 218.77 60.28 218.88 60.11"/>
            </g>
            <g>
              <path class="st3" d="M216.72,60.33c0,.14.07.26.16.26.1,0,.16-.11.17-.25,0-.14-.07-.26-.16-.26-.1,0-.16.11-.17.25Z"/>
              <polygon class="st3" points="216.89 60.07 216.62 60.07 216.78 60.24 216.89 60.07"/>
            </g>
            <path class="st59" d="M220.99,60.53c.36,0,.64.36.63.8,0,.43-.3.78-.66.77-.36,0-.64-.36-.63-.8,0-.43.3-.78.66-.77Z"/>
            <path class="st3" d="M221.57,58.85c-.24-.54-.3-1.21-.77-1.58-.29-.23-.67-.27-1.03-.25-.43.02-.86.1-1.29.18-.31.06-.62.12-.93.18-.03,0-.07.02-.1.03-.03.03-.05.07-.06.1-.06.15-.28.51-.24.67.04.17.26.19.41.2,1.49.13,2.34,1.02,2.66,1.53.26.42.4.91.67,1.33.17.27.41.49.68.67,0,0,.03.02.03.02l.83-1.88c-.29-.39-.64-.76-.84-1.2h0Z"/>
          </g>
          <path class="st62" d="M218.31,62.1c-.03.16-.04.31-.38.36,0,0-.56.07-.5-.3l.89-.05h0Z"/>
        </g>
        <path class="st92" d="M217.6,56.89s4.26.53,4.38,5.52c0,0,.22-.15.49-.39.81-.73,1-1.96.42-2.89-.68-1.11-1.9-2.6-3.64-2.95-1.23-.24-1.64.7-1.64.7h0Z"/>
      </g>
      <g>
        <path class="st14" d="M235.83,76.32c.35-.84.77-1.68,1.27-2.49.26-.42.55-.86.87-1.31.15-.22.29-.43.45-.66.9-1.35,1.85-2.95,1.7-4.85,0-.11,0-.22,0-.35l.02-.13-.06-.12c-.23-.45-.43-.92-.62-1.38l-.13-.34-.35.06c-.68.12-1.41.35-1.77.55-1.01.56-2.58,2.31-3.86,4.93-.74,1.52-1.47,3.54-1.92,6.07h4.4,0Z"/>
        <path class="st14" d="M249.32,76.32c.05-1.19.08-2.37.05-3.54.02.02.04.04.06.06l-1.36-7.23s-.03-.03-.04-.03c-1.2-.95-1.88-.88-2.24-1-2.63-.53-6.49-.11-6.49-.11-1.81.29-3.92,1.75-3.87,3.61.05,2.33,1.53,4.96,1.54,8.25h12.35Z"/>
        <path class="st83" d="M236.89,76.32h.17c0-1.85-.46-3.48-.88-4.95-.34-1.19-.65-2.31-.67-3.36,0-.04-.03-.09-.09-.09s-.09.04-.09.09c.02,1.07.34,2.2.68,3.41.41,1.46.87,3.09.87,4.91h0Z"/>
        <path class="st59" d="M240.5,66.74h2.81c.43,0,.8-.36.8-.81v-.49c0-.44-.36-.81-.8-.81h-2.81c-.43,0-.8.36-.8.81v.49c0,.44.36.81.8.81Z"/>
        <path class="st14" d="M245.19,67.02c-.16,1.9.79,3.5,1.7,4.85.15.22.29.44.45.66.31.45.61.88.87,1.31.49.81.92,1.65,1.27,2.49h2.7c.89,0,1.55-.85,1.33-1.72-.43-1.74-1-3.19-1.56-4.35-1.27-2.62-2.85-4.36-3.86-4.93-.36-.2-1.08-.42-1.77-.55l-.35-.06-.13.34c-.18.46-.39.92-.62,1.38l-.06.12.02.13c.02.13.02.24,0,.35h0Z"/>
        <path class="st83" d="M249.52,76.37s-.08-.03-.1-.07c-.35-.84-.77-1.67-1.26-2.48-.26-.42-.55-.85-.86-1.3-.15-.22-.3-.43-.45-.66-.42-.62-.85-1.31-1.18-2.06-.03-.05,0-.12.05-.14.05-.03.11,0,.14.05.32.75.75,1.41,1.16,2.03.15.22.29.44.44.66.31.45.61.88.87,1.32.49.81.93,1.66,1.27,2.5.03.05,0,.12-.06.14h-.04,0Z"/>
        <g>
          <path class="st3" d="M243.47,57.01c.23.28.46.62.4.97-.03.15-.1.29-.1.43,0,.24.15.46.27.67.13.21.23.48.12.69-.1.21-.37.28-.49.48-.19.29-.03.77-.32.95-.12.08-.28.07-.39.16-.15.13-.11.39-.25.54-.1.11-.29.11-.42.03-.13-.07-.23-.2-.31-.34-.15-.25-.27-.55-.21-.84.07-.34.35-.58.54-.87.29-.46.06-1.07-.25-1.53-.1-.15.04-.29-.07-.43s-.2-.32-.17-.5c.02-.16.12-.3.2-.44.08-.15.13-.33.04-.47-.04-.07-.1-.11-.15-.17-.1-.18.04-.36.22-.4.17-.03.26.04.39.15.35.28.68.59.97.93h0Z"/>
          <path class="st3" d="M237.06,56.49c.03-.33.12-.69.39-.88.11-.08.24-.11.35-.2.16-.15.22-.38.27-.6.06-.22.16-.46.38-.51.2-.05.42.09.62.05.3-.05.53-.45.83-.36.12.03.22.16.35.17.18.03.33-.16.51-.16.14,0,.25.13.29.27.03.14,0,.29-.03.42-.07.26-.19.53-.42.67-.27.16-.6.12-.91.16-.49.08-.94.45-1.04.94-.03.16-.03.33-.05.49s-.09.33-.22.43c-.12.09-.28.1-.42.14-.14.03-.29.11-.33.26-.02.07,0,.14-.03.21-.05.19-.26.19-.4.1-.13-.1-.13-.21-.15-.36-.03-.42-.03-.83,0-1.25v-.02Z"/>
          <path class="st59" d="M242.39,58.83c.36-.02.67.32.69.77.03.44-.24.82-.61.84-.36.02-.67-.32-.69-.77-.03-.44.24-.82.61-.84Z"/>
          <path class="st59" d="M238.2,56.3c-.55.51-.88,1.27-.83,2.1l.35,2.13c.08,1.44,1.27,2.49,2.17,2.35,1.34-.2,2.63-1.23,2.55-2.66l-.11-2.04-4.11-1.88h0Z"/>
          <path class="st59" d="M243.39,65.53l-.53-5.31c-.03-.28-.26-.48-.52-.45l-1.88.2c-.26.03-.45.27-.42.55l.51,5.13,2.84-.11h0Z"/>
          <path class="st3" d="M239.58,58.15l.56-.03c.08,0,.16.06.16.15s-.06.16-.14.16l-.56.03c-.08,0-.16-.06-.16-.15s.06-.16.14-.16Z"/>
          <path class="st3" d="M237.37,58.26l.56-.03c.08,0,.16.06.16.15s-.06.16-.14.16l-.56.03c-.08,0-.16-.06-.16-.15s.06-.16.14-.16Z"/>
          <path class="st3" d="M237.79,58.95c0,.15.1.27.18.26.1,0,.16-.13.16-.28,0-.15-.1-.27-.18-.26-.1,0-.16.13-.16.28Z"/>
          <path class="st3" d="M239.89,58.88c0,.15.1.27.18.26s.16-.13.16-.28c0-.15-.1-.27-.18-.26-.1,0-.16.13-.16.28Z"/>
          <path class="st51" d="M238.53,59.78l.02-.05c.03.11.1.22.23.24l.29.07c.1.03.19-.03.24-.1v.03c.05.17-.1.33-.27.29l-.29-.07c-.17-.04-.28-.23-.22-.41Z"/>
          <path class="st57" d="M238.33,56.26s1.08-.74,2.74-.37l-.6.58-2.15-.2h0Z"/>
          <path class="st3" d="M237.61,56.62s2.36,1.89,5.35,1.6l-.12-1.77-4.27-.81-.96.97h0Z"/>
          <path class="st3" d="M242.36,58.25l.16,1.96c.08.62,0,1.33-.38,1.82-.18.24-.64.68-.89.87-.47.35-1.68.32-2.2.34-.48.02-1.01-.46-1.13-.94l-.21-1.65s1.65.06,2.64-.27c.81-.27.88-.45,1.06-1.32l.36-1.72.58.89h0Z"/>
          <path class="st62" d="M239.79,60.99c0,.16-.1.37-.48.45,0,0-.57.1-.54-.29l1.02-.16h0Z"/>
          <path class="st3" d="M243.76,56.56c.03.13.03.27.08.39.06.15.17.27.23.42.29.66-.55,1.48-.17,2.09-.26-.02-.44-.29-.54-.55s-.15-.55-.33-.76c-.27-.31-.72-.31-1.07-.52-.29-.18-.5-.52-.82-.65-.36-.15-.77,0-1.12-.16-.23-.1-.43-.33-.69-.34-.12,0-.23.04-.36.03-.85-.11-.03-1.43.23-1.71.39-.41,1.01-.83,1.59-.75.68.1.96.81,1.5,1.16.55.37,1.31.57,1.47,1.37h0Z"/>
        </g>
      </g>
      <g>
        <g>
          <path class="st59" d="M223.26,51.87c0-.08,0-.16-.02-.23v-.05c.03-.68-.06-1.42-.16-2.04l-3.3.13c.31.93.35,1.05.57,1.78-2.42-.58-7.43-1.89-8.51-2.28l-.52,1.37c.88.45,1.8.89,2.71,1.32h9.23Z"/>
          <path class="st46" d="M219.16,49.4c-.56-1.83-1.17-4.39-1.42-5.53l4.75.21c.12.75.95,3.15,1.44,4.61.18.56-.21,1.14-.8,1.18l-3.08.17c-.41.03-.78-.24-.89-.63h0Z"/>
          <path class="st56" d="M220.12,50.13h.05l3.08-.17c.31-.02.59-.17.76-.43.17-.26.22-.58.12-.88-.1-.29-.2-.6-.31-.93-.23-.68-.49-1.46-.69-2.11-.02-.05-.08-.09-.13-.07-.05.02-.09.08-.07.13.21.67.47,1.44.69,2.12.11.33.22.65.31.93.08.23.04.49-.1.69-.14.21-.36.33-.61.35l-3.08.17c-.36.03-.68-.21-.79-.56-.35-1.14-.69-2.47-.92-3.38-.02-.05-.07-.09-.13-.08-.05.02-.09.07-.08.13.23.92.57,2.24.92,3.39.13.42.51.71.94.71h.02Z"/>
          <g>
            <path class="st59" d="M211.09,47.55c-.11.04-.17.17-.13.29l.39,1.08c.04.12.17.18.29.15.11-.04.17-.17.13-.29l-.39-1.08c-.04-.12-.17-.18-.29-.15Z"/>
            <path class="st59" d="M209.95,49.97c-.13-.14-.24-.29-.27-.45-.02-.12.02-.23.06-.32.11-.26.26-.49.44-.7.17-.2.42-.38.78-.3.34.08.62.31.8.58.33.5.44.68.44,1.18,0,.62-.35.96-1.14.62-.41-.17-.83-.29-1.11-.6h0Z"/>
            <path class="st59" d="M210.82,48.55l-1.54-.64c-.1-.04-.16-.16-.11-.27.04-.1.16-.16.27-.11l1.54.64c.1.04.16.16.11.27-.04.1-.16.16-.27.11Z"/>
            <path class="st59" d="M210.44,49l-1.54-.64c-.1-.04-.16-.16-.11-.27.04-.1.16-.16.27-.11l1.54.64c.1.04.16.16.11.27-.04.1-.16.16-.27.11Z"/>
            <path class="st59" d="M210.43,49.66l-1.54-.64c-.1-.04-.16-.16-.11-.27.04-.1.16-.16.27-.11l1.54.64c.1.04.16.16.11.27-.04.1-.16.16-.27.11Z"/>
            <path class="st59" d="M210.63,50.25l-1.54-.64c-.1-.04-.16-.16-.11-.27.04-.1.16-.16.27-.11l1.54.64c.1.04.16.16.11.27-.04.1-.16.16-.27.11Z"/>
          </g>
        </g>
        <path class="st3" d="M228.14,51.87h2.28c-.03-.11-.07-.23-.12-.34-.21-.46-.56-.85-.74-1.32-.17-.46-.16-.97-.19-1.47-.15-2.74-1.43-4.94-3.19-6.88-.23-.24-.63-.4-.86-.16-.17.2-.1.5-.03.76.95,3.14,1.9,6.28,2.85,9.41h0Z"/>
        <path class="st3" d="M228.97,51.87c-.78-3.85-.42-5.28-1.72-8.69-.75-1.96-2.81-3.12-5.05-3.07-.11,0-.23,0-.35,0-2.06.1-3.03-.8-6.08,1.73,0,0-1.37,1.6-1.4,2.84.38,2.67,2.19,4.78,3.37,7.18,0,0,11.23,0,11.23,0Z"/>
        <g>
          <path class="st3" d="M214.14,33.21c.04-.1.12-.17.16-.27.09-.22-.04-.45-.08-.68-.04-.23.14-.55.32-.45-.16-.3-.33-.68-.17-1.01.29-.62,1.28-.29,1.63-.88.1-.17.12-.4.25-.55.17-.22.49-.2.7-.07.15.09.27.22.39.36.02,0,.04,0,.06.02.18.02.26-.03.44-.13.34-.18.75.03,1.05.36.12.14.34-.16.48-.03.31.29.81.33,1.01.73.1.22.1.49.23.68.14.21.42.29.51.52.15.38-.1.83-.03,1.21.03.18-.08.39-.07.46.03.16,0,.32-.03.45.05.44.08.94.05,1.52-.02.4-.09.75-.22,1.04,0,0-.09.16-.15.29-.03.06-.06.11-.06.11-.04-.28-.11-.5-.18-.69.04-.27.03-.55-.03-.82h0c.35-.11.52-.55.39-.97-.13-.41-.49-.66-.82-.58l-.44.25c-1.56.21-1.59-1.51-3.02-1.33-.93.11-1.42.43-1.65.65-.07.35-.07.71,0,1.07l.51-.16c.08-.03.16.02.19.1.03.08-.02.16-.1.19l-.52.16h-.02c-.08.03-.16-.02-.19-.1-.02-.05,0-.1.03-.13-.05-.04-.1-.1-.11-.17,0,0,0,.02,0,.02-.31-.13-.69-.76-.5-1.15h-.02Z"/>
          <path class="st59" d="M215.48,34.58l-.52.16.62,1.95c.41,1.29,1.47,2.03,2.7,1.76l.49,2.52c.05.25.16-.23.41-.28l1.8-.25c.24-.05.47.25.42,0l-.72-3.69c-.03.06-.06.11-.06.11-.04-.28-.11-.5-.18-.69.04-.27.03-.55-.03-.82h0c.35-.11.52-.55.39-.97-.13-.41-.49-.66-.82-.58l-.44.25c-1.56.21-1.59-1.51-3.02-1.33-.93.11-1.42.43-1.65.65-.07.35-.07.71,0,1.07l.51-.16c.08-.03.16.02.19.1.03.08-.02.16-.1.19h-.02ZM217.49,34.52c-.04-.15,0-.29.09-.31.1-.03.2.06.24.21.04.15,0,.29-.09.31-.1.03-.2-.06-.24-.21ZM217.08,34.11c-.08.03-.16-.02-.19-.1-.03-.08.02-.16.1-.19l.55-.17c.08-.03.16.02.19.1.03.08-.02.16-.1.19l-.55.17ZM217,36.85l.82-.38c-.22.64-.82.38-.82.38ZM216.37,35.74v-.05c.05.1.16.18.29.18h.3c.1,0,.18-.09.21-.17l.02.03c.09.16-.02.35-.2.36h-.3c-.18.02-.33-.15-.31-.33h0ZM215.52,34.81c.1-.03.2.06.24.21.04.15,0,.29-.09.31-.1.03-.2-.06-.24-.21-.04-.15,0-.29.09-.31Z"/>
          <path class="st3" d="M216.89,34c-.03-.08.02-.16.1-.19l.55-.17c.08-.03.16.02.19.1.03.08-.02.16-.1.19l-.55.17c-.08.03-.16-.02-.19-.1Z"/>
          <path class="st3" d="M215.77,35.02c.04.15,0,.29-.09.31-.1.03-.2-.06-.24-.21-.04-.15,0-.29.09-.31s.2.06.24.21Z"/>
          <path class="st3" d="M217.57,34.21c.1-.03.2.06.24.21.04.15,0,.29-.09.31-.1.03-.2-.06-.24-.21-.04-.15,0-.29.09-.31Z"/>
          <path class="st51" d="M216.37,35.68c.05.1.16.18.28.18h.3c.1,0,.18-.09.21-.17l.02.03c.09.16-.02.35-.2.36h-.3c-.18.02-.33-.15-.31-.33v-.05h0Z"/>
          <path class="st62" d="M217,36.85l.82-.38c-.22.64-.82.38-.82.38Z"/>
        </g>
        <path class="st59" d="M219.39,40.02h1.45c.72,0,1.3.59,1.3,1.32s-.59,1.32-1.3,1.32h-1.45c-.72,0-1.3-.59-1.3-1.32s.59-1.32,1.3-1.32Z"/>
        <g>
          <path class="st59" d="M227.86,51.87c.1-.43.16-1.05.03-1.89v-.05c0-.68-.16-1.41-.29-2.02l-3.28.35c.37.91.41,1.02.68,1.74-2.45-.42-7.53-1.4-8.64-1.72l-.42,1.4c1.89.81,3.9,1.59,5.71,2.19h6.23,0Z"/>
          <path class="st3" d="M223.65,48c-.68-1.79-1.45-4.3-1.77-5.43l4.75-.1c.17.74,1.15,3.08,1.72,4.51.22.55-.14,1.15-.72,1.23l-3.06.37c-.41.05-.79-.19-.94-.57h0Z"/>
          <path class="st39" d="M224.59,48.69h.12l3.06-.37c.31-.03.58-.22.74-.49.16-.27.18-.59.06-.88-.11-.28-.23-.58-.36-.91-.27-.67-.58-1.42-.83-2.07-.02-.05-.08-.08-.14-.06-.05.02-.08.09-.06.14.25.65.56,1.4.83,2.07.13.32.26.63.36.91.1.23.08.49-.05.7-.12.22-.34.36-.58.38l-3.06.37c-.36.04-.69-.16-.82-.5-.42-1.11-.85-2.42-1.14-3.31-.02-.05-.08-.09-.13-.07-.05.02-.09.08-.07.13.29.9.71,2.21,1.14,3.33.15.39.52.65.93.65v-.02Z"/>
          <g>
            <path class="st59" d="M215.5,46.69c-.11.05-.16.18-.11.3l.46,1.06c.05.12.18.17.29.12.11-.05.16-.18.11-.3l-.46-1.06c-.05-.12-.18-.17-.29-.12Z"/>
            <path class="st59" d="M214.5,49.18c-.14-.13-.27-.28-.3-.43-.03-.11,0-.23.03-.33.1-.26.23-.51.4-.74.16-.21.4-.41.75-.36.35.05.64.27.83.52.36.49.49.66.52,1.15.03.62-.29.98-1.09.69-.42-.15-.85-.23-1.14-.52h0Z"/>
            <path class="st59" d="M215.28,47.71l-1.59-.55c-.1-.03-.16-.16-.13-.26.03-.1.16-.16.26-.13l1.59.55c.1.03.16.16.13.26-.03.1-.16.16-.26.13Z"/>
            <path class="st59" d="M214.93,48.17l-1.59-.55c-.1-.03-.16-.16-.13-.26.03-.1.16-.16.26-.13l1.59.55c.1.03.16.16.13.26-.03.1-.16.16-.26.13Z"/>
            <path class="st59" d="M214.95,48.83l-1.59-.55c-.1-.03-.16-.16-.13-.26.03-.1.16-.16.26-.13l1.59.55c.1.03.16.16.13.26-.03.1-.16.16-.26.13Z"/>
            <path class="st59" d="M215.19,49.42l-1.59-.55c-.1-.03-.16-.16-.13-.26.03-.1.16-.16.26-.13l1.59.55c.1.03.16.16.13.26-.03.1-.16.16-.26.13Z"/>
          </g>
        </g>
      </g>
      <g>
        <path class="st62" d="M193.55,30.03l-6.39.04c-.15,0-.27-.12-.27-.27s.12-.27.27-.27l6.39-.04c.15,0,.27.12.27.27s-.12.27-.27.27Z"/>
        <path class="st62" d="M195.6,30.02h-.89c-.15,0-.27-.11-.27-.26s.12-.27.27-.27h.89c.15,0,.27.11.27.26s-.12.27-.27.27Z"/>
        <path class="st62" d="M189.82,31.2l-2.65.02c-.15,0-.27-.12-.27-.27s.12-.27.27-.27l2.65-.02c.15,0,.27.12.27.27s-.12.27-.27.27Z"/>
        <path class="st62" d="M195.6,31.17l-4.6.03c-.15,0-.27-.12-.27-.27s.12-.27.27-.27l4.6-.03c.15,0,.27.12.27.27s-.12.27-.27.27Z"/>
        <path class="st62" d="M192.3,32.35l-5.11.03c-.15,0-.27-.12-.27-.27s.12-.27.27-.27l5.11-.03c.15,0,.27.12.27.27s-.12.27-.27.27Z"/>
      </g>
      <g>
        <path class="st62" d="M198.27,35.26l-4.3-.03c-.13,0-.23-.13-.23-.29s.1-.29.23-.29l4.3.03c.13,0,.23.13.23.29s-.1.29-.23.29Z"/>
        <path class="st62" d="M200.84,35.27h-1.48c-.13,0-.23-.14-.23-.3s.1-.29.23-.29h1.48c.13,0,.23.14.23.3s-.1.29-.23.29Z"/>
        <path class="st62" d="M196.53,36.33l4.3.03c.13,0,.23-.13.23-.29s-.1-.29-.23-.29l-4.3-.03c-.13,0-.23.13-.23.29s.1.29.23.29Z"/>
        <path class="st62" d="M194.06,37.41l6.54.03c.2,0,.36-.13.36-.29s-.16-.29-.36-.29l-6.54-.03c-.2,0-.36.13-.36.29s.16.29.36.29Z"/>
        <path class="st62" d="M193.95,36.31h1.48c.13,0,.23-.12.23-.29s-.1-.29-.23-.29h-1.48c-.13,0-.23.12-.23.29s.1.29.23.29Z"/>
      </g>
      <g>
        <path class="st62" d="M198.21,47.81l-4.3-.03c-.13,0-.23-.13-.23-.29s.1-.29.23-.29l4.3.03c.13,0,.23.13.23.29s-.1.29-.23.29Z"/>
        <path class="st62" d="M200.79,47.83h-1.48c-.13,0-.23-.14-.23-.3s.1-.29.23-.29h1.48c.13,0,.23.14.23.3s-.1.29-.23.29Z"/>
        <path class="st62" d="M196.47,48.88l4.3.03c.13,0,.23-.13.23-.29s-.1-.29-.23-.29l-4.3-.03c-.13,0-.23.13-.23.29s.1.29.23.29Z"/>
        <path class="st62" d="M194.01,49.96l6.54.03c.2,0,.36-.13.36-.29s-.16-.29-.36-.29l-6.54-.03c-.2,0-.36.13-.36.29s.16.29.36.29Z"/>
        <path class="st62" d="M193.9,48.87h1.48c.13,0,.23-.12.23-.29s-.1-.29-.23-.29h-1.48c-.13,0-.23.12-.23.29s.1.29.23.29Z"/>
      </g>
      <g>
        <path class="st62" d="M189.86,42.21l4.3.03c.13,0,.23-.13.23-.29s-.1-.29-.23-.29l-4.3-.03c-.13,0-.23.13-.23.29s.1.29.23.29Z"/>
        <path class="st62" d="M187.4,43.29l6.54.03c.2,0,.36-.13.36-.29s-.16-.29-.36-.29l-6.54-.03c-.2,0-.36.13-.36.29s.16.29.36.29Z"/>
        <path class="st62" d="M187.29,42.19h1.48c.13,0,.23-.12.23-.29s-.1-.29-.23-.29h-1.48c-.13,0-.23.12-.23.29s.1.29.23.29Z"/>
      </g>
      <path class="st62" d="M198.24,38.45l-4.3-.03c-.13,0-.23-.13-.23-.29s.1-.29.23-.29l4.3.03c.13,0,.23.13.23.29s-.1.29-.23.29Z"/>
      <path class="st59" d="M223.95,89.33h6.14c-1.14-2.83-5-2.63-5-2.63l-1.14,2.63Z"/>
      <g>
        <path class="st59" d="M191.25,63.31h.02c.06-.02.11-.03.17-.06,3-.92,3.95-3.39,4.23-4.49.03-.04.05-.09.09-.13-.31-.29-.55-.75-.63-1.27-.14-.97.31-1.8,1.01-1.85.26-.03.52.07.75.24.16.12.3.29.42.48.15-.04.17-.49.17-.62,0-.29-.04-.58-.04-.87,0-.42.22-.94.43-1.44l.57,4.46c.15,1.56-.53,3.01-1.59,4.05-.49.49-1.07.88-1.7,1.14-.29.62-.53,1.27-.71,1.94-.18.65-.52,1.57-1.13,2.35-.21.28-.39-.29-.73-.26-1.33.16-2.74-.31-3.72-1.25-.08-.07-.16-.16-.16-.27,0-.1.06-.2.12-.29.41-.55.62-1.07.9-1.69.08-.16.15-.38.21-.61.24.12.46.32.72.41.19.07.38.06.57.02h0Z"/>
        <path class="st3" d="M186.76,59.67c.02.08.05.15.07.23.12.79-.23,1.72.29,2.32.32.38.87.47,1.36.47s1.01-.03,1.46.18c0,0,0,0,.02,0,.24.12.46.32.72.41.19.07.38.06.57.02h.02c.06-.02.11-.03.17-.06,3-.92,3.95-3.39,4.23-4.49.03-.04.05-.09.09-.13-.31-.29-.55-.75-.63-1.27-.14-.97.31-1.8,1.01-1.85.26-.03.52.07.75.24.16.12.3.29.42.48.15-.04.17-.49.17-.62,0-.29-.04-.58-.04-.87,0-.42.22-.94.43-1.44.18-.43.37-.85.45-1.2.21-1.01.03-2.49-.54-3.35-.56-.86-1.86-.68-2.88-.81-.36-.05-.75-.04-1.07-.2-.29-.14-.51-.39-.79-.55-.54-.33-1.22-.31-1.82-.13-.03,0-.05.03-.09.03-.56.19-1.08.49-1.61.76-.85.43-1.76.77-2.51,1.36-.29.23-.55.49-.75.8-.29.43-.49.92-.49,1.43-.11.09-.22.18-.31.29-.57.63-.92,1.46-1,2.31-.02.17-.02.36,0,.53.04,1.18.53,2.33,1.22,3.29.42.57.9,1.13,1.08,1.79h0v.02Z"/>
      </g>
      <path class="st62" d="M200.55,84s-5.24-6-6.3-8.57l-1.41-3.41c-2.09-5.01,7.02-4.89,9.12.15.97,2.34,2.33,4.84,3.67,6.87l.04-.03.78.84c3.41,3.69,12.35,4.53,17.83,4.89.68.04,1.17.64,1.1,1.33l-.22,2.19c-.06.63-.6,1.11-1.22,1.09-19.15-.51-19.81-2.44-23.4-5.34h0Z"/>
      <path class="st62" d="M174.77,109.11h22.05c.7-.76,1.24-1.6,1.51-2.47.83-2.64,1.57-5.5,1.16-7.2-4.19-17.36,1.45-13.03,3.5-22.01.49-2.15-3.48-12.59-6.46-12.63-3.24-.04-10.51.26-13.5,2.66-2.01,1.61-6.12,8.71-8.75,14.73-3.55,8.33,6.8,7.77-1.19,21.45-1.2,2.06-.27,4.57,1.68,5.47h0Z"/>
      <path class="st61" d="M223.95,89.51c-16.76-.45-19.41-1.97-22.35-4.42-.81-.68-1.56-1.41-2.21-2.19-.88-1.05-2.15-2.61-3.25-4.11l.28-.21c1.09,1.49,2.36,3.05,3.23,4.09.63.76,1.36,1.48,2.17,2.15,2.89,2.4,5.5,3.89,22.15,4.34v.35h0Z"/>
      <g>
        <path class="st85" d="M190.38,36.55c.09-.05.22-.04.3-.09.19-.1.1-.34.18-.5.1-.23.52-.29.83-.25.16.03.27.05.29.17.02.1,0,.1.09.18.05.06.1.1.12.16.08.19.05.39-.08.54-.06.07-.15.13-.22.2l.08.05c.1.05.2.14.27.25l.1.3c.34-.25.55-.65.56-1.1,0-.75-.58-1.36-1.31-1.36s-1.33.61-1.35,1.36c0,.09,0,.16.02.24,0-.07.03-.14.1-.18v.02Z"/>
        <path class="st71" d="M192.26,37.28c-.07-.11-.16-.2-.27-.25l-.02.75c.14-.04.27-.11.38-.2l-.1-.3h0Z"/>
        <path class="st2" d="M190.79,37.58l.07-.2s0-.05.02-.08c0-.02.02-.03.03-.04.16-.18.38-.29.45-.31.05-.02.11-.03.18-.04v-.27s-.07-.12-.07-.2v-.02s-.07-.03-.07-.08.03-.08.06-.08v-.03c0-.08.03-.16.08-.2l.31.2v.06s.06.03.06.08-.03.08-.06.08c0,.08-.03.14-.08.18v.26s.03.03.04.03c.03,0,.07.03.1.04.07-.07.15-.13.22-.2.13-.15.16-.35.08-.54-.03-.07-.07-.1-.12-.16-.08-.09-.07-.09-.09-.18-.03-.12-.13-.15-.29-.17-.31-.04-.73.02-.83.25-.08.16,0,.41-.18.5-.09.04-.22.03-.3.09-.07.03-.1.1-.1.18.06.35.24.65.51.85h0Z"/>
        <path class="st71" d="M190.9,37.25s-.02.03-.03.04c0,.03-.02.05-.02.08l-.07.2c.16.12.36.21.56.24v-.88c-.06.03-.28.13-.45.31h0Z"/>
        <path class="st62" d="M191.91,36.98s-.07-.03-.1-.04c.02.02.02.04,0,.07-.05.09-.03.04-.11.17,0,.02-.03.03-.05.03s-.03,0-.05-.03c-.09-.13-.06-.1-.1-.17-.02-.03,0-.07.03-.1-.06,0-.12.03-.17.04v.88c.07,0,.15.02.22.02.14,0,.28-.03.41-.06l.02-.75s-.05-.04-.08-.05h0Z"/>
        <path class="st55" d="M191.5,36.99c.04.09.03.04.1.17,0,.02.03.03.05.03.02,0,.03,0,.05-.03.09-.13.06-.1.11-.17.02-.03,0-.05,0-.07s-.03-.03-.04-.03v-.26c.05-.04.08-.11.09-.18.03,0,.06-.03.06-.08s-.03-.08-.06-.08v-.06l-.31-.2s-.08.12-.08.2v.03s-.07.03-.07.08.03.08.06.08h0c0,.09.03.16.07.21v.26s-.06.06-.04.1h0Z"/>
      </g>
      <path class="st65" d="M209.41,29.57c0,.29-.23.51-.5.51s-.5-.23-.5-.51.23-.51.5-.51.5.23.5.51Z"/>
      <path class="st92" d="M210.7,29.57c0,.29-.23.51-.5.51s-.5-.23-.5-.51.23-.51.5-.51.5.23.5.51Z"/>
      <ellipse class="st65" cx="251.14" cy="29.13" rx=".5" ry=".51"/>
      <ellipse class="st92" cx="252.42" cy="29.13" rx=".5" ry=".51"/>
      <path class="st65" d="M209.64,54.19c0,.29-.23.51-.5.51s-.5-.23-.5-.51.23-.51.5-.51.5.23.5.51Z"/>
      <path class="st92" d="M210.92,54.19c0,.29-.23.51-.5.51s-.5-.23-.5-.51.23-.51.5-.51.5.23.5.51Z"/>
      <ellipse class="st65" cx="251.36" cy="53.76" rx=".5" ry=".51"/>
      <path class="st92" d="M252.65,53.24c.28,0,.5.23.5.51s-.23.51-.5.51-.5-.23-.5-.51.23-.51.5-.51Z"/>
      <g>
        <path class="st62" d="M155.68,39.42l-.8-4.31c-.09-.46.22-.91.67-1l7.36-1.39c.46-.09.89.22.98.68l.8,4.31c.09.46-.22.91-.67,1l-7.36,1.39c-.45.09-.89-.22-.98-.68ZM155.61,34.44c-.28.05-.46.32-.41.61l.8,4.31c.05.28.32.47.6.42l7.36-1.39c.28-.05.46-.32.41-.61l-.8-4.31c-.05-.28-.32-.47-.6-.42l-7.36,1.39Z"/>
        <polygon class="st62" points="159.47 36.25 163.55 33.14 163.35 32.88 159.42 35.88 155.16 34.42 155.06 34.74 159.47 36.25"/>
      </g>
      <g>
        <g>
          <path class="st85" d="M186.06,31.6s.04-.06.05-.1c0,0,0,0,0-.02.02-.03.03-.06.04-.1v-.02s.03-.07.03-.1.02-.07.03-.1v-.02s0-.07.02-.1v-.36c-.1-.57-.58-1.01-1.17-1.01-.27,0-.51.09-.71.23-.02,0-.03.03-.05.04-.03.03-.05.05-.08.07,0,0,0,0-.02.02-.03.03-.04.05-.07.08,0,0,0,0-.02.02-.02.03-.04.05-.06.09-.03.03-.04.06-.05.1,0,0,0,0,0,.02-.02.03-.03.06-.04.1v.02s-.03.07-.03.1-.02.07-.03.1v.02s0,.07-.02.1v.36c.1.57.58,1.01,1.17,1.01.27,0,.51-.09.71-.23.02,0,.03-.03.05-.04.03-.03.05-.05.08-.07,0,0,0,0,.02-.02.03-.03.04-.05.07-.08,0,0,0,0,.02-.02.02-.03.04-.05.06-.09Z"/>
          <path class="st71" d="M185.68,31.63c-.06-.1-.16-.18-.24-.23l-.02.68c.12-.04.24-.1.35-.18l-.09-.28h0Z"/>
          <path class="st71" d="M184.45,31.61s-.02.03-.03.03c0,.03-.02.05-.02.08l-.06.18c.15.11.32.19.51.22v-.8c-.06.02-.25.11-.41.28h0Z"/>
          <path class="st62" d="M185.36,31.35s-.06-.03-.1-.04c0,.02.02.04,0,.06-.04.08-.03.04-.1.16,0,.02-.03.03-.04.03s-.03,0-.04-.03c-.08-.12-.05-.09-.1-.16-.02-.03,0-.06.03-.09-.06,0-.11.03-.16.04v.8c.06,0,.13.02.2.02.13,0,.25-.02.36-.06l.02-.68s-.05-.03-.08-.05h0Z"/>
        </g>
        <g>
          <path class="st2" d="M184.94,30.85s-.05-.03-.05-.07c0-.04.03-.07.06-.07v-.03c0-.07.03-.14.07-.18l.28.18v.06s.05.03.05.07c0,.04-.03.07-.05.07,0,.03,0,.06-.03.09.12-.06.2-.18.2-.34,0-.2-.16-.36-.34-.36s-.34.16-.34.36c0,.13.06.24.16.31,0-.03,0-.05,0-.08h0s0,0,0,0Z"/>
          <path class="st55" d="M185.3,30.74v-.06l-.28-.18s-.07.1-.07.18v.03s-.06.03-.06.07c0,.04.03.07.05.07h0s0,.06,0,.09c0,.04.03.08.05.1v.23s-.05.06-.03.1c.04.08.02.04.1.16,0,.02.03.03.04.03s.03,0,.04-.03c.08-.12.05-.09.1-.16,0-.03,0-.04,0-.06s-.03-.03-.03-.03h0v-.23s.04-.04.05-.08c0-.03.02-.06.03-.09.03,0,.05-.03.05-.07,0-.04-.03-.07-.05-.07h0Z"/>
        </g>
      </g>
      <g>
        <g>
          <g>
            <path class="st85" d="M186.12,43.16s.04-.06.05-.1c0,0,0,0,0-.02.02-.03.03-.06.04-.1v-.02s.03-.07.03-.1c0-.03.02-.07.03-.1v-.02s0-.07.02-.1v-.36c-.1-.57-.58-1.01-1.17-1.01-.27,0-.51.09-.71.23-.02,0-.03.03-.05.04-.03.03-.05.05-.08.07,0,0,0,0-.02.02-.03.03-.04.05-.07.08,0,0,0,0-.02.02-.02.03-.04.05-.06.09-.03.03-.04.06-.05.1,0,0,0,0,0,.02-.02.03-.03.06-.04.1v.02s-.03.07-.03.1c0,.03-.02.07-.03.1v.02s0,.07-.02.1v.36c.1.57.58,1.01,1.17,1.01.27,0,.51-.09.71-.23.02,0,.03-.03.05-.04.03-.03.05-.05.08-.07,0,0,0,0,.02-.02.03-.03.04-.05.07-.08,0,0,0,0,.02-.02.02-.03.04-.05.06-.09Z"/>
            <path class="st71" d="M185.74,43.19c-.06-.1-.16-.18-.24-.23l-.02.68c.12-.04.24-.1.35-.18l-.09-.28h0Z"/>
            <path class="st71" d="M184.52,43.17s-.02.03-.03.03c0,.03-.02.05-.02.08l-.06.18c.15.11.32.19.51.22v-.8c-.06.02-.25.11-.41.28h0Z"/>
            <path class="st62" d="M185.43,42.91s-.06-.03-.1-.04c0,.02.02.04,0,.06-.04.08-.03.04-.1.16,0,.02-.03.03-.04.03s-.03,0-.04-.03c-.08-.12-.05-.09-.1-.16-.02-.03,0-.06.03-.09-.06,0-.11.03-.16.04v.8c.06,0,.13.02.2.02.13,0,.25-.02.36-.06l.02-.68-.08-.05h0Z"/>
          </g>
          <g>
            <path class="st2" d="M185.01,42.42s-.05-.03-.05-.07c0-.04.03-.07.06-.07v-.03c0-.07.03-.14.07-.18l.28.18v.06s.05.03.05.07c0,.04-.03.07-.05.07,0,.03,0,.06-.03.09.12-.06.2-.18.2-.34,0-.2-.16-.36-.34-.36s-.34.16-.34.36c0,.13.06.24.16.31,0-.03,0-.05,0-.08h0s0,0,0,0Z"/>
            <path class="st55" d="M185.36,42.3v-.06l-.28-.18s-.07.1-.07.18v.03s-.06.03-.06.07c0,.04.03.07.05.07h0s0,.06,0,.09c0,.04.03.08.05.1v.23s-.05.06-.03.1c.04.08.02.04.1.16,0,.02.03.03.04.03s.03,0,.04-.03c.08-.12.05-.09.1-.16,0-.03,0-.04,0-.06s-.03-.03-.03-.03h0v-.23s.04-.04.05-.08c0-.03.02-.06.03-.09.03,0,.05-.03.05-.07,0-.04-.03-.07-.05-.07h0Z"/>
          </g>
        </g>
        <path class="st2" d="M185.18,42.7c-.07,0-.13-.06-.13-.13v-.03c0-.07.06-.13.13-.13s.13.06.13.13v.03c0,.07-.06.13-.13.13Z"/>
      </g>
      <path class="st3" d="M169.56,109.11h1.39l-.98-6.86c-.05-.38-.4-.65-.78-.59-.37.05-.63.41-.58.79l.95,6.67h0Z"/>
      <path class="st3" d="M186.79,109.11h1.39l-.99-6.91c-.05-.38-.4-.65-.78-.59-.37.05-.63.41-.58.79l.95,6.71h0Z"/>
      <g>
        <path class="st75" d="M167.66,103.9h24.22c2.27,0,4.03-2,3.77-4.28l-2.75-23.92c-.29-2.55-2.42-4.63-4.72-4.63h-22.75c-2.31,0-3.95,2.09-3.67,4.63l2.93,25.53c.17,1.53,1.46,2.69,2.97,2.69h0Z"/>
        <path class="st62" d="M166.64,103.9h23.25c2.09,0,3.72-1.85,3.48-3.95l-2.78-24.26c-.29-2.55-2.42-4.63-4.72-4.63h-22.75c-2.31,0-3.95,2.09-3.67,4.63l2.78,24.23c.26,2.27,2.16,3.98,4.41,3.98Z"/>
      </g>
      <path class="st62" d="M174.39,44.42h-.03c-.11-.02-.2-.13-.17-.25.08-.49.13-.99.16-1.48,0-.12.1-.21.23-.21s.21.1.2.23c-.03.51-.08,1.02-.16,1.53-.02.1-.1.18-.21.18h0ZM174.54,41.4c-.11,0-.21-.09-.22-.21-.03-.49-.07-.99-.15-1.48-.02-.12.06-.23.18-.24.11-.02.23.06.24.18.08.5.12,1.01.15,1.53,0,.12-.09.22-.2.23h0ZM174.11,38.42c-.1,0-.18-.07-.21-.16-.12-.49-.27-.96-.43-1.42-.04-.11.02-.23.13-.28.11-.04.23.02.28.13.17.48.32.97.44,1.46.03.11-.04.23-.16.26h-.05ZM173.09,35.59c-.08,0-.16-.04-.19-.12l-.03-.04c-.19-.39-.42-.81-.68-1.27-.06-.1-.03-.23.08-.29s.23-.03.29.08c.28.48.5.9.69,1.3l.03.04c.05.1,0,.23-.1.29-.03.02-.06.03-.1.03ZM171.6,32.96c-.07,0-.14-.03-.18-.1l-.07-.11c-.24-.39-.49-.78-.71-1.18-.06-.1-.03-.23.08-.29s.23-.03.29.08c.23.39.47.78.71,1.17l.07.11c.06.1.03.23-.07.29-.03.03-.08.03-.11.03h0ZM170.09,30.35c-.08,0-.16-.04-.19-.12-.25-.49-.45-.95-.61-1.41-.04-.11.02-.23.13-.28.11-.04.23.02.28.13.16.43.35.88.59,1.36.05.1,0,.23-.1.29-.03.02-.06.03-.1.03h0ZM169.1,27.51c-.1,0-.19-.08-.21-.18,0-.07-.03-.15-.03-.22-.05-.35-.08-.7-.08-1.05v-.29c0-.12.1-.21.23-.21s.21.1.21.23v.27c0,.33.03.66.07.99,0,.07.02.14.03.21.02.12-.06.23-.17.25h-.04ZM169.21,24.51h-.05c-.11-.03-.18-.15-.16-.26.11-.49.28-.99.49-1.46.04-.11.17-.16.28-.11.1.05.16.17.11.29-.2.46-.36.93-.47,1.4-.03.1-.11.16-.21.16h0ZM170.39,21.76s-.08,0-.11-.03c-.1-.06-.13-.2-.06-.29.27-.42.58-.84.92-1.23.08-.09.22-.1.3-.02s.1.22.02.3c-.32.37-.62.77-.88,1.18-.04.06-.11.1-.18.1h0ZM202.39,20.05c-.39,0-.79,0-1.18-.03-.12,0-.21-.1-.21-.23s.1-.22.23-.21c.49.02,1,.03,1.48.02.12,0,.22.1.22.22s-.1.22-.21.22h-.33,0ZM204.21,19.99c-.11,0-.21-.09-.22-.2,0-.12.08-.23.2-.23.49-.03,1-.08,1.47-.14.12-.02.23.07.23.19.02.12-.07.23-.19.24-.49.06-1,.1-1.5.14h-.02.02ZM199.73,19.93h-.02c-.49-.04-1-.1-1.49-.16-.11-.02-.2-.12-.18-.24.02-.12.12-.2.24-.18.49.07.99.12,1.47.16.12,0,.21.11.19.23,0,.11-.1.2-.22.2h0ZM207.18,19.62c-.1,0-.19-.07-.21-.18-.02-.12.06-.23.17-.25.49-.09.98-.19,1.45-.31.11-.03.23.04.26.16.03.11-.04.23-.16.26-.49.12-.98.23-1.47.31h-.03v.02ZM196.78,19.52h-.03c-.47-.09-.95-.18-1.47-.29-.11-.03-.19-.14-.16-.26.03-.11.14-.19.25-.16.51.11.99.21,1.46.29.11.02.19.13.17.25-.02.1-.11.17-.21.17h0ZM172.35,19.48c-.06,0-.12-.03-.16-.08-.08-.09-.07-.23.03-.3.38-.34.8-.65,1.22-.93.1-.06.23-.03.29.06.06.1.03.23-.06.29-.41.27-.81.56-1.17.88-.04.03-.09.05-.14.05v.02ZM210.08,18.9c-.09,0-.17-.06-.2-.15-.03-.11.03-.23.14-.27.48-.15.94-.32,1.4-.5.11-.04.23,0,.28.12s0,.23-.12.28c-.46.18-.94.36-1.42.51-.02,0-.04,0-.06,0h0ZM193.86,18.89h-.05c-.49-.12-.97-.24-1.46-.36-.11-.03-.18-.15-.16-.26.03-.11.15-.18.26-.16.49.12.96.24,1.45.36.11.03.18.15.16.26-.03.1-.11.16-.21.16h0ZM190.95,18.14h-.05c-.49-.12-.96-.25-1.45-.37-.11-.03-.18-.15-.16-.26.03-.11.15-.19.26-.16.49.12.97.24,1.45.37.11.03.18.15.16.26-.03.1-.11.16-.21.16h0ZM174.86,17.86c-.08,0-.16-.04-.19-.12-.05-.1,0-.23.1-.29.45-.21.93-.4,1.41-.56.11-.03.23.03.27.14s-.03.23-.14.27c-.47.16-.93.34-1.37.54-.03.02-.06.02-.09.02h0ZM212.85,17.79c-.08,0-.16-.04-.19-.12-.05-.1,0-.23.1-.29.44-.22.88-.45,1.3-.7.1-.06.23-.03.29.08.06.1.03.23-.08.29-.43.25-.88.49-1.33.72-.03.02-.06.02-.1.02h0ZM188.06,17.42h-.04c-.52-.12-1-.22-1.46-.31-.11-.03-.19-.14-.16-.25.03-.12.14-.19.25-.17.47.1.94.19,1.46.31.11.03.19.14.16.26-.03.1-.11.16-.21.16h0ZM177.69,16.91c-.1,0-.19-.07-.21-.17-.03-.11.05-.23.16-.26.49-.1.98-.18,1.49-.24.11-.02.23.07.23.19.02.12-.07.23-.19.24-.49.06-.99.14-1.46.24h-.04,0ZM185.12,16.85h-.03c-.49-.08-1-.14-1.47-.18-.12,0-.2-.12-.19-.23,0-.12.11-.21.23-.19.49.05.99.11,1.49.19.11.02.2.13.18.24-.02.1-.1.18-.21.18h0ZM182.15,16.56c-.5-.02-1-.02-1.49,0-.12,0-.22-.09-.22-.21s.09-.22.21-.23c.5-.02,1.01-.02,1.51,0,.12,0,.21.1.21.23,0,.11-.1.21-.22.21h0ZM215.43,16.27c-.07,0-.13-.03-.17-.1-.07-.1-.04-.23.05-.3.36-.25.7-.52,1.04-.8.1-.08.23-.06.3.03.08.1.06.23-.03.3-.34.29-.7.55-1.07.81-.03.03-.08.04-.12.04h0Z"/>
      <path class="st62" d="M262.48,91.16h0c-.51-.03-1.02-.1-1.52-.23-.11-.03-.18-.15-.16-.26.03-.11.14-.19.26-.16.47.11.95.18,1.44.21.12,0,.21.11.2.23,0,.11-.1.2-.22.2v.02ZM263.97,91.12c-.1,0-.2-.09-.21-.19,0-.12.07-.23.19-.23.48-.05.96-.14,1.44-.26.11-.03.23.04.26.16s-.04.23-.16.26c-.5.13-1.01.22-1.5.27h-.03ZM259.59,90.46s-.06,0-.09-.02c-.42-.19-.87-.42-1.35-.7-.1-.06-.14-.19-.08-.29.06-.1.19-.14.29-.08.47.28.89.5,1.3.68.1.04.16.17.11.29-.03.08-.11.13-.2.13h0ZM266.86,90.38c-.09,0-.16-.05-.2-.14-.04-.11,0-.23.12-.28.45-.18.89-.4,1.33-.64.1-.06.23-.02.29.09.06.1.02.23-.09.29-.45.25-.91.48-1.37.66-.03,0-.05.02-.08.02ZM257,88.95s-.08,0-.12-.03c-.21-.14-.42-.29-.62-.42-.21-.14-.41-.29-.62-.42-.1-.07-.12-.2-.06-.3.07-.1.2-.13.29-.06.21.14.42.28.62.42.21.14.42.29.62.42.1.07.12.2.06.3-.04.06-.11.1-.17.1h0ZM269.47,88.92c-.07,0-.13-.03-.17-.09-.07-.1-.04-.23.05-.3.4-.29.78-.6,1.14-.94.09-.08.23-.07.3.02s.07.23-.02.3c-.37.35-.77.67-1.18.96-.03.03-.08.04-.12.04h0ZM254.5,87.3s-.08,0-.1-.03c-.47-.28-.9-.5-1.31-.68-.11-.04-.16-.17-.11-.29.04-.11.17-.16.28-.11.42.18.87.41,1.35.7.1.06.14.19.08.29-.04.07-.11.1-.18.1ZM271.68,86.9c-.05,0-.1-.02-.14-.05-.09-.08-.1-.22-.02-.3.32-.37.63-.76.91-1.17.07-.1.2-.12.29-.05s.12.2.05.3c-.29.42-.61.82-.94,1.2-.04.05-.1.07-.16.07h0ZM251.74,86.18h-.03c-.48-.09-.95-.1-1.42-.04-.12.02-.23-.07-.23-.19-.02-.12.07-.23.18-.24.51-.06,1.03-.05,1.55.04.11.02.19.13.17.25-.02.1-.1.18-.21.18h0ZM273.39,84.43s-.07,0-.1-.03c-.1-.06-.14-.19-.09-.29.23-.42.45-.88.65-1.33.04-.11.17-.16.28-.11.1.05.16.17.11.29-.21.47-.43.94-.67,1.37-.03.07-.11.11-.19.11h0ZM274.59,81.66s-.04,0-.07,0c-.11-.03-.17-.16-.13-.28.16-.46.3-.94.42-1.43.03-.11.15-.18.26-.16.11.03.18.15.16.26-.13.49-.28.99-.43,1.46-.03.09-.11.15-.2.15h0ZM275.35,78.74h-.04c-.11-.03-.19-.14-.17-.25.09-.48.16-.98.23-1.48.02-.12.12-.2.23-.19.11.02.2.12.19.24-.06.51-.14,1.01-.23,1.51-.02.1-.11.17-.21.17ZM275.7,75.74h-.02c-.12,0-.21-.11-.2-.23.03-.49.04-1,.05-1.5,0-.12.1-.22.22-.22s.22.1.22.22c0,.51-.03,1.02-.05,1.53,0,.11-.1.2-.22.2ZM275.73,72.71c-.11,0-.21-.1-.22-.21-.02-.49-.05-1-.1-1.5,0-.12.08-.23.19-.23.12,0,.22.08.23.2.04.51.08,1.02.1,1.52,0,.12-.09.22-.21.23h0,0ZM275.48,69.7c-.1,0-.2-.08-.21-.19-.02-.16-.04-.34-.07-.5-.04-.33-.1-.66-.15-.99-.02-.12.06-.23.17-.25.12-.02.23.06.24.18.05.33.1.66.15,1,.03.17.04.34.07.51.02.12-.07.23-.18.24h-.03ZM275,66.71c-.1,0-.19-.07-.21-.17-.1-.48-.19-.97-.3-1.47-.03-.11.05-.23.16-.26.11-.03.23.05.25.16.11.5.21,1.01.3,1.48.03.12-.05.23-.17.25h-.04,0ZM274.37,63.77c-.1,0-.18-.07-.21-.16-.11-.49-.23-.98-.36-1.46-.03-.11.04-.23.16-.26.11-.03.23.04.26.16.12.49.24.98.36,1.47.03.11-.04.23-.16.26-.02,0-.03,0-.05,0ZM273.64,60.83c-.1,0-.18-.06-.21-.16-.13-.49-.25-.97-.38-1.46-.03-.11.03-.23.16-.26.11-.03.23.03.26.16.13.49.25.97.38,1.46.03.11-.03.23-.16.26h-.05ZM272.88,57.91c-.1,0-.18-.06-.21-.16-.13-.49-.25-.98-.37-1.46-.03-.11.04-.23.16-.26s.23.04.26.16c.12.49.24.98.37,1.46.03.11-.03.23-.16.26h-.05ZM272.15,54.97c-.1,0-.18-.07-.21-.16-.11-.49-.23-.98-.34-1.47-.03-.11.04-.23.16-.26.11-.03.23.05.25.16.1.49.22.98.34,1.47.03.11-.04.23-.16.26h-.05ZM271.5,52.02c-.1,0-.19-.07-.21-.17-.1-.5-.2-1-.29-1.49-.02-.12.05-.23.17-.25.12-.03.23.05.25.17.09.49.18.98.29,1.48.03.11-.05.23-.16.25h-.05ZM270.95,49.05c-.1,0-.19-.08-.21-.18-.09-.5-.16-1.01-.23-1.5-.02-.12.06-.23.18-.24.12-.02.23.06.24.18.07.49.15.99.23,1.49.02.12-.06.23-.17.25h-.04ZM270.53,46.06c-.1,0-.2-.08-.21-.19-.06-.51-.11-1.01-.16-1.51,0-.12.08-.23.19-.23.12,0,.23.08.23.19.04.49.1,1,.16,1.5.02.12-.07.23-.18.24h-.03ZM270.23,43.04c-.11,0-.21-.09-.22-.2-.03-.5-.07-1.01-.09-1.52,0-.12.09-.22.2-.23.11,0,.22.09.23.21.03.49.05,1,.09,1.5,0,.12-.08.23-.2.23h-.02,0ZM270.1,40.03c-.11,0-.21-.1-.22-.21v-1.52c0-.12.1-.22.22-.22s.22.1.22.22v1.5c0,.12-.1.22-.21.22h0ZM270.13,37c-.13,0-.22-.1-.22-.23.02-.5.04-1.01.08-1.52,0-.12.11-.21.23-.2.12,0,.21.11.2.23-.03.5-.06,1.01-.08,1.51,0,.11-.1.21-.22.21h0ZM270.33,33.99h-.02c-.12,0-.21-.11-.19-.23.04-.5.1-1.01.16-1.51.02-.12.12-.21.23-.19.11.02.2.12.19.24-.06.5-.11,1.01-.16,1.5,0,.11-.1.2-.22.2h0ZM270.67,30.98h-.03c-.11-.02-.2-.12-.18-.24.07-.49.14-1,.23-1.5.02-.12.13-.2.24-.18s.2.13.17.25c-.08.49-.16,1-.23,1.49-.02.1-.1.18-.21.18h0ZM271.14,28h-.03c-.11-.02-.19-.13-.17-.25.03-.16.06-.33.09-.49l.17-1c.02-.12.13-.2.25-.17.11.02.19.13.17.25l-.17,1c-.03.16-.06.33-.09.49-.02.1-.11.17-.21.17h0ZM271.64,25.01h-.03c-.11-.02-.2-.13-.18-.24.09-.57.15-1.04.21-1.49.02-.12.12-.2.24-.19.11.02.2.12.18.24-.05.45-.12.93-.21,1.5-.02.1-.1.18-.21.18ZM272.01,22.02h-.02c-.12,0-.21-.11-.2-.23.04-.53.06-1.02.07-1.5,0-.12.1-.22.22-.22s.22.1.21.22c0,.49-.03.99-.07,1.53,0,.11-.1.2-.22.2h0ZM272.03,18.99c-.11,0-.21-.09-.22-.2-.04-.51-.1-1.01-.2-1.47-.03-.12.05-.23.16-.25.11-.03.23.05.25.17.1.49.16,1,.2,1.53,0,.12-.08.23-.2.23h-.02.02ZM271.45,16.04c-.09,0-.17-.06-.2-.15-.16-.46-.35-.92-.56-1.36-.05-.1,0-.23.1-.29.1-.05.23,0,.29.1.23.46.42.94.59,1.42.03.11-.03.23-.13.28-.03,0-.04,0-.07,0h0ZM270.11,13.34c-.07,0-.14-.03-.17-.1-.27-.4-.57-.8-.9-1.18-.08-.09-.07-.23.02-.3.09-.08.23-.07.3.02.34.39.65.8.93,1.21.07.1.04.23-.06.3-.03.03-.08.03-.12.03h0ZM268.16,11.06c-.05,0-.1-.02-.15-.06-.36-.33-.74-.65-1.14-.94-.1-.07-.11-.21-.04-.3.07-.1.21-.11.29-.04.41.3.8.63,1.17.98.09.08.1.22,0,.3-.04.04-.1.07-.16.07h0ZM226.92,9.98c-.08,0-.16-.04-.19-.13-.05-.11,0-.23.1-.29.36-.16.75-.34,1.12-.49.11-.04.23,0,.28.11s0,.23-.11.29c-.37.16-.75.32-1.11.49-.03,0-.06.02-.09.02h0ZM265.76,9.26s-.08,0-.11-.03c-.42-.25-.85-.49-1.3-.71-.1-.05-.15-.18-.1-.29.05-.1.18-.16.29-.1.46.23.91.47,1.33.73.1.06.13.19.07.29-.04.07-.11.1-.18.1h0ZM229.43,8.92c-.09,0-.16-.05-.2-.14-.04-.11,0-.23.12-.28.47-.18.94-.36,1.4-.53.11-.04.23.02.27.13.04.11-.02.23-.13.28-.47.16-.94.35-1.4.52-.03,0-.05.02-.08.02h0ZM263.08,7.93s-.05,0-.08-.02c-.44-.18-.91-.35-1.4-.5-.11-.03-.17-.16-.14-.27.03-.11.16-.17.27-.14.49.16.97.34,1.42.51.11.04.16.17.12.28-.03.09-.11.14-.2.14h0ZM232.23,7.91c-.09,0-.17-.06-.2-.15-.03-.11.03-.23.14-.27.48-.16.95-.3,1.44-.44.11-.03.23.03.27.15.03.11-.03.23-.15.27-.48.14-.95.29-1.42.44-.03,0-.04,0-.07,0h0ZM235.1,7.06c-.1,0-.18-.06-.21-.16-.03-.11.04-.23.16-.26.49-.13.97-.24,1.46-.36.11-.03.23.04.25.16.03.11-.04.23-.16.26-.49.11-.97.23-1.45.36h-.05,0ZM260.24,7h-.05c-.46-.12-.94-.24-1.44-.36-.11-.03-.19-.14-.16-.26.03-.11.14-.19.25-.16.5.11,1,.23,1.46.36.11.03.18.15.15.27-.03.1-.11.16-.21.16v-.02ZM238.02,6.4c-.1,0-.19-.07-.21-.17-.03-.12.05-.23.16-.25.49-.1.99-.19,1.47-.27.11-.02.23.06.24.18s-.06.23-.17.25c-.49.08-.98.17-1.46.27h-.04,0ZM257.33,6.34h-.04c-.49-.1-.98-.18-1.46-.26-.11-.02-.2-.13-.17-.25.02-.12.13-.2.24-.18.49.08.99.16,1.48.26.11.03.19.14.17.25-.02.1-.11.17-.21.17h0ZM240.97,5.9c-.1,0-.2-.08-.21-.19-.02-.12.07-.23.18-.24.49-.07,1-.13,1.49-.18.12,0,.23.07.23.19,0,.12-.07.23-.19.23-.49.05-.99.11-1.47.18h-.03ZM254.38,5.86h-.03c-.49-.06-.99-.12-1.48-.17-.12,0-.2-.12-.19-.23,0-.12.11-.21.23-.19.49.05,1,.1,1.49.17.11.02.2.12.18.24-.02.11-.1.19-.21.19h0ZM243.94,5.58c-.11,0-.21-.09-.22-.2,0-.12.08-.23.2-.23.49-.03,1-.07,1.5-.1.12,0,.22.09.23.21,0,.12-.09.22-.2.23-.49.03-1,.05-1.48.1h-.03ZM251.41,5.57h-.02c-.49-.03-.99-.06-1.48-.09-.12,0-.21-.1-.21-.23s.1-.22.23-.21c.49.02,1.01.05,1.5.09.12,0,.21.11.2.23,0,.11-.1.2-.22.2h0ZM246.93,5.44c-.11,0-.21-.1-.22-.21,0-.12.1-.22.21-.22.5,0,1,0,1.5,0,.12,0,.21.1.21.22s-.1.22-.22.22h-1.49,0Z"/>
    </g>
    <g>
      <g>
        <path class="st96" d="M46.85,71.32l-18.39-3.77c.06-.05.11-.11.18-.15l25.08-13.4c.07-.04.14-.05.22-.06,0,0-7.09,17.38-7.09,17.38Z"/>
        <path class="st96" d="M28.11,69.15c-.06-.12-.09-.24-.12-.37l13.04,2.67-4.23,13.85c-.07-.08-.14-.14-.2-.24l-8.49-15.89h0Z"/>
        <path class="st96" d="M55.22,54.24c.09.09.19.18.25.3l8.49,15.89c.05.1.06.21.09.31l-13.87-4.18,5.03-12.33h0Z"/>
        <path class="st96" d="M42.31,71.71l4.81.99c.15.04.31,0,.43-.06.13-.07.24-.18.29-.33l1.85-4.54,13.98,4.21c-.08.07-.14.15-.24.21l-25.08,13.4c-.1.05-.21.07-.31.09l4.27-13.96h0Z"/>
      </g>
      <path class="st53" d="M104.05,67.55c0,13.52-11.17,24.49-24.95,24.49s-24.95-10.97-24.95-24.49,11.16-24.51,24.95-24.51,24.95,10.97,24.95,24.51Z"/>
      <g>
        <path class="st62" d="M95.06,75.63h-31.93v-17.48c0-.53.43-.97.97-.97h29.99c.53,0,.97.43.97.97v17.48h0ZM64.27,74.51h29.68v-16.2h-29.68v16.2Z"/>
        <path class="st62" d="M96.37,75.6h-13.58c0,.64-.52,1.16-1.16,1.16h-5.07c-.64,0-1.16-.52-1.16-1.16h-13.58c-.3,0-.53.27-.5.57l.1.72c.08.59.58,1.02,1.17,1.02h32.98c.59,0,1.08-.43,1.17-1.02l.1-.72c.05-.3-.19-.57-.5-.57h.03Z"/>
        <path class="st62" d="M83.37,64.14l2.97,7.72c.05.14.25.14.3,0l1.07-3.48c.02-.05.05-.09.11-.11l3.48-1.07c.14-.05.15-.24,0-.3l-7.72-2.97c-.13-.05-.25.07-.21.21Z"/>
        <rect class="st62" x="87.95" y="67.41" width="1.5" height="3.75" rx=".18" ry=".18" transform="translate(-23.01 83.01) rotate(-45)"/>
      </g>
      <g>
        <path class="st1" d="M35.84,42.28c1.4,2.57,3.94,4.47,6.79,5.1,1.3.36,2.68.22,4,.26-.39,1.4-1.06,2.7-1.45,4.1-.24,1.08,1.13,1.92,2,1.27,2.5-1.73,4.98-3.46,7.47-5.22.42-.31.98-.1,1.46-.18,3.46-.03,6.83-1.98,8.6-4.94,1.14-1.83,1.65-4,1.54-6.14.12-2.45-.66-4.94-2.17-6.87-1.86-2.44-4.85-3.96-7.92-4.03-3.7-.03-7.4,0-11.1,0-1.58,0-3.15.34-4.59,1-2.95,1.4-5.26,4.52-5.78,7.77-.06.6-.08.95-.08,1.42-.13,2.34.14,4.52,1.24,6.47Z"/>
        <g>
          <path class="st76" d="M101.48,29c-.28,5.12-3.54,9.94-8.15,12.2-2.2,1.13-4.7,1.61-7.17,1.58-1.78.02-3.57-.04-5.35.03,1.07,3.05,2.23,6.07,3.35,9.1-4.28-2.97-8.53-5.96-12.8-8.96-.13-.06-.24-.17-.39-.17-1.29-.06-2.59.09-3.88-.16.12-.57.44-1.06.58-1.63.67-1.91.61-3.95.55-5.93.13-.41-.14-.79-.16-1.18-.5-3.18-2.4-6.03-4.98-7.9h38.45c.02,1,0,2.02-.05,3.01h0Z"/>
          <path class="st42" d="M58.35,15.37v-.02s0,0,0,0c.02,0,.03-.03.04-.04.03-.03.05-.05.07-.09.24-.13.42-.33.63-.51,2.72-2.42,6.38-3.68,10.01-3.65,6.05,0,12.08,0,18.12,0,1.6.12,3.22.35,4.72.98,2.31.8,4.3,2.31,5.96,4.09h0s.02,0,.02,0h0c1.18,1.47,2.26,3.21,2.85,5.03.56,1.55.75,3.19.79,4.84h-38.45c-1.62-1.17-3.51-1.96-5.51-2.21-1.12-.18-2.26-.06-3.38-.13.33-3.12,1.97-6.06,4.15-8.3h-.02Z"/>
        </g>
        <g>
          <path class="st53" d="M83.32,25.83c0,1.47,1.19,2.67,2.67,2.67s2.67-1.19,2.67-2.67-1.19-2.67-2.67-2.67-2.67,1.19-2.67,2.67Z"/>
          <path class="st53" d="M75.15,25.83c0,1.47,1.19,2.67,2.67,2.67s2.67-1.19,2.67-2.67-1.19-2.67-2.67-2.67-2.67,1.19-2.67,2.67Z"/>
          <path class="st53" d="M66.97,25.83c0,1.47,1.19,2.67,2.67,2.67s2.67-1.19,2.67-2.67-1.19-2.67-2.67-2.67-2.67,1.19-2.67,2.67Z"/>
        </g>
      </g>
    </g>
    <g>
      <path class="st41" d="M200.28,251.02c.61,3.44,4.16,4.14,7.08,4.6,1.88.3,3.77.53,5.67.68,1.19.09,3.62-.22,3.99,1.06.23.8,0,1.76.23,2.61.18.66.48,1.32.86,1.89.72,1.07,1.74,1.92,2.93,2.4,2.56,1.04,6.53.85,8.31-1.46,2.92-3.78,7.91-12.44,1.67-15.66-.5-.26-.99-.32-1.43-.25-.89-.45-1.85-.71-2.94-.81-1.5-.15-4.04.44-5.01-.98-.86-1.25-1.16-2.47-2.55-3.35-1.32-.83-2.92-1.11-4.45-.89-3.04.44-6.19,2.26-8.84,3.74-2.41,1.35-6.12,3.05-5.52,6.41h0Z"/>
      <g>
        <path class="st13" d="M215.15,241.48s2.86-.79,3.13,4.37c.03.68-.55.89-.55.89l-4.92,1.66s-3.16,1.95-5.02,2.45-3.01-.09-3.34-.47c-.41-2.53,2.87-3.23,4.08-4.14s4.88-4.55,5.56-4.79,1.06.03,1.06.03Z"/>
        <path class="st27" d="M209.9,247.88c.97-.73,3.51-3.2,4.84-4.28.46.11.94.11,1.39,0,.39-.11.78-.24,1.08-.48.18.03.38.07.59.17.24.63.42,1.46.48,2.57.03.68-.55.89-.55.89l-4.92,1.66s-3.16,1.95-5.02,2.45c-.76.21-1.4.23-1.92.16.48-1.72,3-2.34,4.03-3.12h0Z"/>
        <path class="st13" d="M229.84,253.25c-.04.07-4.87,6.73-5.65,7.44-.78.72-3.04,1.62-3.57,0-.44-2.75,1.66-5.13,3.08-8,.72-1.45,1.06-2.24,2.07-3.26.96-.97,2.45-.97,3.65.24.73,1.6.41,3.58.41,3.58h0Z"/>
        <path class="st20" d="M223.79,261c.23-2.24,1.91-4.31,3.11-6.73.72-1.45,1.06-2.24,2.07-3.26.22-.22.47-.39.74-.51.35,1.38.13,2.75.13,2.75-.04.07-4.87,6.73-5.65,7.44-.11.1-.25.2-.4.3h0Z"/>
        <path class="st29" d="M225.47,246.74l.16,3.63s.13,1.01,1.64,1.01,1.51-1.01,1.51-1.01v-3.78l-3.31.14h0Z"/>
        <path class="st35" d="M213.49,238.63l.16,3.63s.13,1.01,1.64,1.01,1.51-1.01,1.51-1.01v-3.78l-3.31.14h0Z"/>
        <path class="st52" d="M213.44,193.2s-4.11,10.8-2.4,24.39c-.89,5.79,1.48,14.54,2.4,22.64.95.8,2.75.37,3.51.08.06-8.77,1.6-13.88-.17-21.66,1.24-2.13,5.84-18.38,5.84-18.38l-9.17-7.07h0Z"/>
        <path class="st34" d="M213.93,217.83c1.98-4.49,4.64-16.15,4.64-16.15v-.32s2.01-.5,4.01-.98c-.39,1.39-4.62,16.24-5.8,18.27,1.77,7.77.24,12.89.17,21.66-.41.15-1.13.35-1.85.37-.17-3.37-.71-14.14-1.17-22.85h0Z"/>
        <path class="st72" d="M197.52,179.86s6.56.43,9.48-1.38c1.69-1.05,5.45-10.51,9.68-10.06s1.76,4.83-.32,6.74-4.4,6.08-7.52,7.63c-3.12,1.55-11.1.34-11.1.34l-.22-3.27h0Z"/>
        <path class="st31" d="M197.62,181.39c1.62.06,7.47.2,11.1-.79,3.49-.95,1.71-9.77,9.68-11.56.17.15.29.31.38.49-.07.73-.16,1.67-.26,2.67-.51,1.1-1.37,2.21-2.17,2.94-2.08,1.91-4.4,6.08-7.52,7.63-3.12,1.55-11.1.34-11.1.34l-.11-1.73h0Z"/>
        <path class="st30" d="M231.07,197.68c7.33-3.34-1.22-17.71-1.96-19.63-.72-1.89-1.31-3.83-1.74-5.81-.44-1.99-.73-4.01-1.12-6.01-.38-1.94-.91-3.87-1.76-5.67-.69-1.46-1.7-3.05-3.18-3.81-.65-.33-1.38-.49-2.11-.45-.04,0-.04.05,0,.06h0c-.76.15-1.47.81-1.7,1.57-.28.95-.02,1.97.23,2.89.29,1.08.52,2.17.6,3.29.32,4.29-1.43,8.3-2.11,12.47-.86,5.24-.45,10.84,1.57,15.78,2.61,2.79,9.38,7.08,13.27,5.31h0Z"/>
        <path class="st87" d="M223.36,193.2s-4.81.61-5.45,3.16.34,15.78,3.53,25.62c-.77,5.02,3.22,16.68,3.79,25.53,1.52.66,3.15.2,3.86-.08.28-8.56,3.19-15.89-1.2-24.32-.23-4.74,11.06-29.44-4.53-29.91h0Z"/>
        <path class="st32" d="M229.52,195.7c5.63,6.48-1.82,23.56-1.63,27.41,4.39,8.42,1.48,15.75,1.2,24.32-.4.16-1.1.38-1.92.41.08-3.47.07-13.31-1.93-26.79,1.48-12.84,0-24.5,0-24.5l4.28-.86h0Z"/>
        <path class="st13" d="M217.26,167.93s7.32-1.27,13.92,4.87c1.65,1.53-2.88,9.54-3.32,13.71-.44,4.17,1.76,8.91,1.27,9.62-.49.71-4.73,3.76-11.56,1.2-3.9-1.46-4.48-3.55-4.48-3.55l1.29-10.24s-3.94-1.75-2.83-4.83,1.35-3.55,1.68-6.97c.33-3.42,4.03-3.81,4.03-3.81h0Z"/>
        <path class="st69" d="M217.3,171.61c-.7,2.07.29,4,2.21,4.32,1.92.32,4.05-1.1,4.75-3.16.7-2.07-.29-4-2.21-4.32-1.92-.32-4.05,1.1-4.75,3.16Z"/>
        <path class="st33" d="M226.46,177.35s-.79.95-.96,2.09c-.17,1.13-.27,4.03-1.72,4.78-1.75.91-4.16-.1-6.22-.35,3.69,2.07,6.66,9.7,8.9,9.31,1.52-.26,1.17-11.03,1.17-11.03l-1.17-4.81h0Z"/>
        <path class="st37" d="M194.32,180.27c-.12-.91-1.05-1.77-.86-2.53s.92-.12,1.03.18c.11.3.49,2.04.49,2.04,0,0-.54,1.22-.65.31h-.01Z"/>
        <g>
          <path class="st36" d="M209.09,182.54l1.27-.36c.18-.05.37,0,.51.13l.9.86s-.68.65-.7.7c-.03.04-1.61-.72-1.61-.72l-.37-.61Z"/>
          <path class="st69" d="M205.33,181.59c.38-.8,4.68,1.24,6.38,1.53.95.72,2.95,2.68,2.95,2.68l1.6,1.15-1.73,1.88-1.46-1.22s-2.07-.21-2.42-.33-2.02-1-2.24-1.22-.32-.66.13-.69c-.46-.09-.66-.84.09-.84-.58-.19-.49-.94.22-.86-.84-.55-3.9-1.29-3.52-2.08h0Z"/>
          <path class="st72" d="M213.44,188.16l1.96-2.31s8.56,7.78,9.85,6.77c1.22-.96.26-13.23.83-16.17.35-1.83,1.51-4.28,3.59-4.28,2.24,0,3.01,3.04,2.96,6.92-.05,3.88-.46,17.89-4.82,19.38-5.24,1.79-14.36-10.31-14.36-10.31h-.01Z"/>
        </g>
        <path class="st18" d="M219.13,170.42s.53,1.04,2.35.65c1.89-.4,1.76-1.27,1.76-1.27l-1.88-6.25-4.3,1.41,2.06,5.46h.01Z"/>
        <path class="st19" d="M226.8,169.62s-.05-.04-.07-.05v-.03c-.75-.62-1.59-1.13-2.28-1.81-.64-.63-1.07-1.4-1.67-2.06-.58-.64-1.32-1.03-2.24-1.19-.59-.1-1.4.22-1.4.83,0,.03,0,.06.04.08.06.66.24,1.32.58,1.9.36.62.92.97,1.65,1.17.86.24,1.75.23,2.63.38.97.17,1.8.57,2.72.85.05.02.09-.05.05-.08h0Z"/>
        <path class="st69" d="M218.36,163.41s1.07,3.46,1.07,3.87c0,.83-1.01,2.13-2.77,3.28-.96.62-1.44.13-1.44.13,0,0-1.33-.81-2.11-2.65-.18-.43-.3-1.25-.44-1.71-.22-.72-1.01-1.53-1.09-2.25-.38-3.16,4.52-4.37,5.47-3.16.95,1.21,1.32,2.48,1.32,2.48h-.01Z"/>
        <path class="st16" d="M216.03,160.49c.45.05.82.19,1.01.44.95,1.21,1.32,2.48,1.32,2.48,0,0,1.07,3.46,1.07,3.87,0,.71-1.03,2.25-3.06,3.44-.89.39-.31-1.77-.89-3.13-.18-.43-.3-1.25-.44-1.71-.22-.72-1.01-1.53-1.09-2.25-.18-1.52.85-2.58,2.08-3.15h0Z"/>
        <path class="st15" d="M211.68,164.5c-.45-1.59,2.14.47,3.53-.92.28.57,1.36,1.94,3.15,1.63.19.39,1.42-.48,1.53.07.31,1.68,2.77,1.98,2.72.08-.07-2.59,1.56-3.43.64-6.41-.62-2.01-4.18-5.56-7.31-3.55-2.31-.98-3.81,1.88-4.87,3.4-.85,1.23-1.04,4.14.61,5.69h0Z"/>
        <path class="st69" d="M218.71,164.27c1.03-.35,1.3,3,.53,2.84-1.09-.24-1.55-2.49-.53-2.84Z"/>
        <path class="st86" d="M204.9,190.29l-3.85-14c-.04-.14-.13-.27-.26-.35l-8.3-5.2c-.06-.04-.12-.03-.16,0h0l-.41.28.49.25,4.66,14.11c.05.16.16.29.29.38l6.94,4.55c.03.1.11.47.11.47,0,0,.28-.19.39-.27.02,0,.03-.02.05-.03h0c.06-.05.09-.13.06-.21v.02Z"/>
        <path class="st38" d="M191.85,171.21l4.78,14.48c.05.16.16.29.29.38l7.23,4.74c.16.11.37-.05.32-.23l-3.85-14c-.04-.14-.13-.27-.26-.35l-8.3-5.2c-.12-.07-.26.04-.22.17h.01Z"/>
        <path class="st68" d="M201.2,177.79h0c-.06.02-.13-.02-.15-.08l-.18-.65c-.02-.06.02-.13.08-.15h0c.06-.02.13.02.15.08l.18.65c.02.06-.02.13-.08.15Z"/>
        <g>
          <path class="st68" d="M199.58,175.33s-.05-.08-.11-.08-.11.03-.11.08c0,.04.05.08.11.08s.11-.03.11-.08Z"/>
          <path class="st68" d="M199.28,175.15s-.05-.08-.11-.08-.11.03-.11.08c0,.04.05.08.11.08s.11-.03.11-.08Z"/>
          <path class="st68" d="M198.98,174.98s-.05-.08-.11-.08-.11.03-.11.08c0,.04.05.08.11.08s.11-.03.11-.08Z"/>
          <path class="st68" d="M198.68,174.81s-.05-.08-.11-.08-.11.03-.11.08c0,.04.05.08.11.08s.11-.03.11-.08Z"/>
          <path class="st68" d="M198.38,174.63s-.05-.08-.11-.08-.11.03-.11.08c0,.04.05.08.11.08s.11-.03.11-.08Z"/>
          <g>
            <path class="st68" d="M194.32,172.09s-.05-.08-.11-.08-.11.03-.11.08c0,.04.05.08.11.08s.11-.03.11-.08Z"/>
            <path class="st68" d="M194.03,171.92s-.05-.08-.11-.08-.11.03-.11.08c0,.04.05.08.11.08s.11-.03.11-.08Z"/>
            <path class="st68" d="M193.73,171.74s-.05-.08-.11-.08-.11.03-.11.08c0,.04.05.08.11.08s.11-.03.11-.08Z"/>
            <path class="st68" d="M193.43,171.57s-.05-.08-.11-.08-.11.03-.11.08.05.08.11.08.11-.03.11-.08Z"/>
            <path class="st68" d="M193.13,171.4s-.05-.08-.11-.08-.11.03-.11.08c0,.04.05.08.11.08s.11-.03.11-.08Z"/>
          </g>
        </g>
        <path class="st86" d="M198.79,179.75c.27.74-.02,1.18-.64.98s-1.34-.96-1.61-1.7c-.27-.74.02-1.18.64-.98s1.34.96,1.61,1.7Z"/>
        <path class="st69" d="M195.85,183.12s-.03-.09.02-.07c.91.29,3.22.29,3.22-.11s-2.48-.48-3.53-.88c-.05-.02-.03-.09.02-.07,1.04.4,3.4.42,3.35.09-.05-.34-1.99-.41-3.67-1.08-.04-.02-.03-.09.02-.07.64.26,3.2.79,3.25.41.06-.38-1.83-.83-2.38-1.11-.43-.22-.85-.44-1.29-.64-.21-.07-.39-.11-.56-.13-.52-.06-.71.58-.19,1.14-.56.57.27,1.37.27,1.37,0,0-.44.56.51,1.19-.22.19,0,.71.62.97.59.24,2.76-.05,2.76-.3s-1.51-.41-2.41-.7h-.01Z"/>
      </g>
      <path class="st17" d="M226.25,195.31c-3.03,0-8.52-5.16-11.72-8.45l.86-1.02s8.56,7.78,9.85,6.77c1.22-.96.26-13.23.83-16.17.34-1.76,1.43-4.09,3.36-4.27.16,3.47.87,23.12-3.18,23.12v.02Z"/>
    </g>
    <g class="st49">
      <path class="st40" d="M261.58,262.67l18.01-10.09c1.36-.77,1.43-2.71.13-3.58l-11.12-7.23c-1.86-1.24-4.27-1.31-6.21-.18l-18.67,10.83c-1.42.82-1.38,2.89.07,3.67l12.13,6.65c1.77.95,3.91.92,5.66-.08h0Z"/>
      <g>
        <g>
          <polygon class="st86" points="251 218.83 250.17 219.26 246.13 253.46 246.14 254.59 246.97 254.16 251.82 219.28 251 218.83"/>
          <polygon class="st84" points="250.17 219.26 245.3 253.89 246.14 254.59 251 219.71 250.17 219.26"/>
        </g>
        <g>
          <polygon class="st86" points="271.73 202.65 277.06 231.79 276.27 232.21 257.94 220.92 251.96 192.32 252.59 191.9 271.73 202.65"/>
          <polygon class="st88" points="271 203.07 276.33 232.21 257.21 221.34 251.86 192.32 271 203.07"/>
        </g>
        <g>
          <g>
            <polygon class="st86" points="269.32 203.69 278.02 250.84 277.23 251.25 267.84 203.83 268.57 203.42 269.32 203.69"/>
            <polygon class="st88" points="268.59 204.11 277.29 251.25 276.57 250.86 267.84 203.83 268.59 204.11"/>
          </g>
          <g>
            <polygon class="st86" points="257.04 195.99 265.75 243.14 264.96 243.55 255.57 196.13 256.3 195.71 257.04 195.99"/>
            <polygon class="st88" points="256.32 196.4 265.02 243.55 264.3 243.16 255.57 196.13 256.32 196.4"/>
          </g>
        </g>
        <polygon class="st86" points="251.86 192.32 251.03 192.75 246.99 226.95 265.32 238.37 266.14 237.95 271 203.07 251.86 192.32"/>
        <g>
          <polygon class="st86" points="263.69 226.05 262.86 226.48 258.82 260.68 258.83 261.81 259.66 261.38 264.51 226.5 263.69 226.05"/>
          <polygon class="st84" points="262.86 226.48 257.99 261.11 258.83 261.81 263.69 226.93 262.86 226.48"/>
        </g>
        <polygon class="st84" points="251.03 192.75 246.16 227.38 265.32 238.37 270.17 203.5 251.03 192.75"/>
      </g>
    </g>
    <g>
      <polygon class="st38" points="245.57 191.92 276.62 209.14 273.02 239.42 272.01 239.91 271.9 238.78 242.03 221.74 245.3 194.22 244.56 192.41 245.57 191.92"/>
      <polygon class="st62" points="275.61 209.63 244.56 192.41 241.02 222.23 272.01 239.91 275.61 209.63"/>
      <g>
        <path class="st47" d="M252.22,207.95c-.26-.36-.56-.65-.89-.83-.54-.31-1.08-.3-1.56-.03l-1.25-4.94c1.03-.57,2.21-.58,3.39.09.79.45,1.51,1.17,2.13,2.07l-1.82,3.64Z"/>
        <path class="st95" d="M253.38,212.73c.13-1.6-.23-3.25-.9-4.39l1.82-3.63c1.54,2.48,2.4,6.17,2.14,9.77l-3.05-1.74h-.01Z"/>
        <path class="st0" d="M248.23,202.32l1.26,4.96c-.57.48-1.01,1.37-1.2,2.54l-3.05-1.74c.46-2.78,1.58-4.81,2.99-5.76Z"/>
        <path class="st93" d="M252.01,215.9c.62-.45,1.11-1.38,1.3-2.63l3.07,1.75c0,.06,0,.13-.02.19-.36,3.02-1.47,5.27-2.92,6.36l-1.44-5.67h0Z"/>
        <path class="st64" d="M248.09,210.29c-.12,1.46.17,2.96.73,4.08l-2.12,4.23c-1.41-2.64-2.13-6.34-1.71-9.88,0-.06.02-.12.03-.19l3.07,1.75h0Z"/>
        <path class="st74" d="M249.2,214.87c.31.49.67.88,1.08,1.11.5.29.99.3,1.44.09l1.44,5.69c-1.08.67-2.32.74-3.57.02-.96-.55-1.81-1.48-2.51-2.67l2.13-4.24h-.01Z"/>
      </g>
      <g>
        <path class="st74" d="M267.94,212.47l-1.82,3.63c-.24-.4-.52-.73-.82-.97l.67-4.82c.73.52,1.4,1.26,1.97,2.17h0Z"/>
        <path class="st64" d="M266.75,217.56c-.11-.36-.24-.71-.39-1.03l1.83-3.66c.53.94.98,2.02,1.3,3.19l-2.75,1.49h.01Z"/>
        <path class="st95" d="M265.59,210.04s.05.04.08.05l-.67,4.82c-1.4-.79-2.77.54-3.06,2.99-.29,2.45.61,5.09,2.02,5.89s2.78-.53,3.07-2.98c.11-.91.05-1.85-.14-2.71l2.74-1.49c.49,2.01.67,4.25.41,6.41-.64,5.4-3.68,8.34-6.78,6.57-3.1-1.77-5.1-7.58-4.45-12.98.64-5.4,3.68-8.34,6.78-6.57h0Z"/>
      </g>
    </g>
  </g>
</svg>