<?xml version="1.0" encoding="UTF-8"?>
<svg id="Layer_2" data-name="Layer 2" xmlns="http://www.w3.org/2000/svg" viewBox="0 0 478 339">
  <defs>
    <style>
      .cls-1, .cls-2 {
        stroke-width: 0px;
      }

      .cls-2 {
        fill: #fff;
      }
    </style>
  </defs>
  <g id="Layer_1-2" data-name="Layer 1">
    <g>
      <path class="cls-2" d="m74.99,339H0V0C62.65,0,125.32,0,187.99,0c-.1.35-.13.75-.31,1.05-1.51,2.57-2.98,5.17-4.6,7.67-.58.89.14,1.77-.75,2.9-2.16,2.74-4.07,5.9-5.16,9.2-1.61,4.85-2.37,9.98-3.59,14.97-1.89,7.71-1.67,15.25,1.33,22.68.55,1.36.98,2.93.85,4.35-.33,3.69.42,7.07,1.88,10.42.45,1.03.73,2.86.16,3.47-1.18,1.26-2.14,2.58-3.15,3.97-1.72,2.35-1.91,3.1.04,5.29,1.65,1.85,3.02,3.97,1.83,6.69.2,3.87.32,7.75.59,11.62.2,2.83,2.28,4.18,4.73,5.19-.16-.82-.46-1.72-1.06-2.01-2.18-1.07-3.28-2.8-3.43-5.12-.15-2.22-.05-4.45-.19-6.67-.06-1.01-.44-2-.67-3.01.62-.5,1.24-.99,2.2-1.76,1.4,2.04,2.89,4.19,4.38,6.35.02-2.33-.46-4.4-.85-6.49-1.28-6.93-1.43-13.89-.17-20.82.6-3.33.59-6.73.67-10.01.1-3.98,1.22-7.22,3.13-10.48,1.11-1.89,2.1-3.91,2.72-6,.49-1.65.22-3.51.52-5.24.41-2.39,1.3-4.71,1.53-7.11.47-4.79,2.28-8.46,7.23-9.82,1.1-.31,2.32-.2,3.49-.29,3.72-.3,7.43-.62,11.15-.9,2.55-.19,5.15-.09,7.65-.54,9.74-1.76,19.46-3.67,29.18-5.55.91-.18,1.79-.82,2.67-.78,2.41.12,4.81.5,7.22.77,3.43.38,6.86.77,10.29,1.14.53.06,1.07.06,1.95.1-.34-1.4-.37-2.63-.91-3.57C268.26,7.71,265.85,3.87,263.49,0c71.5,0,143,0,214.51,0v339c-30.67,0-61.34,0-92,0-.13-3.98-.06-7.98-.44-11.94-.62-6.44-1.62-12.85-2.3-19.29-.52-4.96-.59-9.97-1.2-14.92-1.2-9.8-2.76-19.56-3.92-29.36-1.17-9.9-2.07-19.84-3.03-29.76-.85-8.85-1.49-17.71-2.44-26.55-.5-4.66-2.17-6.13-6.88-7.16-.48-.1-.92-.37-1.37-.58-8.59-3.99-16.92-8.72-25.83-11.8-11.44-3.95-23.39-6.42-35.03-9.81-5.48-1.6-11.58-1.46-16.27-5.56-1.14-.99-3.03-1.16-4.09-2.19-2.73-2.66-5.02-5.79-7.81-8.37-2.11-1.95-4.73-3.34-7.12-4.98-.25.23-.5.45-.75.68.86,2.91,1.72,5.82,2.61,8.72.09.28.38.56.65.72,3.02,1.73,6.05,3.43,9,5.1-.59-1.64-1.26-3.5-2.05-5.68,9.8,9.03,11.33,21.54,15.65,32.71.48-.21.85-.38,1.67-.74-2.41,6,2.17,7.55,5.91,10.02-1.84.52-3.23.92-4.73,1.35,1.89.93,3.95,1.95,6.2,3.06-.15-.96-.25-1.57-.24-1.54,1.8.28,3.49.53,5.17.8.39.06,1.03.08,1.12.3,1.14,2.68,3.12,1.18,5.11,1.15-.45-.58-.73-.95-1.05-1.36.69-.26,1.19-.45,1.62-.61-1-.8-1.91-1.52-3.12-2.49,2.98-1.1,4.42.51,5.65,1.51-.45,1.92-1.53,3.83-1.03,5.13.59,1.54,2.51,2.67,4.61,1.64l-.07-.06c-.12,1.58.13,2.7,2.19,2.68.84-.01,1.78.65,2.52,1.22.75.57,1.18,1.63,1.97,2.05,1.47.79,3.08,1.36,4.68,1.85,1.96.6,1.97,1.98,1.57,3.52-.17.68-.57,1.31-.65,1.48.75.85,1.73,1.48,1.7,2.05-.04.79-.85,1.53-1.03,1.82.48,1.2,1.5,2.53,1.17,3.19-1.27,2.56,1.36,4.02,1.41,6.25.04,1.77-.02,4.24-.99,4.79.38,1.43.73,2.65,1.03,3.88.23.92.81,2.03.52,2.77-1.22,3.07-.44,5.93.35,8.87.23.84.49,2.14.06,2.61-1.53,1.68-.32,2.48.42,3.94,1.12,2.21,1.35,4.88,1.9,7.36.15.66.1,1.36.16,2.38-1.95,1.46-1.15,3.29.56,5.26-1,.32-1.78.56-2.55.8.7,1.92,1.37,3.78,2.07,5.73-.35.53-.86,1.32-1.53,2.34,2.19-.3,2.68.56,2.22,2.45-.29,1.18-.31,2.52-.05,3.7.46,2.1-1.75,5.34-4.02,5.23.3-.58.55-1.07.9-1.74-1.47-.37-2.76-.69-4.2-1.05.34-.76.63-1.41.88-1.97-2.07-1.95-4.02-3.8-5.39-5.09-.17-1.93.09-3.38-.47-4.37-.9-1.61-2.33-2.93-4.05-4.99,1.94.17,3.13.28,4.49.4-.67-.74-1.22-1.77-2.07-2.19-1.43-.7-1.4-.45-.4-1.75.69-.91,1.03-2.09,1.52-3.15-.19-.11-.38-.22-.58-.33-1.25,1.06-2.5,2.13-3.72,3.17.24.56.59,1.36.94,2.17-.4.11-.8.23-1.19.34-.38-1.79-.87-3.57-1.09-5.38-.2-1.6.97-3.67-1.97-4-.61-.07-1.11-1.1-1.66-1.69.29,0,.57.01.86.02.37-1.96.74-3.93,1.01-5.39-1.53-.09-2.94.22-3.74-.34-.52-.37-.4-2.05-.14-3.03.33-1.22,1.1-2.33,1.54-3.2-1.09-1.18-1.98-2.13-3.15-3.39,1.38-.58,2.37-1,3.57-1.5-1.19-.81-2.16-1.47-3.27-2.22.77-.44,1.25-.71,1.66-.95-.31-2.69-2.08-2.84-3.91-2.48.99-2.63,1.03-4.97-.69-7.21-.97.51-1.87.98-2.77,1.46-.19-.22-.37-.45-.56-.67.72-.71,1.44-1.43,2.6-2.57-1.74.4-3,.7-4.27.99,2.04-2.05-.64-2.71-1-4.75,1,.68,1.43,1.04,1.92,1.3.6.32,1.31.91,1.84.79,1.49-.35,1.61-1.97.26-3.02-.82-.64-1.73-1.18-2.59-1.75.49-.83.86-1.45,1.26-2.13-.68-.21-1.19-.36-1.87-.57,1.34-1.76,2.54-3.35,3.85-5.06-.26-.84-.61-1.98-1.03-3.34-.66-.15-1.71-.39-2.74-.62-.06-1.19.73-3.49-1.4-2.22-2.34,1.4-3.46.72-4.86-.96-.41-.49-1.2-.65-2.31-1.22.21,1.57,0,3.31.58,3.65,1.88,1.08,1.02,2.57,1.11,3.94l-.09.03c.32,2.33.53,4.68.98,6.99,1,5.12,2.1,10.23,3.2,15.33.24,1.12,1.21,2.52.83,3.27-1.37,2.68.49,4.92,1.04,7.05.85,3.26,1.5,6.65,2.83,9.87,1.2,2.92,1.15,6.37,1.59,9.6.17,1.26-.01,2.61.33,3.81.77,2.69,1.83,5.3,2.66,7.98.82,2.65,1.84,5.31,2.12,8.03.29,2.73.82,5.33,1.63,7.92.14.45-.54,1.15-.84,1.73,0,0,.1-.08.1-.08-.33-.51-.79-.97-.98-1.53-.68-1.98-1.27-4-1.89-6-.47.7-.53,1.33-.38,1.91,1.23,4.56,2.43,9.13,3.8,13.66.44,1.44,1.34,2.74,2.03,4.11-.12,1.04-.49,2.13-.31,3.12.52,3.01,1.24,5.98,1.89,8.96.22.09.44.18.66.26.41-1.11.83-2.22,1.37-3.67.72,1.38,1.84,2.52,1.78,3.61-.12,2.59,1.88,3.23,2.94,4.49.84-.79,1.47-1.39,2.07-1.95.42,1.27.74,2.24,1.06,3.21h-6.5c-.47-1.87-.93-3.73-1.4-5.6-.35.06-.71.11-1.06.17,0,.77-.06,1.54.01,2.3.1,1.05.29,2.09.44,3.13h-1.5c-.6-2.73-1.13-5.47-1.8-8.18-3.57-14.44-7.18-28.86-10.79-43.29-.28-1.12-.63-2.22-.95-3.34-.36.59-.33,1.07-.23,1.54,1.45,6.73,2.86,13.47,4.37,20.18,1.75,7.78,3.34,15.56,2.29,23.63.39-2.14.77-4.27,1.22-6.74,1.68,5.64,1.54,10.91.38,16.19h-44.5c-.75-9.37-2.07-18.75-1.99-28.11.04-4.33-2.45-7.47-2.79-11.38,0-.09-.43-.14-.83-.26-.18.72-.34,1.4-.51,2.08l-.64.02c-.17-1.4-.34-2.8-.59-4.81,1.89.95,3.1,1.55,4.9,2.45-1.9-4.1.09-8.08-1.65-12.42-1,.42-2.03.85-3.1,1.3v-3.46c1.19.54,2.25,1.03,3.3,1.51.02-6.36-1.09-10.98-2.79-11.37-.06.49-.13.97-.19,1.46-.18,0-.36,0-.53,0-.13-1.13-.25-2.25-.41-3.65,1.16.3,1.92.5,2.96.77-.68-3.83.19-7.63-1.32-11.06-.24.01-.48.03-.72.04-.22.54-.44,1.07-.66,1.61l-.37-.02c-.06-1.07-.12-2.15-.19-3.28h2.12c-.35-7.14-1.15-9.84-2.62-9.3,0-2.42.26-4.9-.08-7.3-.31-2.17-1.6-4.19-1.88-6.36-.97-7.51-4.25-14.08-7.83-20.58-.88-1.6-1.51-3.41-1.89-5.2-.47-2.18-.15-4.61-.93-6.63-1.32-3.43-.27-6.19,1.3-9.11,1.26,1.67-.71,4.73,3.2,5.37-2.08-2.15-2.15-4.24-.93-6.26,1.91-3.17,1.26-6.04-1.23-8.33-1.85-1.71-4.09-3.1-6.36-4.22-3.12-1.53-3.2-1.37-6.01.77,4.95-.93,9.27,1.11,10.58,5.01-2.41.82-4.34,4.03-4,6.59.26,1.97.34,3.91-1.53,5.42-.91-1.13-1.74-2.16-2.57-3.18.14-.12.28-.24.42-.36.3.32.6.64.81.87v-5.84c-.4-.11-.78-.28-1.18-.32-2.71-.28-2.81-.41-1.85-2.98.53-1.41,1.11-2.79,1.95-4.88-2.64.22-5.19-.34-6.43.68-2.89,2.39-5.26,5.46-7.6,8.45-.58.75-.5,2.28-.25,3.35.34,1.49,1.11,2.88,1.7,4.31.08-.24.17-.48.25-.72,1.16.34,2.58.35,3.43,1.06,4.02,3.37,4.14,4.17,2.01,8.36.53.19,1.45.62,1.5.52,1.36-2.22,2.63-4.49,3.92-6.75.19.02.38.05.57.07-.28,1.38-.56,2.76-.87,4.3.23.44.62,1.18,1.01,1.92-.3-.1-.61-.19-.91-.29l-2.72,3.55c1.29.87,2.58,1.74,4.01,2.71-1.21,2.25-3.28,4.62-1.28,7.79,1.24.26,2.69.57,4.42.93-.24-2.39,1.04-4.81-1.91-5.85.68-.48,1.31-.92,1.94-1.37-.59-.44-1.18-.88-1.74-1.29,1.96-4.72-.12-9.45.34-14.44,1.15,1.78,2.29,3.57,3.24,5.04-.31.88-.85,1.68-.83,2.47.05,2.71.28,5.41.4,7.36,1.18,1.26,2.41,1.96,2.53,2.82.44,3.07.5,6.2.68,9.31.01.22-.24.45-.26.69-.04.67-.01,1.34-.01,2.32-.74.06-1.77.14-2.77.22-.36,1.5-.69,2.91-1.09,4.59h4.8v-2.72c1.04,1.73,2.06,3.41,3.15,5.23-.61-.06-1.13-.12-1.63-.17-.23,1.04-.43,1.96-.64,2.88-.29.04-.57.08-.86.13-.33-1.29-.66-2.58-1.14-4.45-.32,1.05-.68,1.58-.55,1.91,1.1,2.79-.08,2.71-2.14,1.84-.33-.14-.91.33-1.69.65,2.67,1.59,5.85-.34,7.5,2.53-3.31.55-.97,3.3-1.89,4.45,1.07.93,1.97,1.7,3.33,2.89-1.5.08-2.18.12-2.6.14.68.73,1.97,1.97,1.9,2.05-1.46,1.7.12,3.38-.09,5.03-.18,1.41-.25,2.84-.4,4.61.26.13,1.06.54,1.87.94-.27.02-.54.04-.81.05-.4,1.64-.81,3.29-1.28,5.22,2.11-.18,3.98-.3,4.68,2.06-.77.12-1.43.22-2.2.33,1.02.98,1.88,1.81,2.74,2.64-1.06.27-2.12.53-3.59.9.62.65,1.16,1.22,1.48,1.56-.41.69-.78,1.33-1.42,2.42,1.3-.24,1.97-.37,2.86-.54.07.88.12,1.55.15,1.91-1.89-.14-3.55-.31-5.23-.35-.59-.02-1.19.28-1.78.43-.12-.53-.51-1.3-.31-1.53.38-.41,1.14-.47,1.7-.74.59-.29,1.14-.66,1.71-.99-.09-.15-.19-.31-.28-.46-1.32.09-2.64.18-3.79.25-.2,1.35-.38,2.54-.59,3.93,1.62.33,2.96,1.43,5.01.83,1.05-.3,2.55.95,3.84,1.5-.1.25-.2.5-.3.76h-2.37c-.25,1.47-.48,2.83-.75,4.44,1.13.36,2.24.71,3.57,1.13q-3.27.27-3.25,4.54c1.56.97,3,1.85,4.59,2.84-.66.08-1.17.15-1.16.14-.12,1.3.16,2.8-.43,3.35-.59.54-2.06.12-3.78.12,1.11.85,2.05,1.58,3.3,2.54-1.2-.08-1.97-.13-2.82-.18-.19,1.33-.35,2.5-.54,3.83-1.94-.57-3.56-1.04-5.31-1.55-.03.21-.11.9-.19,1.53,4.02.77,7.83,1.49,11.73,2.23-.28,1.44-.48,2.43-.67,3.42-.13-.03-.27-.06-.4-.1v-2.5h-4.4c-.98,3.04-.62,5.26,3.14,5.43.12,0,.23.22.36.34-1.14.09-2.28.18-3.67.3-.11,1.5-.21,2.95-.3,4.26,1.16.51,2.03.98,2.95,1.27,1.16.36,2.39.18,2.23-1.31-.16-1.55-.83-3.05-1.28-4.58,2.23-1.05,3.62-.58,4.89,1.76h-2.32c-.31,3.16-.6,6.15-.91,9.3-1.83-.1-3.66-.19-5.83-.31,1.46,1.69,3.32,1.9,4.97,1.56,2.02-.41,3.37.3,5.33,1.76-1.47.11-2.31.17-3.14.23q0,3.14,2.86,6.41h-2.02c-.37.97-.74,1.95-1.11,2.92h-1.5v-3.91c-1.7.08-3.02.14-4.19.19-.3,1.37-.55,2.54-.81,3.71h-8c-.15-1.51-.29-3.02-.45-4.62-1.56.07-2.92.13-4.1.18-.35,1.62-.65,3.03-.95,4.44h-8.5c.14-.61.42-1.22.41-1.83-.02-1.67-.31-3.35-.22-5.02.09-1.76.5-3.51.77-5.2-2.54-.34-4.52-.61-6.51-.88.03-.33.06-.67.09-1,1.09,0,2.19-.04,3.28.01,1.01.05,2.02.21,3.02.32-.01-.22-.02-.45-.03-.67-4.6-.69-5.08-1.11-6.16-5.35-1.31,0-2.92-.46-3.87.13-.95.58-1.24,2.23-1.82,3.41-.18-.04-.36-.08-.54-.12.65-8.06,1.3-16.13,1.95-24.2q3.29-.21,4.25,1.46c-.87.18-1.73.35-2.47.5-.25,1.46-.46,2.72-.7,4.13.99.26,1.99.52,3.01.79-.15.52-.27.91-.39,1.3-.94-.09-1.87-.17-2.92-.27-.16,1.73-.29,3.16-.43,4.64,1.68.43,3.25.83,4.4,1.12.63-1.01,1.03-1.65,1.43-2.3.1,2.67,2.22,1.84,3.66,1.99.52.05,1.64-.81,1.6-.92-.54-1.45,1.39-3.4-.85-4.48,1.67-1.95,1.57-4.06.55-6.71-.6.73-.97,1.18-1.34,1.64,0,0,.12,0,.12,0-.45-.65-.9-1.31-1.83-2.65,2.81,0,5.11-.32,7.28.08,3.08.57,3.25.62,2.99-2.58-.06-.72-.23-1.44-.32-2.04-1.52-.26-2.82-.47-4.13-.69.04-.23.09-.45.13-.68,2.41,0,4.89-.36,7.22.08,3.86.73,3.79.95,3.28-2.8-.13-.97.02-1.98.02-2.97,0-1.61,0-3.23,0-4.89h-4.09c-.28,1.55-.56,3.04-.83,4.5,1.33.29,2.48.54,3.62.79.06.28.11.56.17.84-2.34-.55-4.33-.7-3.68,2.43.04.18-.64.71-1.01.73-1.26.09-2.53.04-3.76.04-.39-3.15,1.07-3.33,3.41-2.22-.05-.32-.1-.65-.15-.97-1.28-.16-2.56-.32-3.83-.47-.24,1.19-.4,2.02-.56,2.85-.28.04-.56.08-.85.13-.42-1.27-.84-2.53-1.33-4-1.22.07-2.59.14-3.87.21-.45,1.16-.86,2.22-1.43,3.67-.18-1.35-.3-2.28-.4-3.11h-3.67c-.26,1.03-.47,1.87-.68,2.71-.37-.04-.73-.07-1.1-.11v-4.61c1.23.13,2.46.25,3.69.4.23.03.54.31.66.23.43-.27.78-.64,1.17-.98-.36-.22-.71-.62-1.08-.64-1.69-.08-3.96-1.86-3.98-3.39-.03-2.31.01-4.62.21-6.92.72-8.31,1.58-16.61,2.24-24.93.14-1.69.74-2.23,2.3-2,1.12.17,2.24.32,3.59.51v-5.25h-4.07c-.37-1.74-.68-3.2-1.05-4.98-.95,8.48-2.05,16.54-2.72,24.64-.84,10.02-1.26,20.07-1.98,30.1-.8,11.11-1.74,22.22-2.58,33.33-.33,4.36-.54,8.74-.81,13.11h-23.5c.63-1.6,1.32-3.18,1.87-4.81.39-1.14.58-2.36.85-3.54.56.75,1.12,1.49,1.9,2.54.54-.88,1-1.64,1.9-3.1-1.77.19-2.76.29-3.75.4.58-.77,1.15-1.54,1.91-2.54-.61-.05-1.02-.08-1.43-.11l.02.04c.09-1.55-2-2.54-.91-4.5.58-1.04,2.48-2.86-.4-3.82-.06-.02-.03-.29-.05-.44-.09-.85-.18-1.7-.28-2.56-.15.03-.31.06-.46.09.14-.72.28-1.43.41-2.14.68.18,1.39.37,2.28.61.6-4.29-3.08-9.58,2.62-12.46-.29-.94-.55-1.8-.99-3.22,1.25.73,1.81,1.06,2.18,1.28-.33-1.69-.65-3.35-.98-5.01.35-.08.7-.16,1.05-.24.33,1.22.66,2.45.99,3.67.56-.8.59-1.62.56-2.43-.06-1.57-2.64-3.23.45-4.77-.64-.37-1.17-.57-1.56-.92-.3-.27-.45-.72-.66-1.09,2.41-1.14,2.23-2.66,1.73-5.16-.7-3.52.02-7.31-.12-10.97-.1-2.56-.77-5.1-.92-7.67-.2-3.5-.03-7.02-.24-10.52-.34-5.55-.89-11.09-1.33-16.63-.1-1.28-.12-2.57-.2-4.1-3.22-2.42.89-6.91-2.17-9.58.79-.4,1.45-.74,2.11-1.07-.04-.24-.08-.49-.12-.73-1.64-.1-3.27-.2-4.91-.31-.05-.28-.11-.57-.16-.85.65-.13,1.29-.26,2.58-.53v-7.58s-.61-.14-1.51-.35c.71-.54,1.13-.8,1.48-1.13.32-.3.58-.67.94-1.1-2.58-.4-3.25-1.41-2.93-3.73.11-.83.1-1.82-.26-2.53-1.63-3.16-1.25-6.07.95-8.29-.38-.71-.92-1.28-.94-1.86-.04-1.39.25-2.78.28-4.17.05-2.63.02-5.25.02-7.88.15-.02.3-.04.46-.06.3.57.61,1.14.91,1.72.25-.77.46-1.42.73-2.25,1.71,1.22,3.18,2.28,4.65,3.33l.63-.49c-4.64-3.54-6.55-8.04-5.48-13.74.77.28,1.31.48,2.48.91-.56-2.19-.86-3.89-1.44-5.47-.72-1.96-.41-3.62.99-5.74,3.69,5.54,9.26,8.1,14.55,10.98,5.22,2.84,10.58,5.41,15.88,8.1-1.18-3.46-2.29-6.46-3.17-9.53-.15-.52.65-1.87,1.07-1.89,2.71-.17,5.5-.45,8.14.02,2.26.4,2.52-.4,3.07-2.21,1.09-3.61.96-7.74,4.11-10.55-.67-.11-1.78-.24-1.77-.29.17-2.58-1.48-1.25-2.49-1.16-1.4.12-2.8.45-4.19.45-2.56,0-5.11-.19-7.85-.3.19,1,.29,1.52.4,2.1-1.03-.16-1.91-.29-2.23-.34-.48-.97-.63-1.75-1.11-2.17-1.05-.93-2.32-1.6-3.4-2.5-3.89-3.23-7.73-6.52-11.89-10.03-.49,3.01-2.02,2.3-3.22,1.21-1.44-1.32-2.8-2.82-3.82-4.47-3.02-4.86-6.45-9.59-8.6-14.83-2.3-5.61-3.27-11.76-4.93-17.64-.59-2.08-.22-4.72-3.13-6.05v2.63c-.9-1.57-1.67-2.91-2.69-4.69-1.41,5.15,2.65,7.62,4.24,11.48-.8-.48-1.13-.68-1.46-.88-.21.11-.42.22-.62.33.43.98.96,1.93,1.25,2.94.25.86.54,1.95.22,2.66-.24.52-1.45.8-2.23.82-.73.01-1.47-.47-2.35-.78.85,3.53,3.03,4.16,6.61,2.06.17.25.38.5.51.78,2.06,4.61,4.12,9.22,6.17,13.84,1.08,2.42,2.61,4.75,3.13,7.28.86,4.23,1.09,8.58,1.53,12.89.12,1.23.37,2.59,0,3.7-2.25,6.75-5.67,12.91-10.13,18.43-1.11,1.37-2.97,2.31-4.66,2.99-3.85,1.54-7.91,2.6-11.72,4.22-7.9,3.35-15.6,7.2-23.58,10.33-5.13,2.02-10.64,3.07-15.95,4.65-6.27,1.87-12.53,3.79-18.76,5.79-2.45.79-4.73,2.29-7.21,2.7-4.17.68-6.47,2.05-7.48,6.16-1.43,5.8-2.63,11.66-3.83,17.52-1.6,7.82-2.58,15.8-4.76,23.45-3.12,10.97-6.18,21.9-7.49,33.27-.88,7.68-2.03,15.34-3.3,22.97-1.74,10.41-3.72,20.79-5.59,31.18Zm201.1-238.93c-.93,1.52-1.85,3.04-2.68,4.4,1.24.98,2.01,1.6,3.3,2.62-.47-1.51-.79-2.5-1.1-3.5.14.01.28.02.42.04,0-1.2,0-2.41,0-3.62,1.97-1.09,1.92-2.58,1.04-4.51-1.65,1.46-1.78,2.93-.97,4.57Zm-54.06-29.61c.84-.45,1.83-.74,2.49-1.38,1.57-1.53,1.54-4.86.05-7.04-.39.56-.75,1.09-1.12,1.62-1.3-.82-2.5-1.9-3.91-2.38-1.93-.66-4.08-.7-6.04-1.3-4.76-1.47-9.53-1.36-14.29-.28-1.89.43-3.97.85-4.51,3.31-.06.29-.77.44-1.43.8-.1-.89-.27-1.52-.22-2.14.17-2.06.32-4.13.67-6.17.13-.73.67-1.81,1.24-1.96,2.4-.66,4.94-2.43,7.24.36.3.37,1.08.35,1.63.51,4.91,1.37,9.82,2.74,14.7,4.1-1.07-1.77-1.6-4.3-4.78-4.17-2.37.1-4.98.68-6.33-2.23-.08-.17-.45-.19-.66-.31-3.86-2.24-7.71-.7-11.59-.03-4.67.8-6.61,3.14-6.91,8.1-.19-1.22-1.02-2.99-.47-3.66,1.45-1.79,3.27-3.66,5.34-4.47,2.96-1.16,6.28-1.4,9.45-2.03-.01-.16-.02-.32-.03-.49-2.94.19-5.88.39-8.96.59.72-3.08,3.82-1.02,5.32-2.44-3.1-1.05-5.42-.06-8.94,3.1-2.55,4.34-4.32,7.36-6.09,10.38l.72.44c.53-.38,1.06-.76,1.76-1.26.72,2.83,1.37,5.39,2.03,7.96.16-.04.32-.08.48-.12-.13-1.18-.26-2.36-.38-3.55.32-.05.63-.1.95-.15.29,1.87.51,3.75.88,5.6.47,2.34,2,3.48,3.95,3.08-.15-.76-.64-1.67-.39-2.26.58-1.41,1.45-2.71,2.33-3.97.97-1.39,2.13-2.05,4.04-1.44,2.65.86,5.49-.51,6.15-2.57-.83-.14-1.65-.27-2.9-.48,4.82-2.19,7.65,2.23,11.38,2.83.08-.23.17-.47.25-.7-.76-.64-1.51-1.27-2.27-1.91.08-.22.16-.45.24-.67,1.3.29,2.58.64,3.89.87,2.17.39,4.36.71,6.54,1.05-.47,2.32-.94,4.64-1.41,6.97-1.49,1.59-2.98,3.18-4.43,4.73.19.04.47.1.87.17-.45.7-.86,1.35-1.28,1.99l.84.47c1.31-2.48,2.62-4.95,3.93-7.43Zm18.33,246.28c-.02,1.83,1.48,3.77,3.03,3.4,3.79-.89.49-3.68,1.61-5.56-1.79-.09-3.21-.16-4.76-.24.05,1.01.08,1.74.11,2.48v-.08Zm32.14-260.8c-2.71-1.1-5.39-2.29-8.16-3.2-.55-.18-1.61.61-2.13,1.22-.23.28.29,1.19.59,2.27,1.82-2.15,3.52-2.51,5.4-1.13-.08.64-.41,1.36-.21,1.88,1.32,3.3,2.79,6.54,4.13,9.84.42,1.02.58,2.15.74,2.79.57-.64,1.47-1.66,2.37-2.68,1.97-.96,3.34-.35,4.22,1.59.55,1.21,1.31,2.35,1.62,3.61.32,1.32.39,2.75.27,4.11-.29,3.24-.76,6.46-1.16,9.69.35.06.71.12,1.06.17-.1-3.1,3.74-5.04,1.97-8.75.67.62.85,1.26,1.14,1.84.22.44.58.8.88,1.2.29-.34.79-.67.83-1.04.3-2.71.96-5.49.65-8.15-.63-5.32,1.34-10.13,2.26-15.14,1.15-6.2,2.93-12.44.62-18.67-1.74-4.68-3.97-9.18-5.99-13.76-.16.21-.33.42-.49.63-1.67-.33-3.34-.65-4.77-.93.28,1.08.67,2.6,1.07,4.12-.25.07-.51.13-.76.2-.9-2-1.46-4.26-2.79-5.92-1.28-1.59-3.34-2.56-5.63-4.21,2.08,3.04,3.73,5.45,5.38,7.86-.13.08-.26.17-.39.25-.96-.82-1.92-1.64-3.02-2.58,1.7,3.19,3.25,6.12,4.81,9.05-.19.1-.37.2-.56.31-.28-.38-.55-.77-.84-1.13-.95-1.48-1.89-2.96-2.84-4.43l-.91.33c.49,1.25.88,2.57,1.54,3.73.26.45,1.13.58,1.75.77.11.03.34-.32.51-.5-.36,1.44-.48,2.91-2.09,3.79-.46.26-.35,1.74-.32,2.65.02.52.74,1.17.6,1.53-1.07,2.65.11,4.99.92,7.34,1.52,4.43,3.22,8.79,4.71,13.23.71,2.12,1.28,4.32-1.68,5.46-.94.36-1.71,1.18-2.57,1.76-.24-2.11-.48-4.22-.76-6.66,1.12.65,1.74,1,2.35,1.35.14-.14.27-.29.41-.43-.44-1.06-.88-2.13-1.4-3.38-3.04,2.21-1.23,5.63-2.55,7.69-.28-3.11-.58-6.38-.87-9.65.46.37.93.73,1.58,1.25-.74-3.58-3.76-5.57-6.3-4.91,1.43,1.11,3.1,2.42,4.78,3.73Zm-21.92,98.49c-4.03,1.73-7.71,3.86-9,8.46-.18.66-.05,1.84.39,2.17,2.03,1.51,4.2,2.86,6.89,2.67,1.22-3.66,1.32-3.71,4.42-2.05.14-2.09.29-4.2.4-5.78,1.54-.35,2.45-.59,3.38-.75,1.22-.21,2.59-.79,3.64-.44,1.5.5,2.27-.09,2.44-1.18.37-2.51.7-5.08.54-7.6-.4-6.31-1.29-12.62,2.72-18.27.57-.8.81-1.84,1.2-2.77-.25-.12-.5-.23-.75-.35-1.92,3.82-3.89,7.6-5.73,11.46-1.07,2.24-2.24,4.09-4.95,4.74-1.47.36-3.03,1.32-4.02,2.46-.98,1.12-1.46,2.77-1.84,4.27-.24.93.11,2.02.19,3.03l.08-.08Zm-29.85-68.53c-.37.24-.74.48-1.12.71.05.96.06,1.92.16,2.87.15,1.39-.02,2.51-1.75,2.64-2.16.17-1.51,1.79-1.45,3,.07,1.44-.22,3.13,1.91,3.5,3.16.55,6.3,1.17,9.46,1.69.51.08,1.14-.12,1.63-.36,1.26-.63,2.47-1.35,3.69-2.04,1.67-.95,3.07-1.47,4.11.98.24.56,2.1.42,3.22.6.07-.82.5-1.85.16-2.4-.86-1.39-1.93-2.72-3.18-3.76-.69-.57-2.36-1.01-2.81-.62-2.38,2.11-4.44,1.8-6.58-.22-.22-.21-.6-.28-.91-.38-2.12-.63-4.05-1.43-4.97-3.73-.36-.9-1.04-1.67-1.58-2.49Zm-13.22,28.62c1.48.82,2.52,1.53,3.66,2,1.9.78,3.81,1.63,5.81,2.02,2.56.5,5.2.57,7.8.83,1.09.11,2.18.24,3.33.36-.83-.66-1.53-1.2-2.35-1.86,1.98-1.05,8.21-.36,10.38,1.15h-5.69c6.34,1.49,18.85.25,21.76-1.97-.75-.12-1.39-.3-2.04-.33-5.35-.27-10.71-.48-16.06-.8-2.3-.14-4.59-.49-6.89-.71-4.07-.39-8.24-.35-12.19-1.27-2.64-.62-4.82-.29-7.52.58Zm43.84-51.66c.86.61,2.02,1.97,2.65,1.76,1.91-.64,4.42,1.45,5.84-1.26.09-.16,1-.14,1.3.09,2.55,2,5.69,3.36,6.76,6.92.28.91,1.61,1.51,2.67,2.44.86-6.26-2.96-9.25-7-11.43-5.25-2.83-11.07-2.61-16.72-.89-1.77.53-3.35,1.65-5.02,2.5.12.25.25.51.37.76,1.7-.58,3.4-1.17,5.44-1.86-.2,1.19-.3,1.85-.54,3.3,1.81-.99,3.02-1.65,4.25-2.33Zm-9.67-3.99c2.08.04,4.03.26,5.22-2.06.61-1.17,1.2-2.44,3.03-1.77.24.09.86-.87,1.62-1.68-1.38-.13-2.15-.36-2.84-.22-1.63.32-2.99,1.05-4.92.16-1.12-.51-3.37.5-4.12,2.46h3.01c-.27.85-.54,1.71-.99,3.1Zm9.54,262.86h-4.76c-.83,4.62.04,5.59,4.76,5.05v-5.05Zm-19.72-104.54c-2.02-.47-3.05,1.6-3.24,6.36,1.64-.82,3.5,2.74,5-.5,1.44-3.1-.95-3.46-3.25-3.97.63-.8,1.04-1.32,1.49-1.89Zm1.66,107.53c5.61,1.64,6.05,1.27,4.97-4.11-1.37-.15-2.75-.3-4.34-.47-.22,1.58-.43,3.08-.63,4.58Zm19.03-49.02v-5.51c-1.43-.21-2.85-.43-4.43-.66-.14,1.75-.26,3.27-.37,4.7.91.27,1.61.47,2.31.68.75.23,1.5.47,2.5.79Zm-.71,25.49q.79-5.79-4.27-5.88c-.11,1.42-.23,2.86-.35,4.42,1.62.51,3.08.97,4.62,1.46Zm-29.06,12.18c-.26,1.18-.29,2.2-.71,3.03-.75,1.46-.29,1.89,1.18,2.01,3.42.3,3.42.33,3.75-5.04h-4.22Zm12.91-40.7c1.67.52,3.13.97,4.89,1.52v-5.51c-1.4-.1-2.6-.18-3.97-.27-.3,1.38-.59,2.72-.92,4.27Zm-5.26,8.41c-.63,1.58-1.19,2.66-1.46,3.8-.1.42.47,1.41.76,1.42,1.47.06,2.94-.12,4.41-.21,0-1.82.5-3.56-.16-4.44-.53-.72-2.44-.43-3.56-.56Zm11.14,27.12c-.36,1.62-.68,3.01-1.02,4.53,1.62.27,3.11.52,4.79.8v-5.33h-3.77Zm-4.18-60.88c2.08.36,3.5.6,5.49.94-.17-1.88-.11-3.5-.6-4.93-.13-.38-2.45-.62-2.92-.13-.93.99-1.28,2.54-1.98,4.11Zm-12.47,21.12c-.18,1.51-.33,2.8-.47,4.06,4.94,1.35,5.15,1.14,4.56-4.42-1.28.11-2.56.22-4.08.36Zm12.89-32.59c.11-1.75.21-3.37.31-5.06-1.56.23-2.75.4-3.83.56-.47,1.38-.89,2.62-1.4,4.12,1.64.12,3.09.23,4.92.37Zm6.02,20.59c-.27,1.5-.51,2.84-.8,4.42,1.43.32,2.75.61,4.36.96v-5.38h-3.56Zm-12.48,3.97c4.92.54,4.47,1.23,4.34-4.77-1.12.08-2.24.17-3.35.25-.34,1.57-.66,3.04-.99,4.52Zm-3.56,57.4c1.61.26,3.07.49,4.54.73.2-1.76.41-3.52.63-5.45h-4.49c-.23,1.57-.43,3.01-.68,4.72Zm8.28-38.28c3.29.42,6.57.84,9.86,1.25.02-.16.03-.31.05-.47-1.35-.74-2.69-1.48-4.09-2.25-.05.1-.35.67-.67,1.31-.38-.36-.78-.93-.94-.87-3.4,1.33-3.51-.62-3.16-3.08,0-.02-.27-.08-.55-.16-.15,1.3-.3,2.57-.5,4.27Zm62.75-39.64c-.41.06-.82.11-1.23.17,1.02,5.18,2.03,10.36,3.05,15.55.17-.03.34-.05.5-.08-.77-5.21-1.55-10.42-2.32-15.63Zm-64.59,37.51c-1.08,1.53-2.19,1.76-3.48.47-.14-.14-.47-.16-.69-.13-1.74.31-3.47.64-5.21.97.92.49,1.93.74,2.94.81,1.13.07,2.51-.46,3.35.03,2.45,1.41,2.78-.15,3.08-2.14Zm-30.41-168.09c2.35-3.69,4.57-7.18,6.78-10.66-3.58,2.64-6.25,5.83-6.78,10.66Zm24.92,126.08c-.16-2.55-.31-4.98-.46-7.42-.28.03-.55.05-.83.08-.37,2.41-.75,4.82-1.14,7.33h2.43Zm6.77-176.57c-.04-.07-.08-.14-.11-.21-2.16-.31-4.32-.65-6.49-.9-.99-.12-2.01-.18-2.98-.06-.37.05-.67.7-1,1.07.43.23.87.67,1.28.64,1.31-.09,2.61-.45,3.93-.52,1.79-.1,3.58-.02,5.37-.02Zm12.68,230.41c0,1.64-.55,3.55.16,4.48.64.84,2.68.6,4.1.84.06-.26.11-.52.17-.78-1.08-.56-2.73-.85-3.15-1.72-1.35-2.81,2.12-.91,2.58-2.45-1.21-.12-2.36-.22-3.86-.37Zm-16.84-27.38c0,.24,0,.47,0,.71.38.08.76.14,1.13.25.76.23,1.63.35,2.22.81.22.17-.06,1.6-.38,1.72-.67.24-1.53-.07-2.3-.02-.47.03-.93.31-2.03.7,5.14,1.34,5.89.53,4.9-4.41-1.16.08-2.35.16-3.54.24Zm21.67,70.34c1.44.77,2.67,1.57,4.03,2.03.28.09,1.4-1.07,1.44-1.69.13-2.5-.4-3.34-1.21-3.37-.14,1.05.07,2.47-.5,2.92-.62.5-1.96.11-3.75.11Zm-9.21-102.59c.01-.37.03-.74.04-1.11h-9.95c0,.24.01.47.02.71,1.72-.38,3.65,2.2,4.9-.32,1.82.26,3.4.49,4.98.72Zm29.14-111.48c-.3-.12-.6-.23-.9-.35l-3.17,9.13c.28.1.56.2.83.29,1.08-3.03,2.16-6.05,3.24-9.08Zm-43.46,123.4h8.18c0-.13,0-.25,0-.38-1.46-.61-2.92-1.23-4.09-1.72-1.39.72-2.85,1.47-4.08,2.1Zm75.52,35.31c1.34-1.92,2.06-3.75-.89-5.07-.58,2.05-1.22,3.84.89,5.07Zm-22.26-188.94c-2.72.96-3.54,3.16-2.29,5.49.83-2,1.56-3.74,2.29-5.49Zm-30.63,244.96c.04-.23.08-.46.12-.69-1.68-.19-3.37-.38-5.15-.59.63,1.6,2.62,2.07,5.04,1.28Zm49.74-118.44l-.3.82c2.23.83,4.45,1.66,6.68,2.49l.31-.85c-2.23-.82-4.46-1.64-6.69-2.46Zm-66.34,68.06c-.23,1.32-.38,2.23-.48,2.82,1.3.64,2.25,1.17,3.25,1.6,1.39.61,1.82.12,1.42-1.28-2.93.12-3.1.01-4.19-3.14Zm66.95-15.24c.21,0,.43,0,.64,0-.35-2.61-.7-5.22-1.05-7.83-.26.04-.52.07-.79.11l1.19,7.73Zm-117.12-197.65c-.19,2.72-.06,2.77,4.2,2.17-1.26-.65-2.73-1.41-4.2-2.17Zm63.3,104.67c-.19-.31-.37-.61-.56-.92-1.54.97-3.08,1.94-4.63,2.91.17.28.34.56.51.84,1.56-.94,3.12-1.89,4.68-2.83Zm-2.34,100.04c-1.51-.32-2.76-.58-4-.84.84.77,1.98.79,2.71,1.35.51.39.44,1.52.64,2.32.18-.04.35-.09.53-.13.04-.88.08-1.76.13-2.7Z"/>
      <path class="cls-1" d="m196.71,330.65c-.28,1.18-.47,2.39-.85,3.54-.55,1.63-1.24,3.21-1.87,4.81h-17.5c-.74-.87-1.48-1.74-2.21-2.61l.09.12c.03-.38.05-.77.08-1.15-.03-.1-.03-.22.01-.36-.76-2.29-1.52-4.57-2.22-6.66-.88.68-1.98,1.53-3.01,2.32.32.11,1.07.38,2.34.82-.9,1.16-1.72,2.07-2.38,3.09-.6.92-.56,1.61.86,1.24-1.08.8-2.99,1.06-2.05,3.17h-5.5c-.34-.45-.77-1.33-1-1.29-1.52.32-3,.83-4.5,1.29h-82c1.87-10.39,3.85-20.77,5.59-31.18,1.27-7.63,2.42-15.29,3.3-22.97,1.31-11.38,4.37-22.3,7.49-33.27,2.17-7.65,3.16-15.63,4.76-23.45,1.2-5.86,2.4-11.72,3.83-17.52,1.01-4.11,3.31-5.48,7.48-6.16,2.48-.41,4.77-1.91,7.21-2.7,6.23-2,12.49-3.92,18.76-5.79,5.31-1.58,10.82-2.63,15.95-4.65,7.98-3.13,15.68-6.98,23.58-10.33,3.82-1.62,7.87-2.68,11.72-4.22,1.7-.68,3.56-1.62,4.66-2.99,4.46-5.52,7.88-11.68,10.13-18.43.37-1.11.13-2.47,0-3.7-.44-4.31-.67-8.66-1.53-12.89-.52-2.53-2.05-4.86-3.13-7.28-2.06-4.61-4.11-9.23-6.17-13.84-.13-.28-.34-.52-.51-.78-3.57,2.09-5.76,1.47-6.61-2.06.88.32,1.62.8,2.35.78.78-.02,1.99-.3,2.23-.82.33-.71.03-1.8-.22-2.66-.29-1.02-.82-1.96-1.25-2.94.21-.11.42-.22.62-.33.33.2.66.4,1.46.88-1.59-3.86-5.65-6.33-4.24-11.48,1.02,1.78,1.79,3.12,2.69,4.69v-2.63c2.91,1.33,2.55,3.97,3.13,6.05,1.66,5.88,2.63,12.03,4.93,17.64,2.15,5.24,5.58,9.97,8.6,14.83,1.02,1.65,2.39,3.15,3.82,4.47,1.2,1.1,2.73,1.8,3.22-1.21,4.16,3.51,8,6.79,11.89,10.03,1.08.9,2.35,1.58,3.4,2.5.47.42.63,1.2,1.11,2.17.32.05,1.2.18,2.23.34-.11-.57-.21-1.09-.4-2.1,2.73.12,5.29.3,7.85.3,1.4,0,2.79-.32,4.19-.45,1-.09,2.65-1.43,2.49,1.16,0,.06,1.1.18,1.77.29-3.15,2.81-3.03,6.94-4.11,10.55-.55,1.82-.81,2.62-3.07,2.21-2.64-.47-5.43-.2-8.14-.02-.42.03-1.22,1.38-1.07,1.89.88,3.07,1.99,6.07,3.17,9.53-5.3-2.69-10.67-5.26-15.88-8.1-5.29-2.88-10.87-5.43-14.55-10.98-1.4,2.12-1.71,3.78-.99,5.74.58,1.59.87,3.28,1.44,5.47-1.17-.43-1.71-.63-2.48-.91-1.06,5.71.85,10.2,5.48,13.74l-.63.49c-1.47-1.05-2.95-2.11-4.65-3.33-.27.83-.48,1.48-.73,2.25-.31-.57-.61-1.15-.91-1.72-.15.02-.3.04-.46.06,0,2.63.04,5.26-.02,7.88-.03,1.39-.31,2.78-.28,4.17.01.58.56,1.15.94,1.86-2.2,2.23-2.58,5.13-.95,8.29.37.71.38,1.71.26,2.53-.32,2.32.35,3.33,2.93,3.73-.37.43-.62.8-.94,1.1-.36.33-.77.59-1.48,1.13.9.21,1.46.34,1.51.35v7.58c-1.28.26-1.93.39-2.58.53.05.28.11.57.16.85,1.64.1,3.27.2,4.91.31.04.24.08.49.12.73-.66.34-1.32.67-2.11,1.07,3.06,2.68-1.04,7.16,2.17,9.58.07,1.53.09,2.81.2,4.1.44,5.55.98,11.08,1.33,16.63.22,3.5.04,7.02.24,10.52.15,2.57.82,5.1.92,7.67.14,3.66-.58,7.45.12,10.97.49,2.49.68,4.02-1.73,5.16.21.37.36.82.66,1.09.4.35.92.55,1.56.92-3.1,1.54-.51,3.2-.45,4.77.03.82,0,1.63-.56,2.43-.33-1.22-.66-2.45-.99-3.67-.35.08-.7.16-1.05.24.32,1.66.65,3.32.98,5.01-.37-.22-.93-.55-2.18-1.28.44,1.42.71,2.29.99,3.22-5.7,2.88-2.01,8.17-2.62,12.46-.88-.24-1.59-.42-2.28-.61-.14.71-.27,1.43-.41,2.14.15-.03.31-.06.46-.09.09.85.18,1.7.28,2.56.02.15-.01.43.05.44,2.88.96.98,2.78.4,3.82-1.09,1.96,1.01,2.95.9,4.49-1.29-1.06-2.58-2.07-4.58-.84.45.55.82,1.03,1.21,1.49,1.53,1.84,2.13-.98,3.35-.68.41.03.83.06,1.43.11-.76,1.01-1.33,1.77-1.91,2.54,0,.05-.02.11-.05.16Zm-33.43-3.91c-2.05-.55-4.19.08-4.27,2.05-.06,1.52,1.73,3.11,2.7,4.67l.83-.34c-.03-.45.11-1.05-.12-1.32-1.59-1.85-1.37-3.46.79-5.12,1.03-.26,2.06-.51,3.31-.82-.06-.61-.14-1.38-.23-2.3-.7.66-1.21,1.14-1.88,1.76-.27-.85-.45-1.43-.63-2.01l-.76.06c.09,1.12.17,2.24.26,3.36Zm-23.8-40.54c.18-.34.52-.68.51-1.02,0-.58-.23-1.15-.36-1.73,0-1.21-.5-2.8.08-3.54.95-1.21-.94-2.04-.08-2.7.94-.73,2.17-1.07,3.27-1.61.11-.05.12-.28.24-.57-1.33-1.16-1.79-2.45-.67-4.22.45-.71.68-2.25-1.18-2.19-.04,0-.08-.25-.12-.38.56-.26,1.12-.52,1.34-.62-.16-1.13-.27-1.97-.41-2.95-.13-.02-.57-.11-.66-.13.49-.96,1.63-2.33,1.34-2.78-1.47-2.28.31-4.07.3-5.75-.72-1.48-1.37-2.81-2.09-4.29-.37-.21-1.01-.58-1.65-.95.89-.64,1.77-1.28,3.14-2.27-.45-.44-.93-.93-1.21-1.2-1.04,1.05-1.66,1.68-2.25,2.28-1.99-1.75,1.24-4.35-1.75-5.41,1.64-.48,3.57-.63,1.89-3.15-.25-.37.88-1.66,1.36-2.53,1.2,3.33,3.99,2.7,6.14,3.52-.92,1.57-2.82,2.76-2,4.99.57.28,1.22.61,1.71.85.62-.89,1.22-1.74,2.16-3.08.17,1.29.24,1.84.29,2.22,1-.88,1.93-1.7,2.87-2.52-1.58,1.36-1.63,3.12-.33,4.38,1.11,1.07,2.87,1.47,4.34,2.17-.03.13-.07.27-.1.4-1.35-.37-2.71-.74-4.2-1.15.65,1.69-3.67-.11-2.06,2.29.93,0,1.76-.24,2.31.05,1.33.71,2.52,1.66,3.51,2.35-.07.02-.74.25-1.18.39-.11,1.22-.21,2.25-.32,3.46,1.87.67,3.83,1.36,6,2.13-1.1.5-1.85.84-2.59,1.18.25.06.51.13.76.19.1,1.35.2,2.69.34,4.46.1.05.68.38,1.27.71-.25,0-.5,0-.76,0-.05,2.43-1.22,4.7-.36,7.23.11.31.75.44,1.05.6-.17.47-.49,1-.55,1.56-.23,2.13.05,4.43-.68,6.37-.73,1.97-1.69,3.67-.89,5.83.11.29-.42.93-.78,1.27-.47.44-1.06.74-1.77,1.22,1.15.76,1.75,1.16,2.61,1.73-.55.68-1.05,1.31-1.79,2.23-.27-1.18-.42-1.88-.58-2.57-.31.09-.63.17-.94.26.34,1.12.69,2.24,1.02,3.35-.44.08-1.24.22-1.98.36-.42,2.59-.75,5.08-1.27,7.52-.12.56-.95,1.43-1.39,1.39-3.06-.28-1.05,2.38-1.95,3.36-.28.3.28,1.36.45,2.08.18-.05.36-.1.54-.15.23-.63.46-1.27.82-2.28.35,1.12.57,1.83.73,2.35.75-1.14,1.49-2.27,2.23-3.39.23.13.47.25.7.38-.51,1.71-1.01,3.42-1.72,5.82,1.38-.77,2.1-1.27,2.89-1.59,1.33-.55,2.94-1.7,3.99-1.33,1.97.69,3.52,1.68,4.91-.74.07-.12.99.26,2.12.57-1.38-3.36-.69-5.68,2.34-6.25,1.8.47,3.31.87,4.45,1.17v-4.51c-.68-1.29-1.72-2.97-1.58-3.07,1.77-1.32.77-2.57.38-4.1-.68-2.64-.67-5.45-1.25-8.12-1.06-4.97-2.28-9.91-3.55-14.83-.25-.95-1.06-1.74-1.58-2.63-.17-.29-.28-.62-.37-.94-.73-2.67-1.25-5.42-2.23-7.99-1.24-3.25-2.92-6.33-4.29-9.53-.89-2.06-1.44-4.27-2.42-6.28-.28-.57-1.54-.66-2.35-.98,1.3-.76,1.49-1.78,1-3.19-.65-1.9-1.09-3.86-1.6-5.81-.6-2.27-1.17-4.55-1.84-7.17,1.06.47,1.88.82,2.69,1.18-.13-.22-.26-.44-.4-.66,1.14-1.2,2.19-2.52,3.45-3.58,1.39-1.17,1.98-2.16.31-3.11.53-1.18.99-2.2,1.46-3.25-.67-.22-1.17-.38-1.92-.63.99-.9,1.77-1.61,2.38-2.16-.85-1.04-1.59-1.95-2.13-2.61.78-1.05,1.67-1.72,1.8-2.51.29-1.7.55-3.16,2.04-4.41.81-.68.53-2.99,1.29-3.32,2.16-.95,1.83-3.49,3.89-4.55-3.68-1.33-6.99-2.53-10.4-3.77.29,2.38.52,4.33.79,6.53-.86-.48-1.66-.94-2.47-1.39-.29.4-.55.74-1.04,1.4-.17-1.02-.26-1.63-.4-2.46-.53.57-.98,1.44-1.38,1.42-2.94-.15-2.73,2.3-3.47,3.98-.09.2-.29.36-.41.49-.61-.44-1.17-.84-1.85-1.33-.32.7-.52,1.14-.73,1.58-.52,1.1-1.13,1.89-2.65.91-.85,2.27-5.64,1-5.25,4.93-.7.56-1.41,1.01-1.98,1.6-1.7,1.74-2.51,4.63-5.75,4.34-.18-.02-.38.27-.57.4-1.45.94-2.9,1.88-4.58,2.97.31.56.8,1.46,1,1.82-1.62,2.4-3.01,4.45-4.55,6.74.8.15,1.46.27,2.12.39,1.28,3.42-.88,6.18-1.75,9.21-.4,1.39-.91,3.06,1.18,4.03-3.22,3.61-2.86,6.99.75,9.73-.5,1.03-1.24,1.83-1.16,2.52.4,3.25,1.02,6.47,1.55,9.6.61-.09,1.12-.16,1.71-.25-1.33,4.93-.39,7.28,2.51,7.18-.33,1.61-.67,3.26-1.06,5.15.84-.37,1.37-.59,2.37-1.03-.47,1.79-.59,3.23-1.21,4.41-.97,1.84.04,3.55,1.09,4.08,3.74,1.88,5.04,5.26,6.41,8.75.83,2.1,2.69,2.81,3.65,1.86-.39-1.08-.74-2.04-1.09-2.99l-.07.1c.09-.49.19-.98.28-1.47.53.54,1.06,1.07,1.59,1.61-.14.18-.27.35-.41.53.97.34,1.95.69,3.16,1.12-.61-1.21-1.69-2.47-1.41-2.95.93-1.6-.64-1.77-1.07-2.57Zm41.68-16.99l.04.05c1.13-1.79,1.65-3.68,1.17-5.85-1.04.38-1.84.67-2.64.96l-.36-.7c.87-.63,1.74-1.27,2.82-2.05-.62-.26-1.06-.44-1.56-.65q1.39-1.38-.42-3.81c1.31-1.42,2.62-2.84,3.58-3.87-.37-1.06-.81-2.31-1.21-3.48-.88.23-2.23.59-3.96,1.04.43-1.18.67-1.86.88-2.43.75.29,1.37.53,1.99.76.03-.61.07-1.21.09-1.82.06-1.25-.33-2.5,1.25-3.38,1.76-.97,1.53-2.86-.1-4.08-.35-.26-.46-1.28-.24-1.75.27-.58.99-.96,1.78-1.65-2.21-.73-4.36-1.07-3.52-3.98.95-3.28,3.05-.24,4.55-1.04.08-.41.19-.93.26-1.29h-3.35c.3-4.04.31-4.06,2.74-3.38.08-.23.15-.46.23-.69-1.46-.32-2.92-.63-4.38-.95-.26-.18-.52-.35-.78-.53.86-.39,1.71-.77,2.35-1.06-.69-.91-1.24-1.63-1.9-2.49,1.89-.8,3.48-1.47,5.26-2.22-1.4-.86-2.61-1.59-3.73-2.28.04-.8.08-1.57.13-2.47-.81.33-1.33.55-1.85.76.16-.59.32-1.19.51-1.92h-1.34c.29-.88.7-1.63.71-2.39,0-.33-.83-.66-.98-.77-1,1.24-1.64,2.45-2.63,3.16-1.82,1.32-3.81,2.39-5.79,3.47-.98.54-2.1.83-3.12,1.31-.51.24-1.35.68-1.34.99.14,3.41-2.13,2.65-4.1,2.27.37,3.73-3.27,2.92-5.3,4.6,1.75.29,2.92.48,4.5.75-.87,1.05-1.53,1.85-1.95,2.36.12.68.3,1.14.27,1.57-.06.84-.39,2.4-.35,2.41,3.58.74.73,3.67,1.66,5.5.89,1.72.43,4.67,1.77,6.55,1.87,2.65,2.57,5.61,1.87,8.98,2.37.16,3.72,1.12,3.12,3.9-.16.75.74,1.71,1.09,2.59.25.63.41,1.3.61,1.95.94,3.07.01,6.85,3.51,8.97.4.24.38,1.2.51,1.83.15.7.17,1.44.38,2.12.54,1.8,1.37,3.54,1.69,5.37.42,2.39,1.43,4.68,1.18,7.2-.05.53.48,1.11.71,1.68.39.98,1.17,2.03,1.03,2.93-.27,1.84.6,2.96,1.72,4.12-.54,3.47.04,6.9,1.02,7.31.55-2.09,1.11-4.21,1.7-6.44-.79-.25-1.8-.57-2.81-.89h2.34c-1.06-.71-1.44-.96-2.04-1.37,1.07-.23,1.76-.37,1.91-.4.16-1.48-.01-2.82.49-3.83.88-1.75.52-2.69-1.28-3.22,3.36-3.78,3.31-4.14-1.08-7.92q3.03-1.21,1.55-6.33c.38-.02.75-.04,1.12-.06.05-.17.11-.35.16-.52-1.09-.4-2.18-.8-3.64-1.33.91-.63,1.55-1.07,2.2-1.52-.23-.22-.47-.45-.7-.67Zm-68.57-5.97c-2-13.28-3.96-26.27-5.97-39.58-1.19.58-2.93,1.24-2.88,1.44.43,1.67,1.19,3.27,1.74,4.63v7.74c-.21.05-.83.18-1.44.32.72.57,1.78.99,1.89,1.59.4,2.14.36,4.36.69,6.52.4,2.64,1.13,5.24,1.48,7.88.23,1.75.87,3.65-.61,5.27-.11.12.01.44.04.93.68-.36,1.22-.65,2.31-1.22-1.83,3.67.9,3.56,2.73,4.49Zm41.52,73.5c2.2-.84-.17-2.7.58-4.1.62.1,1.28.2,2.2.35-.44-.69-.73-1.15-.94-1.48.66-.91,1.25-1.73,1.85-2.55-.18-.16-.36-.31-.54-.47-.59.43-1.17.86-1.76,1.29.05-1.04.11-2.08.16-3.15.23-.04.66-.13,1.09-.21-.61-.39-1.27-.33-1.72-.6-.77-.46-1.42-1.13-2.11-1.71.8-.53,1.55-1.22,2.42-1.54.69-.25,1.54-.05,2.32-.05.09-.28.17-.55.26-.83-1.07-.5-2.11-1.29-3.22-1.4-.95-.1-1.98.58-3.19.98.44,1.23-1.93,3.07.53,4.25,2.55,1.23,1.97,3.54,2.66,5.89-1.1-.51-1.72-.79-2.52-1.16-.25.99-.44,1.78-.62,2.49,1.38,1.08,3.85,1.39,2.55,4.01Zm9.88-132.97c-.06.21-.11.41-.17.62,1.93,1.39,3.82,2.84,5.84,4.1.42.26,1.74-.04,1.9-.41.64-1.44,1.38-3.03,1.32-4.53-.06-1.52-1.02-3-1.82-5.12-1.29,2.09-2.25,3.65-3.29,5.34h-3.78Zm6.15,107.51c-.85,1.15-1.5,2.03-2.14,2.9.72.45,1.44.9,2.3,1.44.05-.78.08-1.18.1-1.52,1.33.39,2.5.74,3.97,1.17-.21-2.12-.17-3.83-.59-5.42-.45-1.7-.45-4.36-3.94-2.9,1.03,1.11,1.96,2.11,2.99,3.22-1.64-.31-2.96-.56-4.28-.81-.05.24-.1.48-.14.72.58.4,1.15.8,1.72,1.19Zm-12.65,5.67c.32-1.16.58-2.05.86-3.07-3.4.32-3.75.82-3.09,3.9-.58.16-1.17.32-1.86.51q1.49,1.5,7.66-1.13c-1.35-.08-2.39-.14-3.58-.22Zm15.55-.88c-2.01,1.65-4.03,3.31-6.12,5.02h7.98c-4.12-.76.18-3.21-1.86-5.02Zm47.37-158.89c.73,1.8,2.37,1.75,4.17,1.7,2.22-.06,4.45.2,6.68.25,2.19.05,4.38.01,6.42.01-5.68-.64-11.43-1.3-17.27-1.96Zm-50.66,164.9c-.43,1.11-.81,2.08-1.12,2.88,1.34.33,2.53.62,3.82.94.38-.57.91-1.39,1.48-2.26-1.44-.54-2.81-1.05-4.18-1.56Zm-21.09-5.48c-.6,1.25-.87,3.25-3.34,1.54.36.96.59,1.85.7,1.83,1.08-.14,2.14-.43,3.31-.7-.06,1.22-.13,2.58-.2,3.94,1.56-2.51,1.27-5.25-.48-6.61Zm21.46,16.08c-2.04-1.36-3.67-2.45-5.48-3.66-1.05,3.26,3.19,2.54,3.09,4.84.55-.27,1.19-.59,2.39-1.18Zm-53.73-108.08c-2.98,1.22-1.16,2.98-.98,4.63,2.71-1.06,2.21-2.63.98-4.63Zm70.62-15.64c1.17-1.26,2.18-2.35,3.18-3.44-.1-.27-.2-.54-.3-.81-1.13.05-2.26.11-3.42.16.2,1.5.33,2.51.54,4.09Zm-22.11,106.79c.3-1.57.53-2.77.76-3.97-.24-.11-.47-.21-.71-.32-1.13.89-2.27,1.77-3.4,2.66.22.26.44.53.66.79.76.24,1.53.48,2.69.84Zm-53.16-83.23l-.31.85c1.59.5,3.17,1,5.15,1.63-1.28-2.32-2.65-3.37-4.84-2.48Zm-6.86-9.65c1.9-.76,1.88-3.24,0-5.5v5.5Zm55.1,92.61c.33-.19.66-.37.99-.56-.29-.87-.37-2.25-.93-2.49-1.07-.46-2.42-.26-3.65-.34-.04.28-.08.56-.11.83,1.65.16,3.94-.75,3.7,2.55Z"/>
      <path class="cls-1" d="m330,339c-.32-.97-.64-1.94-1.06-3.21-.6.57-1.24,1.17-2.07,1.95-1.06-1.26-3.07-1.9-2.94-4.49.05-1.09-1.06-2.23-1.78-3.61-.54,1.46-.96,2.56-1.37,3.67-.22-.09-.44-.18-.66-.26-.65-2.99-1.37-5.96-1.89-8.96-.17-.99.19-2.08.31-3.12l-.08.05c.43.22.85.45,1.84.96-1.04-3.98-1.9-7.48-2.91-10.93-.23-.8-1.01-1.44-1.54-2.15.3-.58.98-1.29.84-1.73-.81-2.6-1.34-5.19-1.63-7.92-.29-2.72-1.31-5.38-2.12-8.03-.83-2.68-1.89-5.29-2.66-7.98-.34-1.2-.16-2.55-.33-3.81-.44-3.22-.38-6.67-1.59-9.6-1.33-3.22-1.98-6.6-2.83-9.87-.55-2.13-2.41-4.37-1.04-7.05.38-.75-.59-2.15-.83-3.27-1.09-5.1-2.2-10.21-3.2-15.33-.45-2.31-.66-4.66-.98-6.99.3-.09.6-.18.9-.27-.21-.26-.42-.51-.63-.77-.06.34-.12.67-.18,1.01-.08-1.37.77-2.86-1.11-3.94-.59-.34-.36-2.08-.58-3.65,1.12.57,1.91.73,2.31,1.22,1.4,1.69,2.52,2.36,4.86.96,2.13-1.27,1.34,1.03,1.4,2.22,1.02.23,2.07.47,2.74.62.42,1.36.78,2.5,1.03,3.34-1.31,1.72-2.51,3.3-3.85,5.06.68.21,1.19.36,1.87.57-.4.68-.77,1.3-1.26,2.13.86.57,1.77,1.11,2.59,1.75,1.35,1.05,1.23,2.67-.26,3.02-.52.12-1.24-.47-1.84-.79-.49-.26-.92-.62-1.92-1.3.37,2.04,3.04,2.7,1,4.75,1.27-.29,2.53-.59,4.27-.99-1.15,1.14-1.87,1.86-2.6,2.57.19.22.37.45.56.67.9-.47,1.8-.95,2.77-1.46,1.72,2.24,1.68,4.58.69,7.21,1.82-.36,3.6-.21,3.91,2.48-.42.24-.89.51-1.66.95,1.11.75,2.08,1.41,3.27,2.22-1.2.5-2.19.92-3.57,1.5,1.17,1.26,2.06,2.22,3.15,3.39-.44.87-1.21,1.98-1.54,3.2-.26.98-.38,2.66.14,3.03.8.56,2.2.26,3.74.34-.27,1.46-.64,3.42-1.01,5.39-.29,0-.57-.01-.86-.02.55.59,1.05,1.62,1.66,1.69,2.94.34,1.77,2.41,1.97,4,.22,1.81.72,3.58,1.09,5.38.4-.11.8-.23,1.19-.34-.35-.81-.7-1.61-.94-2.17,1.22-1.04,2.47-2.1,3.72-3.17.19.11.38.22.58.33-.49,1.06-.83,2.24-1.52,3.15-.99,1.3-1.02,1.05.4,1.75.85.42,1.4,1.45,2.07,2.19-1.36-.12-2.55-.22-4.49-.4,1.72,2.06,3.15,3.37,4.05,4.99.55.99.3,2.43.47,4.37,1.37,1.29,3.32,3.14,5.39,5.09-.25.56-.54,1.2-.88,1.97,1.44.36,2.72.68,4.2,1.05-.35.67-.6,1.16-.9,1.74,2.27.11,4.48-3.13,4.02-5.23-.26-1.18-.24-2.53.05-3.7.46-1.89-.03-2.75-2.22-2.45.67-1.02,1.18-1.81,1.53-2.34-.71-1.96-1.38-3.81-2.07-5.73.76-.24,1.54-.49,2.55-.8-1.71-1.97-2.51-3.8-.56-5.26-.06-1.02-.01-1.72-.16-2.38-.55-2.48-.78-5.15-1.9-7.36-.74-1.47-1.95-2.27-.42-3.94.43-.47.17-1.77-.06-2.61-.79-2.94-1.57-5.81-.35-8.87.29-.74-.29-1.84-.52-2.77-.3-1.23-.65-2.45-1.03-3.88.97-.55,1.03-3.02.99-4.79-.05-2.23-2.68-3.7-1.41-6.25.33-.66-.7-1.98-1.17-3.19.18-.29.99-1.04,1.03-1.82.03-.57-.95-1.2-1.7-2.05.08-.17.48-.79.65-1.48.39-1.54.39-2.92-1.57-3.52-1.6-.49-3.21-1.06-4.68-1.85-.79-.42-1.22-1.48-1.97-2.05-.74-.56-1.68-1.23-2.52-1.22-2.06.03-2.3-1.1-2.19-2.68.52.12,1.11.14,1.56.4,3.76,2.07,7.48,4.21,11.24,6.27.49.27,1.16.25,1.75.25.1,0,.21-.54.31-.82-.54-.17-1.08-.34-1.62-.51.76-2.03.24-1.89-.46-4.47-.72-2.66-3.62-5.09-1.04-8.22-1.4-.22-2.38-.38-4.03-.64,1.41-.92,2.2-1.44,3-1.96-.18-.07-.37-.14-.55-.22.59-1.73,1.18-3.46,1.75-5.12-.59.12-1.62.33-3.14.63v-2.76c1.3-.85,2.19-1.43,3.09-2.01-.57-.76-1.04-1.62-1.73-2.24-.84-.75-1.86-1.3-2.79-1.93.31-.53.6-1.03,1.2-2.07-3.62,2.19-6.42-.05-8.2-1.46-2.42-1.92-4.5-2-7.11-1.65.2.37.38.69.57,1.03-1.95.19-3.77,2.63-5.79-.09.51,1.04.99,1.82,1.66,2.39,1.25,1.06,2.64,1.95,3.9,3,2.99,2.52,5.95,5.07,8.89,7.65.39.34.71.83.88,1.32.3.88.47,1.81.57,2.25-2.09,2.74-4.26,5.59-6.49,8.52,1,.94,1.84,1.73,2.67,2.51-2.11,1.03-4.02-.1-4.61-1.64-.5-1.3.58-3.21,1.03-5.13-1.22-1-2.66-2.61-5.65-1.51,1.21.97,2.12,1.69,3.12,2.49-.44.16-.93.35-1.62.61.32.41.6.78,1.05,1.36-1.99.02-3.97,1.52-5.11-1.15-.09-.22-.73-.23-1.12-.3-1.69-.27-3.38-.52-5.17-.8,0-.03.09.58.24,1.54-2.25-1.11-4.3-2.12-6.2-3.06,1.5-.43,2.89-.83,4.73-1.35-3.74-2.47-8.33-4.02-5.91-10.02-.82.36-1.19.53-1.67.74-4.31-11.17-5.85-23.68-15.65-32.71.79,2.19,1.46,4.05,2.05,5.68-2.95-1.66-5.98-3.37-9-5.1-.27-.15-.56-.44-.65-.72-.89-2.9-1.74-5.81-2.61-8.72.25-.23.5-.45.75-.68,2.39,1.64,5.01,3.03,7.12,4.98,2.8,2.58,5.08,5.71,7.81,8.37,1.06,1.04,2.95,1.2,4.09,2.19,4.69,4.1,10.78,3.96,16.27,5.56,11.64,3.4,23.59,5.87,35.03,9.81,8.91,3.07,17.24,7.8,25.83,11.8.45.21.89.47,1.37.58,4.71,1.03,6.38,2.5,6.88,7.16.95,8.83,1.59,17.7,2.44,26.55.95,9.93,1.85,19.86,3.03,29.76,1.16,9.8,2.72,19.56,3.92,29.36.6,4.95.68,9.96,1.2,14.92.67,6.44,1.68,12.84,2.3,19.29.38,3.96.31,7.96.44,11.94h-56Zm28.5-31.78c1.61-.92,3.22-1.84,4.86-2.78-4.55-2.75-4.65-2.76-5.83-.8.72.46,1.45.92,2.19,1.4-.49.89-.86,1.53-1.21,2.18.18,1.62-1.72,4.41,2.92,3.87-1.11-.51-1.65-.77-2.24-1.04,2.11-1.38.23-1.99-.7-2.82Zm-10.85,7.67c.93-.38,1.85-.77,2.78-1.15-.04-.28-.08-.56-.12-.84-1.12-.5-2.24-.99-3.26-1.44.2,1.37.34,2.34.47,3.31-.51-.54-.98-1.12-1.53-1.61-1.81-1.58-1.77-1.96.25-3.22.4-.25.89-1.09.76-1.3-.58-.96.13-1.2.61-1.74.49-.54.71-1.31,1.24-2.38-2.42,1.11-4.3,1.98-6.3,2.89.83,2.94,1.55,5.63,2.37,8.29.19.63.7,1.17,1.06,1.75.75-.72,2.74-.64,1.66-2.55Zm-13.19-3.02c-.95,1.3-.98,2.49.18,3.76,1.4,1.55,2.65,3.22,4.03,4.93.46-.73.96-1.52,1.46-2.3-.46-.56-.89-1.1-1.43-1.76.78-.15,1.3-.26,1.43-.28-.22-1.06-.51-1.97-.59-2.9-.09-1.1.16-2.25-.05-3.31-.12-.64-.84-1.16-1.32-1.78-.34.48-1.39,1.3-1.27,1.88.58,2.76-1.09,2.09-2.54,1.88-.11-.78-.22-1.56-.34-2.38-.9.25-1.64.46-2.39.66-.08-.21-.15-.42-.23-.62.71-.35,1.43-.71,2.27-1.13-1.48-.29-2.78-.55-4.58-.9,1.17,1.96,2.09,3.49,2.99,5.01.96-.3,1.67-.53,2.37-.75Zm12.61-86.35c-.63-.92-1.54-1.76-1.84-2.78-1.03-3.47-1.84-7.01-2.73-10.52-.23-.88-.65-1.75-.67-2.64-.09-3.3-.12-6.59-2.07-9.48-.22-.32-.22-.78-.41-1.12-.24-.41-.55-.79-.88-1.13-1.31-1.38-2.48-.47-3.22-.03-.11,1.15-.18,1.91-.24,2.66.52.14,1.04.29,1.9.53-.65.45-1,.7-1.43,1.01.34.41.68.8,1.12,1.33-.76.08-1.32.14-2.33.26.89.52,1.29.81,1.74.99.48.2,1.01.29,1.95.55-.91.63-1.44,1-1.49,1.03.86,4.32,1.66,8.37,2.52,12.69-.05.02-.53.22-1.03.43.36.43.88.77.97,1.19.56,2.78,1.03,5.58,1.39,7.58-1.26,1.46-2.07,2.4-2.89,3.35l.12-.18c-.75.67-1.5,1.06-1.15,2.52.72,3,.91,6.13,1.43,9.18.18,1.09.63,2.14,1.09,3.16.16.36.69.55,1.04.82l-1.4.93c0,.2,0,.39,0,.59,1.56-.09,3.13-.19,5.13-.31-.95,3.26-2.13,6.43-.34,9.61-3.16-1.16-1.75-4.4-2.44-7.15-1.09,2.18-3.15,3.65-1.23,6.03.22.28.27.84.17,1.21-.56,2.06-.36,3.88.26,6.04.87,3,.51,6.36.73,9.55.25,3.69.93,7.34.43,11.09-.08.63,1.09,1.51,1.81,2.12.39.34,1.05.38,2.36.8-.75-1.02-1.14-1.55-1.63-2.23.94-.18,1.79-.35,2.65-.52.93,1.55,1.77,2.94,2.6,4.32.99-.09,2.35-.21,4.25-.38-1.65,1.77-2.8,3.03.12,3.52.45.08,1.08.42,1.22.79.9,2.29,2.61.31,3.83.8.27-1.13.53-2.27.76-3.24-1.34-.24-2.12-.39-2.91-.53l-.05-.62c.93-.34,1.86-.69,3.38-1.25-.7-1.45-1.04-3.47-2.09-3.96-1.07-.5-2.85.49-4.31.82.05.23.09.45.14.68-1.2-.87-2.4-1.75-3.68-2.68,2.69-2.07,5.41-4.06,7.98-6.22.61-.51,1.11-1.67.99-2.44-.32-2.09-.95-4.13-1.53-6.18-1.32-4.64-2.73-9.26-3.97-13.93-.25-.93.08-2.02.14-3.03-.45-1.14-2.43-2.06-.79-3.7-.43-.77-.86-1.38-1.11-2.05-1.35-3.73-2.66-7.47-3.98-11.21,2.03.21,2.96,1.18,3.22,3.37.28,2.3,1.28,4.51,2.05,7.01.26-.5.61-.84.59-1.16-.32-4.04-.74-8.07-1.03-12.11-.17-2.42-.13-4.85-.23-7.27-.09-1.99-.06-4.02-.43-5.97-.53-2.74-1.47-5.4-2.08-8.13-.28-1.23-.18-2.54-.28-4.14h-4.54c.9,2.24-.9,5.04,1.77,6.77-.25,1.33-.82,2.71-.7,4.03.26,2.99.85,5.94,1.31,8.91Zm14.06,29.78c1.21-5.53,2.39-10.89,3.54-16.25.63-2.96.92-6.03,1.85-8.89,1.14-3.47,2.49-6.84,2.03-10.98-.57.5-1.29.83-1.47,1.35-.77,2.17-1.51,4.36-2.01,6.6-1.61,7.35-3.19,14.7-4.61,22.09-.75,3.9-1.18,7.86-1.62,11.81-.14,1.26-.14,2.81,1.98,2.6.14-.86.58-1.78.36-2.52-.62-2.16-.2-3.59,2.89-3.87-1.36-.89-2.09-1.38-2.95-1.94Zm-43.87-46.88q1.76.46,4.95-4.79c-2.15-.49-4.25-.96-5.71-1.3-.93-1.89-1.75-3.56-2.58-5.22-.4.13-.8.26-1.19.39.19.99.38,1.97.6,3.08-.31.06-.87.17-1.27.24,1.67,2.43,3.26,4.76,5.2,7.6Zm25.81,95.44c2.06-.8,3.55-1.36,5.02-1.97,2.07-.86,4.08-1.85,6.19-2.59.56-.2,1.43.17,2.04.5.59.32,1.02.94,1.88,1.77-.32-1.68-.5-2.58-.67-3.48.18-.1.35-.2.53-.3.77,1.1,1.53,2.2,2.3,3.3.22-.11.44-.23.65-.34-.3-1.04-.6-2.09-.9-3.14.34-.53.72-1.11,1.46-2.27-6.46,2.27-12.34,4.26-18.15,6.43-1.9.71-.95,1.69-.35,2.09Zm.65-8.92c-2.95,1.1-.89,3.62-1.73,5.91,2.5-.84,4.52-1.51,6.64-2.23-1.69-1.27-3.17-2.38-4.91-3.68Zm11.55-12.64c1.73,1.2,3.26.68,5.42-1.93-4.21-3.29-5.97.3-7.95,3.18.83-.41,1.65-.82,2.53-1.25Zm7.06,32.77c1.23-.63,2.28-1.16,3.32-1.7-.12-.22-.23-.44-.35-.67-2.29.44-4.59.88-7.37,1.41,2.12,1.25,4.17,2.45,6.21,3.66.18-.19.35-.38.53-.57-.84-.77-1.68-1.53-2.34-2.13Zm-43.39,7.16c.55,2.29.86,3.88,1.35,5.41.11.34.83.49,1.28.72.19-.49.58-1.01.54-1.48-.09-.96-.41-1.91-.68-3.07-.46-.29-1.14-.72-2.48-1.58Zm-6.55-63.7c.33-.01.65-.03.98-.04.29-1.76.57-3.53.86-5.29-.17-.16-.34-.32-.51-.48-.59.65-1.58,1.25-1.68,1.97-.17,1.24.2,2.56.35,3.84Zm42.92,55.13c-1.2-1.14-2.32-2.2-3.44-3.27.63,3.59.9,3.79,3.44,3.27Zm11.61,10.18c-.51-1.69-.87-2.91-1.38-4.62-.72,1.26-1.14,2-1.47,2.57.79.57,1.51,1.08,2.85,2.04Z"/>
      <path class="cls-1" d="m176.5,92.65c1.2-2.72-.17-4.84-1.82-6.68-1.96-2.19-1.76-2.94-.04-5.29,1.01-1.39,1.98-2.7,3.15-3.97.56-.61.29-2.43-.16-3.47-1.46-3.35-2.2-6.73-1.88-10.42.13-1.42-.3-3-.85-4.35-3-7.43-3.22-14.97-1.33-22.68,1.22-4.99,1.98-10.12,3.59-14.97,1.1-3.3,3-6.47,5.16-9.2.89-1.13.17-2,.75-2.9,1.62-2.5,3.09-5.1,4.6-7.67.18-.31.21-.7.31-1.05,6,0,12,0,18,0-.82,1.02-1.65,2.04-2.47,3.07.14.2.27.4.41.6,2.7-2.18,5.62-2.51,8.8-1.19-.56-.68-1.22-.87-1.72-1.26-.3-.24-.36-.8-.52-1.21,2,0,4,0,6,0,3.16.49,6.32.97,9.48,1.46,0,.24.01.48.02.72h-9.99c-.02.27-.05.54-.07.81.9.42,1.81.84,2.71,1.26-.19.1-.38.2-.57.31.59.84,1.17,1.68,1.87,2.68-.43.13-.72.24-1.03.3-.33.06-.67.07-1,.1.2.31.4.62.6.93,5.29.66,10.58,3.56,15.88-.3.09-.06.04-.3.07-.56-.6-.14-1.2-.27-1.57-.36,2.12-.49,4.37-1.01,6.62-1.54.04-.18.08-.36.12-.53-1.45-.51-2.9-1.02-4.36-1.53.04-.18.09-.36.13-.54,2.51.42,5.02.84,7.72,1.29-1.46-3.04-4.81-.93-6.6-3.05.9-.44,1.94-.95,2.98-1.46,8,0,16,0,24,0,2.35,3.87,4.76,7.71,7.02,11.64.54.94.57,2.18.91,3.57-.88-.04-1.42-.04-1.95-.1-3.43-.37-6.86-.75-10.29-1.14-2.41-.27-4.81-.65-7.22-.77-.87-.04-1.76.6-2.67.78-9.72,1.88-19.44,3.8-29.18,5.55-2.5.45-5.1.34-7.65.54-3.72.28-7.43.6-11.15.9-1.16.09-2.38-.01-3.49.29-4.95,1.37-6.76,5.03-7.23,9.82-.24,2.4-1.12,4.72-1.53,7.11-.3,1.73-.02,3.59-.52,5.24-.62,2.09-1.62,4.11-2.72,6-1.91,3.27-3.03,6.5-3.13,10.48-.08,3.28-.06,6.68-.67,10.01-1.26,6.92-1.11,13.89.17,20.82.39,2.09.87,4.17.85,6.49-1.49-2.16-2.97-4.32-4.38-6.35-.96.76-1.58,1.26-2.2,1.76,0,0,.02,0,.02,0Zm2.27-5.22c1.62-3.13,1.22-3.97-2.87-6.82,1.08,2.57,1.98,4.7,2.87,6.82Z"/>
      <path class="cls-1" d="m260.61,336.08h2.02q-2.85-3.27-2.86-6.41c.83-.06,1.67-.12,3.14-.23-1.97-1.46-3.31-2.17-5.33-1.76-1.65.34-3.5.13-4.97-1.56,2.17.11,4,.21,5.83.31.31-3.15.6-6.14.91-9.3h2.32c-1.27-2.34-2.66-2.81-4.89-1.76l.07.06c-.12-.12-.23-.33-.35-.34-3.76-.17-4.12-2.39-3.14-5.43h4.4v2.5c.13.03.27.06.4.1.19-.99.39-1.98.67-3.42-3.9-.74-7.71-1.47-11.73-2.23.08-.63.16-1.32.19-1.53,1.74.51,3.37.98,5.31,1.55.19-1.34.35-2.51.54-3.83.84.05,1.62.1,2.82.18-1.25-.96-2.19-1.69-3.3-2.54,1.71,0,3.18.42,3.78-.12.59-.54.31-2.04.43-3.35,0,0,.51-.06,1.16-.14-1.6-.99-3.03-1.87-4.59-2.84q-.03-4.27,3.25-4.54c-1.33-.42-2.44-.78-3.57-1.13.27-1.61.5-2.97.75-4.44h2.37c.1-.25.2-.5.3-.76-1.3-.55-2.8-1.81-3.84-1.5-2.05.59-3.38-.5-5.01-.83.21-1.4.39-2.59.59-3.93,1.15-.08,2.47-.16,3.79-.25.09.15.19.31.28.46-.57.33-1.12.71-1.71.99-.56.27-1.32.33-1.7.74-.21.22.18,1,.31,1.53.59-.15,1.19-.45,1.78-.43,1.67.04,3.34.21,5.23.35-.03-.36-.08-1.04-.15-1.91-.89.17-1.56.29-2.86.54.64-1.09,1.01-1.72,1.42-2.42-.32-.34-.86-.9-1.48-1.56,1.47-.37,2.53-.64,3.59-.9-.86-.83-1.72-1.66-2.74-2.64.76-.12,1.42-.22,2.2-.33-.7-2.37-2.57-2.25-4.68-2.06.47-1.93.88-3.57,1.28-5.22.27-.02.54-.04.81-.05-.81-.41-1.61-.81-1.87-.94.15-1.76.22-3.19.4-4.61.21-1.65-1.37-3.33.09-5.03.07-.08-1.22-1.33-1.9-2.05.42-.02,1.1-.06,2.6-.14-1.36-1.18-2.26-1.96-3.33-2.89.92-1.14-1.42-3.9,1.89-4.45-1.65-2.87-4.83-.95-7.5-2.53.78-.31,1.36-.78,1.69-.65,2.06.86,3.24.95,2.14-1.84-.13-.33.23-.86.55-1.91.48,1.87.81,3.16,1.14,4.45.29-.04.57-.08.86-.13.2-.92.41-1.84.64-2.88.51.05,1.03.11,1.63.17-1.09-1.81-2.1-3.49-3.15-5.23v2.72h-4.8c.4-1.68.73-3.08,1.09-4.59,1-.08,2.02-.16,2.77-.22,0-.98-.02-1.65.01-2.32.01-.23.27-.46.26-.69-.18-3.11-.25-6.23-.68-9.31-.12-.86-1.35-1.56-2.53-2.82-.12-1.95-.36-4.65-.4-7.36-.01-.79.52-1.59.83-2.47-.94-1.47-2.09-3.25-3.24-5.04-.47,4.99,1.62,9.72-.34,14.44.56.41,1.15.85,1.74,1.29-.63.44-1.26.89-1.94,1.37,2.95,1.04,1.67,3.46,1.91,5.85-1.74-.37-3.19-.67-4.42-.93-2.01-3.16.07-5.53,1.28-7.79-1.44-.97-2.72-1.84-4.01-2.71l2.72-3.55c.3.1.61.19.91.29-.39-.74-.77-1.48-1.01-1.92.31-1.54.59-2.92.87-4.3-.19-.02-.38-.05-.57-.07-1.29,2.26-2.56,4.53-3.92,6.75-.06.1-.97-.33-1.5-.52,2.13-4.2,2.01-4.99-2.01-8.36-.84-.71-2.27-.73-3.43-1.06-.08.24-.17.48-.25.72-.59-1.43-1.36-2.82-1.7-4.31-.24-1.07-.33-2.6.25-3.35,2.33-2.99,4.7-6.06,7.6-8.45,1.24-1.03,3.79-.47,6.43-.68-.84,2.09-1.42,3.47-1.95,4.88-.97,2.57-.87,2.7,1.85,2.98.4.04.78.21,1.18.32v5.84c-.21-.22-.51-.55-.81-.87-.14.12-.28.24-.42.36.83,1.03,1.66,2.05,2.57,3.18,1.87-1.51,1.79-3.45,1.53-5.42-.34-2.56,1.59-5.78,4-6.59-1.32-3.9-5.63-5.94-10.58-5.01,2.81-2.14,2.9-2.31,6.01-.77,2.27,1.12,4.51,2.51,6.36,4.22,2.48,2.29,3.14,5.16,1.23,8.33-1.22,2.02-1.14,4.11.93,6.26-3.91-.64-1.94-3.71-3.2-5.37-1.57,2.92-2.62,5.68-1.3,9.11.78,2.03.45,4.45.93,6.63.39,1.79,1.01,3.6,1.89,5.2,3.58,6.5,6.86,13.07,7.83,20.58.28,2.16,1.58,4.19,1.88,6.36.34,2.4.08,4.88.08,7.3,1.47-.54,2.28,2.17,2.62,9.3h-2.12c.06,1.13.13,2.21.19,3.28l.37.02c.22-.54.44-1.07.66-1.61.24-.01.48-.03.72-.04,1.51,3.43.64,7.23,1.32,11.06-1.04-.27-1.8-.47-2.96-.77.16,1.4.28,2.52.41,3.65.18,0,.36,0,.53,0,.06-.48.13-.97.19-1.46,1.7.39,2.81,5.01,2.79,11.37-1.05-.48-2.11-.96-3.3-1.51v3.46c1.07-.45,2.1-.88,3.1-1.3,1.74,4.34-.26,8.32,1.65,12.42-1.8-.9-3.01-1.51-4.9-2.45.25,2.01.42,3.41.59,4.81l.64-.02c.17-.68.33-1.35.51-2.08.4.12.83.17.83.26.34,3.91,2.82,7.05,2.79,11.38-.08,9.36,1.24,18.74,1.99,28.11h-4.5v-1.89c1.04-.08,1.87-.14,2.7-.21.05-.25.1-.5.15-.75-1.45-.48-2.9-.96-4.52-1.5-.13,1.34-.19,2.03-.27,2.86-1.11-.54-2.03-.98-2.94-1.43Zm-5.8-101.09c.42-.13.84-.26,1.26-.39-.94-3.5-1.89-7.01-2.83-10.51-.26.07-.52.13-.78.2.78,3.57,1.56,7.13,2.35,10.7Zm3.34,66.72c-.26.17-.52.33-.77.5.31,1.5.62,3,.94,4.49.27-.05.55-.09.82-.14.07-.79.14-1.58.23-2.48.71.04,1.31.07,1.92.11.09-.21.19-.43.28-.64-1.14-.61-2.28-1.23-3.41-1.84Zm1.25-10.22c.63-.04,1.18-.08,2.52-.17-1.61-1.14-2.61-1.84-3.6-2.54-.23.14-.46.29-.68.43.27,1.59.53,3.17.8,4.76.23-.02.45-.04.68-.07.09-.79.18-1.58.28-2.41Zm7.83,33.14c.12-.27.23-.54.35-.81-1.28-.54-2.55-1.07-3.83-1.61-.19.19-.38.38-.57.57.34,1.34.68,2.68,1.02,4.01.23-.05.47-.1.7-.15.09-.7.17-1.4.27-2.16.77.05,1.42.1,2.06.14Zm-2.95-12.66c.96-.08,1.61-.14,2.26-.2.05-.24.1-.47.15-.71-1.14-.49-2.29-.98-4.1-1.75.42,2.13.69,3.46.96,4.8.24-.05.49-.1.73-.15v-2Zm-9.04-8.99c-.62,1.23-1.16,1.82-1.13,2.38.04.56.65,1.09,1.01,1.64.47-.44,1.32-.87,1.34-1.32.02-.66-.56-1.35-1.22-2.7Zm-1.09-46.91l-.83.11c.11,1.48.23,2.96.34,4.44.16-.04.32-.07.48-.11.44-1.01.88-2.02,1.42-3.25-.32-.27-.87-.73-1.42-1.19Zm4,25.15c.98-1.39,1.53-2.18,2.27-3.22-.68-.4-1.42-.84-2.6-1.55.12,1.79.21,2.97.33,4.77Z"/>
      <path class="cls-1" d="m217.49,339c.27-4.37.48-8.74.81-13.11.84-11.11,1.78-22.21,2.58-33.33.72-10.03,1.15-20.08,1.98-30.1.68-8.09,1.77-16.15,2.72-24.64.38,1.78.69,3.25,1.05,4.98h4.07v5.25c-1.35-.19-2.47-.35-3.59-.51-1.55-.23-2.16.3-2.3,2-.67,8.32-1.52,16.62-2.24,24.93-.2,2.3-.24,4.61-.21,6.92.02,1.53,2.29,3.31,3.98,3.39.37.02.72.42,1.08.64-.38.33-.74.71-1.17.98-.12.08-.43-.2-.66-.23-1.23-.15-2.46-.27-3.69-.4v4.61c.37.04.73.07,1.1.11.21-.84.42-1.68.68-2.71h3.67c.11.83.23,1.76.4,3.11.57-1.45.98-2.51,1.43-3.67,1.27-.07,2.65-.14,3.87-.21.49,1.46.91,2.73,1.33,4,.28-.04.56-.08.85-.13.16-.83.33-1.67.56-2.85,1.27.16,2.55.31,3.83.47.05.32.1.65.15.97-2.35-1.11-3.8-.92-3.41,2.22,1.23,0,2.5.06,3.76-.04.37-.03,1.05-.55,1.01-.73-.65-3.13,1.34-2.98,3.68-2.43-.06-.28-.11-.56-.17-.84-1.14-.25-2.29-.5-3.62-.79.27-1.46.54-2.95.83-4.5h4.09c0,1.66,0,3.27,0,4.89,0,.99-.15,2-.02,2.97.51,3.75.58,3.53-3.28,2.8-2.33-.44-4.81-.08-7.22-.08-.04.23-.09.45-.13.68,1.31.22,2.61.44,4.13.69.1.6.26,1.31.32,2.04.27,3.21.09,3.15-2.99,2.58-2.17-.4-4.47-.08-7.28-.08.93,1.34,1.38,1.99,1.83,2.65-.59.26-1.18.52-1.77.78.38.5.69,1.11,1.18,1.44.22.15.82-.27,1.25-.43-.26-.6-.52-1.2-.78-1.8.37-.46.75-.91,1.34-1.64,1.02,2.65,1.13,4.76-.55,6.71,0,0,.06-.05.06-.05-3.15-2.9-4.8-2.45-5.83,1.8-.45-.61-.82-1.1-1.19-1.59l.07.06c.12-.39.23-.78.39-1.3-1.02-.27-2.02-.53-3.01-.79.24-1.41.45-2.67.7-4.13.74-.15,1.6-.32,2.47-.5q-.96-1.68-4.25-1.46c-.65,8.07-1.3,16.13-1.95,24.2.18.04.36.08.54.12.58-1.18.87-2.82,1.82-3.41.96-.59,2.56-.13,3.87-.13,1.08,4.25,1.56,4.66,6.16,5.35.01.22.02.45.03.67-1.01-.11-2.01-.27-3.02-.32-1.09-.06-2.19-.01-3.28-.01-.03.33-.06.67-.09,1,1.99.27,3.97.54,6.51.88-.26,1.69-.67,3.43-.77,5.2-.09,1.66.2,3.34.22,5.02,0,.61-.26,1.22-.41,1.83h-13.5Zm7.73-3.19c.43.19.86.37,1.39.6.17-1.07.32-2,.47-2.93,1.03-.07,1.89-.12,2.92-.19-.61-2.36-2.5-1.78-3.87-1.91-.27-.03-.82,1.46-1,2.29-.15.69.07,1.46.11,2.16-.38-.43-.69-1.05-1.16-1.24-.72-.29-1.57-.28-2.36-.4-.04.69-.37,1.69-.05,2,.45.44,1.41.51,2.13.46.5-.04.96-.55,1.43-.84Zm1.81-42.42c.78,4.13,2.38,5.05,6.09,4.45,1.67-.27,1.6-1.15,1.55-2.2-.1-2.19-4.18-4.31-6.74-3.68-1.45.36-2.98.4-4.46.67-.53.09-1.01.42-1.52.64.1.13.19.26.29.38,1.55-.09,3.1-.17,4.79-.27Zm-5.67,33.03c.99-.06,1.86-.11,2.74-.16.07-.27.14-.55.21-.82-1.27-.37-2.54-.79-3.83-1.04-.25-.05-.91.57-.91.88-.02,1.45-.69,3.16,1.4,4.22.15-1.11.27-2.06.4-3.08Zm9.46,4.39c.43-2.3-.2-3.46-2.64-3.32-.07.72-.14,1.4-.21,2.13.94.39,1.75.73,2.85,1.19Zm-4.54-42.49c-.46-.08-.93-.16-1.39-.24-.17.84-.4,1.68-.43,2.52,0,.11,1.04.25,1.6.38.07-.89.14-1.78.22-2.67Zm15.81,2.79c.32.28.65.56.97.85.56-.54,1.13-1.07,1.69-1.61-.41-.41-.83-.83-1.24-1.24l-1.42,2Z"/>
      <path class="cls-2" d="m239.49,0c-1.04.51-2.08,1.02-2.98,1.46,1.79,2.12,5.13,0,6.6,3.05-2.69-.45-5.2-.87-7.72-1.29-.04.18-.09.36-.13.54,1.45.51,2.9,1.02,4.36,1.53-.04.18-.08.36-.12.53-2.25.52-4.5,1.04-6.62,1.54.37.08.97.22,1.57.36-.03.25.02.49-.07.56-5.3,3.85-10.58.96-15.88.3-.2-.31-.4-.62-.6-.93.33-.03.67-.04,1-.1.31-.06.6-.17,1.03-.3-.69-.99-1.28-1.84-1.87-2.68.19-.1.38-.2.57-.31-.9-.42-1.81-.84-2.71-1.26.02-.27.05-.54.07-.81h9.99c0-.24-.01-.48-.02-.72C222.81.97,219.65.49,216.49,0c7.67,0,15.33,0,23,0Z"/>
      <path class="cls-1" d="m314.49,339c1.16-5.28,1.3-10.55-.38-16.19-.45,2.46-.83,4.6-1.22,6.74,1.05-8.07-.54-15.85-2.29-23.63-1.51-6.71-2.92-13.45-4.37-20.18-.1-.47-.13-.95.23-1.54.32,1.11.67,2.21.95,3.34,3.6,14.43,7.21,28.86,10.79,43.29.67,2.71,1.2,5.45,1.8,8.18h-5.5Z"/>
      <path class="cls-1" d="m239.49,339c.3-1.41.6-2.82.95-4.44,1.18-.05,2.54-.11,4.1-.18.16,1.6.3,3.11.45,4.62h-5.5Z"/>
      <path class="cls-2" d="m260.61,336.08c.92.44,1.83.89,2.94,1.43.08-.83.15-1.51.27-2.86,1.61.53,3.07,1.02,4.52,1.5-.05.25-.1.5-.15.75-.83.06-1.65.13-2.7.21v1.89h-6c.37-.97.74-1.95,1.11-2.92Z"/>
      <path class="cls-1" d="m252.99,339c.26-1.17.51-2.34.81-3.71,1.17-.05,2.49-.11,4.19-.19v3.91h-5Z"/>
      <path class="cls-2" d="m210.49,0c.17.41.22.97.52,1.21.5.39,1.16.58,1.72,1.26-3.19-1.32-6.1-.99-8.8,1.19-.14-.2-.27-.4-.41-.6.82-1.02,1.65-2.04,2.47-3.07,1.5,0,3,0,4.5,0Z"/>
      <path class="cls-2" d="m167.99,339c-.94-2.11.97-2.37,2.04-3.16,1.05-.1,2.1-.21,3.16-.32.42-.05.84-.1,1.25-.15-.03.38-.05.77-.08,1.15-.31.17-.62.34-.93.51l.04-.07c-1.29.76-3.48-.24-3.99,2.04h-1.5Z"/>
      <path class="cls-1" d="m321.49,339c-.15-1.04-.35-2.08-.44-3.13-.07-.76-.01-1.54-.01-2.3.35-.06.71-.11,1.06-.17.47,1.87.93,3.73,1.4,5.6h-2Z"/>
      <path class="cls-2" d="m156.99,339c1.49-.45,2.97-.97,4.5-1.29.24-.05.66.83,1,1.29h-5.5Z"/>
      <path class="cls-1" d="m169.49,339c.51-2.29,2.7-1.29,3.99-2.04-.24.4-.5.79-.71,1.2-.13.26-.19.56-.28.84h-3Z"/>
      <path class="cls-2" d="m172.49,339c.09-.28.15-.58.28-.84.21-.41.47-.8.71-1.2,0,0-.04.07-.04.07.28-.21.56-.42.84-.64.74.87,1.48,1.74,2.21,2.61h-4Z"/>
      <path class="cls-1" d="m275.24,66.97c.85-.61,1.62-1.42,2.56-1.79,2.96-1.14,2.4-3.35,1.68-5.46-1.5-4.43-3.19-8.8-4.71-13.23-.81-2.36-1.99-4.69-.92-7.34.15-.37-.58-1.01-.6-1.53-.04-.91-.15-2.39.32-2.65,1.61-.89,1.73-2.36,2.09-3.79,0,0-.04.08-.04.08.28.38.55.77.83,1.15.19-.1.37-.2.56-.31-1.56-2.93-3.12-5.86-4.81-9.05,1.1.94,2.06,1.76,3.02,2.58.13-.08.26-.17.39-.25-1.65-2.41-3.3-4.83-5.38-7.86,2.29,1.65,4.36,2.62,5.63,4.21,1.33,1.65,1.89,3.92,2.79,5.92.25-.07.51-.13.76-.2-.39-1.52-.79-3.04-1.07-4.12,1.43.28,3.1.6,4.77.93.16-.21.33-.42.49-.63,2.01,4.58,4.25,9.08,5.99,13.76,2.32,6.23.53,12.47-.62,18.67-.93,5.01-2.9,9.82-2.26,15.14.32,2.66-.35,5.43-.65,8.15-.04.37-.54.69-.83,1.04-.3-.4-.66-.76-.88-1.2-.29-.58-.47-1.21-1.14-1.84,1.77,3.71-2.07,5.66-1.97,8.75-.35-.06-.71-.12-1.06-.17.4-3.23.87-6.45,1.16-9.69.12-1.36.06-2.79-.27-4.11-.31-1.26-1.08-2.41-1.62-3.61-.88-1.94-2.25-2.55-4.22-1.59v.05Z"/>
      <path class="cls-1" d="m223.5,63.56c-2.18-.35-4.37-.67-6.54-1.05-1.31-.23-2.59-.58-3.89-.87-.08.22-.16.45-.24.67.76.64,1.51,1.27,2.27,1.91-.08.23-.17.47-.25.7-3.73-.59-6.56-5.02-11.38-2.83,1.25.21,2.08.35,2.9.48-.66,2.07-3.49,3.43-6.15,2.57-1.91-.62-3.07.04-4.04,1.44-.88,1.26-1.75,2.57-2.33,3.97-.25.6.24,1.5.39,2.26-1.95.39-3.48-.75-3.95-3.08-.37-1.85-.59-3.73-.88-5.6-.32.05-.63.1-.95.15.13,1.18.26,2.36.38,3.55-.16.04-.32.08-.48.12-.65-2.57-1.31-5.13-2.03-7.96-.7.5-1.23.88-1.76,1.26l-.72-.44c1.77-3.02,3.55-6.04,6.09-10.38,3.52-3.17,5.84-4.15,8.94-3.1-1.49,1.42-4.6-.64-5.32,2.44,3.09-.2,6.02-.4,8.96-.59.01.16.02.32.03.49-3.17.63-6.49.87-9.45,2.03-2.07.81-3.89,2.68-5.34,4.47-.54.67.28,2.44.47,3.66.3-4.97,2.24-7.3,6.91-8.1,3.88-.67,7.73-2.2,11.59.03.21.12.59.14.66.31,1.35,2.91,3.96,2.33,6.33,2.23,3.18-.13,3.71,2.4,4.78,4.17-4.88-1.36-9.79-2.73-14.7-4.1-.56-.16-1.33-.14-1.63-.51-2.3-2.79-4.84-1.02-7.24-.36-.57.16-1.11,1.24-1.24,1.96-.35,2.03-.51,4.1-.67,6.17-.05.62.12,1.25.22,2.14.66-.35,1.36-.5,1.43-.8.54-2.46,2.62-2.88,4.51-3.31,4.77-1.08,9.53-1.18,14.29.28,1.96.6,4.1.64,6.04,1.3,1.41.48,2.61,1.57,3.91,2.38,0,0,.06-.08.06-.08Z"/>
      <path class="cls-1" d="m250.49,154.5c-.08-1.02-.43-2.1-.19-3.03.38-1.5.86-3.15,1.84-4.27,1-1.14,2.55-2.11,4.02-2.46,2.71-.65,3.88-2.5,4.95-4.74,1.84-3.85,3.81-7.64,5.73-11.46.25.12.5.23.75.35-.39.93-.63,1.96-1.2,2.77-4.01,5.65-3.12,11.96-2.72,18.27.16,2.51-.17,5.09-.54,7.6-.16,1.1-.94,1.68-2.44,1.18-1.05-.35-2.42.23-3.64.44-.92.16-1.84.4-3.38.75-.11,1.58-.25,3.69-.4,5.78-3.1-1.66-3.2-1.61-4.42,2.05-2.69.19-4.86-1.16-6.89-2.67-.44-.33-.57-1.51-.39-2.17,1.28-4.6,4.97-6.74,9-8.46-.86,1.46-1.73,2.93-2.59,4.39.34.25.68.49,1.02.74,1.99-2.21,3.98-4.43,5.97-6.64-.23-.25-.46-.51-.69-.76-1.27.78-2.53,1.56-3.8,2.34Z"/>
      <path class="cls-1" d="m220.72,85.9c.54.83,1.22,1.59,1.58,2.49.92,2.29,2.85,3.1,4.97,3.73.32.09.69.17.91.38,2.14,2.02,4.2,2.34,6.58.22.44-.39,2.12.05,2.81.62,1.25,1.04,2.33,2.37,3.18,3.76.34.56-.08,1.59-.16,2.4-1.12-.18-2.98-.04-3.22-.6-1.05-2.46-2.45-1.93-4.11-.98-1.22.69-2.43,1.41-3.69,2.04-.49.24-1.11.44-1.63.36-3.16-.52-6.31-1.14-9.46-1.69-2.13-.37-1.84-2.06-1.91-3.5-.06-1.22-.71-2.83,1.45-3,1.73-.14,1.9-1.25,1.75-2.64-.1-.95-.11-1.91-.16-2.87.37-.24.74-.48,1.12-.71Z"/>
      <path class="cls-1" d="m207.5,114.52c2.7-.87,4.88-1.2,7.52-.58,3.94.93,8.11.88,12.19,1.27,2.3.22,4.59.58,6.89.71,5.35.31,10.71.52,16.06.8.65.03,1.29.21,2.04.33-2.91,2.22-15.42,3.46-21.76,1.97h5.69c-2.17-1.51-8.4-2.2-10.38-1.15.83.65,1.52,1.2,2.35,1.86-1.15-.12-2.24-.25-3.33-.36-2.6-.26-5.24-.33-7.8-.83-1.99-.39-3.91-1.24-5.81-2.02-1.14-.47-2.18-1.18-3.66-2Z"/>
      <path class="cls-1" d="m251.34,62.86c-1.23.67-2.44,1.34-4.25,2.33.24-1.45.35-2.11.54-3.3-2.04.7-3.74,1.28-5.44,1.86-.12-.25-.25-.51-.37-.76,1.67-.85,3.26-1.97,5.02-2.5,5.65-1.71,11.48-1.94,16.72.89,4.04,2.18,7.86,5.17,7,11.43-1.06-.93-2.4-1.52-2.67-2.44-1.07-3.56-4.21-4.92-6.76-6.92-.3-.23-1.21-.26-1.3-.09-1.42,2.71-3.93.63-5.84,1.26-.63.21-1.79-1.16-2.65-1.76Z"/>
      <path class="cls-1" d="m275.24,66.92c-.9,1.02-1.8,2.03-2.37,2.68-.16-.63-.32-1.76-.74-2.79-1.34-3.29-2.81-6.54-4.13-9.84-.21-.51.12-1.24.21-1.88-1.88-1.38-3.58-1.02-5.4,1.13-.3-1.08-.83-1.99-.59-2.27.52-.61,1.58-1.4,2.13-1.22,2.77.91,5.45,2.11,8.16,3.2,0,0-.07-.08-.07-.08.3,3.27.59,6.55.87,9.66,1.32-2.06-.49-5.49,2.55-7.69.52,1.25.96,2.32,1.4,3.38-.14.14-.27.29-.41.43-.61-.35-1.23-.7-2.35-1.35.28,2.44.52,4.55.76,6.67,0,.01,0-.04,0-.04Z"/>
      <path class="cls-1" d="m241.68,58.87c.44-1.4.72-2.25.99-3.1h-3.01c.75-1.96,3.01-2.97,4.12-2.46,1.93.88,3.29.16,4.92-.16.69-.14,1.46.1,2.84.22-.76.81-1.38,1.76-1.62,1.68-1.82-.67-2.42.6-3.03,1.77-1.2,2.31-3.15,2.09-5.22,2.06Z"/>
      <path class="cls-1" d="m251.22,321.72v5.05c-4.72.54-5.58-.43-4.76-5.05h4.76Z"/>
      <path class="cls-1" d="m231.5,217.18c-.45.57-.86,1.09-1.49,1.89,2.31.51,4.69.88,3.25,3.97-1.51,3.23-3.36-.33-5,.5.2-4.77,1.22-6.83,3.24-6.36Z"/>
      <path class="cls-1" d="m233.16,324.71c.21-1.5.42-3,.63-4.58,1.59.17,2.96.32,4.34.47,1.08,5.38.64,5.75-4.97,4.11Z"/>
      <path class="cls-1" d="m256.78,315.36c.45,1.52,1.12,3.02,1.28,4.58.15,1.49-1.07,1.67-2.23,1.31-.92-.29-1.79-.76-2.95-1.27.09-1.31.19-2.76.3-4.26,1.39-.11,2.54-.2,3.67-.3,0,0-.08-.06-.08-.06Z"/>
      <path class="cls-1" d="m252.18,275.7c-1-.32-1.75-.56-2.5-.79-.7-.21-1.4-.41-2.31-.68.11-1.43.23-2.95.37-4.7,1.58.24,3,.45,4.43.66v5.51Z"/>
      <path class="cls-1" d="m251.48,301.19c-1.54-.49-3-.95-4.62-1.46.12-1.56.24-3,.35-4.42q5.06.09,4.27,5.88Z"/>
      <path class="cls-1" d="m222.42,313.36h4.22c-.34,5.38-.33,5.34-3.75,5.04-1.47-.13-1.93-.55-1.18-2.01.42-.82.45-1.85.71-3.03Z"/>
      <path class="cls-1" d="m235.33,272.66c.33-1.55.62-2.88.92-4.27,1.37.09,2.57.18,3.97.27v5.51c-1.76-.55-3.22-1-4.89-1.52Z"/>
      <path class="cls-1" d="m230.08,281.07c1.12.13,3.03-.16,3.56.56.65.89.16,2.62.16,4.44-1.47.09-2.95.27-4.41.21-.29-.01-.86-1.01-.76-1.42.27-1.14.82-2.21,1.46-3.8Z"/>
      <path class="cls-1" d="m231.98,306.55c2.24,1.08.31,3.02.85,4.48.04.11-1.08.98-1.6.92-1.44-.15-3.56.67-3.66-1.99,0,0-.08.08-.08.08.53-.97,1.06-1.94,1.58-2.91.91-.19,1.94-.41,2.96-.63,0,0-.06.05-.06.05Z"/>
      <path class="cls-1" d="m241.22,308.19h3.77v5.33c-1.69-.28-3.17-.53-4.79-.8.34-1.52.65-2.91,1.02-4.53Z"/>
      <path class="cls-1" d="m237.04,247.32c.7-1.58,1.05-3.12,1.98-4.11.46-.49,2.79-.25,2.92.13.49,1.43.42,3.04.6,4.93-1.99-.34-3.41-.58-5.49-.94Z"/>
      <path class="cls-1" d="m224.57,268.44c1.52-.13,2.81-.25,4.08-.36.59,5.56.38,5.77-4.56,4.42.15-1.27.3-2.56.47-4.06Z"/>
      <path class="cls-1" d="m237.47,235.85c-1.83-.14-3.28-.25-4.92-.37.51-1.5.93-2.74,1.4-4.12,1.09-.16,2.27-.33,3.83-.56-.1,1.69-.2,3.3-.31,5.06Z"/>
      <path class="cls-1" d="m243.48,256.43h3.56v5.38c-1.61-.35-2.93-.65-4.36-.96.29-1.58.53-2.92.8-4.42Z"/>
      <path class="cls-1" d="m318.53,320.96c-.69-1.36-1.6-2.66-2.03-4.11-1.37-4.52-2.57-9.09-3.8-13.66-.16-.58-.09-1.21.38-1.91.62,2,1.21,4.02,1.89,6,.19.56.64,1.02.98,1.53.09,1.09.05,2.21.29,3.27.68,2.99,1.47,5.95,2.22,8.92l.08-.05Z"/>
      <path class="cls-1" d="m231,260.41c.32-1.48.65-2.96.99-4.52,1.11-.08,2.23-.17,3.35-.25.13,6,.58,5.31-4.34,4.77Z"/>
      <path class="cls-1" d="m227.44,317.81c.25-1.71.45-3.15.68-4.72h4.49c-.22,1.93-.43,3.69-.63,5.45-1.47-.23-2.93-.47-4.54-.73Zm3.84-.74c.68-2.03.46-3.14-1.75-3.04-.23.82-.43,1.57-.68,2.47.86.2,1.55.36,2.43.57Z"/>
      <path class="cls-2" d="m318.45,321.02c-.75-2.97-1.54-5.94-2.22-8.92-.24-1.06-.2-2.18-.29-3.27,0,0-.1.08-.1.08.53.71,1.31,1.35,1.54,2.15,1.01,3.45,1.87,6.95,2.91,10.93-.98-.51-1.41-.74-1.84-.96Z"/>
      <path class="cls-1" d="m235.71,279.53c.2-1.7.35-2.97.5-4.27.28.08.55.14.55.16-.35,2.47-.24,4.41,3.16,3.08.16-.06.56.51.94.87.33-.64.62-1.21.67-1.31,1.4.77,2.74,1.51,4.09,2.25-.02.16-.03.31-.05.47-3.29-.42-6.58-.84-9.86-1.25Z"/>
      <path class="cls-1" d="m240.35,316.82c-.03-.73-.07-1.47-.11-2.48,1.54.08,2.96.15,4.76.24-1.12,1.87,2.18,4.66-1.61,5.56-1.56.37-3.05-1.57-3.03-3.4,1.07.74,2.14,1.48,3.21,2.22.27-.18.55-.36.82-.54-.29-.85-.57-2.41-.89-2.42-1.04-.03-2.1.5-3.15.82Z"/>
      <path class="cls-1" d="m176.48,92.65c.23,1,.61,1.99.67,3.01.14,2.22.04,4.45.19,6.67.15,2.32,1.25,4.05,3.43,5.12.6.29.9,1.19,1.06,2.01-2.45-1.01-4.53-2.36-4.73-5.19-.27-3.87-.4-7.74-.59-11.62,0,0-.03,0-.03,0Z"/>
      <path class="cls-1" d="m222.09,70.52c.47-2.32.94-4.64,1.41-6.96,0,0-.06.08-.06.09.37-.53.73-1.06,1.12-1.61,1.49,2.19,1.52,5.51-.05,7.04-.66.64-1.65.93-2.49,1.38l.07.06Z"/>
      <path class="cls-1" d="m298.46,239.89c.77,5.21,1.55,10.42,2.32,15.63-.17.03-.34.05-.5.08-1.02-5.18-2.03-10.36-3.05-15.55.41-.06.82-.11,1.23-.17Z"/>
      <path class="cls-1" d="m233.87,277.39c-.3,1.99-.63,3.56-3.08,2.14-.84-.48-2.23.04-3.35-.03-1.01-.06-2.01-.31-2.94-.81,1.74-.33,3.47-.66,5.21-.97.22-.04.55-.01.69.13,1.29,1.29,2.4,1.06,3.48-.47Z"/>
      <path class="cls-1" d="m203.46,109.3c.54-4.83,3.2-8.03,6.78-10.66-2.22,3.48-4.43,6.97-6.78,10.66Z"/>
      <path class="cls-1" d="m228.37,235.39h-2.43c.39-2.52.76-4.93,1.14-7.33.28-.03.55-.05.83-.08.15,2.43.3,4.87.46,7.42Z"/>
      <path class="cls-1" d="m235.15,58.81c-1.79,0-3.59-.07-5.37.02-1.31.07-2.61.44-3.93.52-.41.03-.86-.42-1.28-.64.33-.38.63-1.03,1-1.07.98-.13,2-.06,2.98.06,2.17.26,4.33.6,6.49.9.04.07.08.14.11.21Z"/>
      <path class="cls-1" d="m225.08,306.77s-.07-.06-.07-.06c-.3.12-.8.18-.88.39-.37.94-.62,1.93-.92,2.91.89.04,1.79.11,2.68.12.53,0,1.06-.06,1.59-.09,0,0,.08-.08.08-.08-.4.65-.81,1.3-1.43,2.3-1.15-.29-2.72-.69-4.4-1.12.14-1.48.27-2.91.43-4.64,1.04.1,1.98.18,2.92.27Z"/>
      <path class="cls-1" d="m247.82,289.22c1.51.14,2.65.25,3.86.37-.45,1.54-3.93-.36-2.58,2.45.42.88,2.06,1.16,3.15,1.72-.06.26-.11.52-.17.78-1.42-.24-3.46,0-4.1-.84-.72-.93-.16-2.84-.16-4.48Z"/>
      <path class="cls-1" d="m276.01,100.02v3.61c-.14-.01-.28-.02-.42-.04.31,1,.63,2,1.1,3.5-1.29-1.02-2.06-1.64-3.3-2.62.83-1.36,1.76-2.88,2.68-4.4l-.07-.06Z"/>
      <path class="cls-1" d="m230.99,261.84c1.19-.08,2.37-.16,3.54-.24.99,4.94.25,5.75-4.9,4.41,1.1-.4,1.56-.67,2.03-.7.77-.05,1.63.27,2.3.02.32-.12.6-1.55.38-1.72-.59-.46-1.46-.58-2.22-.81-.37-.11-.75-.17-1.13-.25,0-.24,0-.47,0-.71Z"/>
      <path class="cls-1" d="m252.66,332.18c1.79,0,3.13.39,3.75-.11.57-.46.36-1.88.5-2.92.81.04,1.34.88,1.21,3.37-.03.62-1.16,1.79-1.44,1.69-1.35-.46-2.59-1.27-4.03-2.03Z"/>
      <path class="cls-1" d="m243.45,229.59c-1.58-.23-3.16-.46-4.98-.72-1.26,2.51-3.19-.06-4.9.32,0-.24-.01-.47-.02-.71h9.95c-.01.37-.03.74-.04,1.11Z"/>
      <path class="cls-1" d="m272.59,118.11c-1.08,3.03-2.16,6.05-3.24,9.08-.28-.1-.56-.2-.83-.29l3.17-9.13c.3.12.6.23.9.35Z"/>
      <path class="cls-1" d="m229.12,241.51c1.23-.64,2.69-1.39,4.08-2.1,1.18.5,2.64,1.11,4.09,1.72,0,.13,0,.25,0,.38h-8.18Z"/>
      <path class="cls-1" d="m304.65,276.82c-2.12-1.22-1.47-3.02-.89-5.07,2.95,1.32,2.24,3.15.89,5.07Z"/>
      <path class="cls-2" d="m240.35,316.82c1.05-.32,2.11-.85,3.15-.82.32,0,.59,1.57.89,2.42-.27.18-.55.36-.82.54-1.07-.74-2.14-1.48-3.21-2.22,0,0,0,.08,0,.08Z"/>
      <path class="cls-1" d="m282.38,87.88c-.73,1.75-1.46,3.5-2.29,5.49-1.25-2.33-.43-4.53,2.29-5.49Z"/>
      <path class="cls-1" d="m272.49,55.94c-1.68-1.31-3.36-2.62-4.78-3.73,2.54-.66,5.56,1.33,6.3,4.91-.66-.52-1.12-.89-1.58-1.25,0,0,.07.07.07.07Z"/>
      <path class="cls-1" d="m275.66,31.18c-.17.18-.41.53-.51.5-.62-.2-1.49-.32-1.75-.77-.66-1.16-1.04-2.48-1.54-3.73l.91-.33c.95,1.48,1.89,2.96,2.85,4.43,0,0,.05-.08.05-.08Z"/>
      <path class="cls-1" d="m222.02,70.46c-1.31,2.48-2.62,4.95-3.93,7.43l-.84-.47c.42-.65.83-1.3,1.28-1.99-.39-.08-.68-.14-.87-.17,1.45-1.55,2.94-3.14,4.43-4.73,0,0-.07-.06-.07-.06Z"/>
      <path class="cls-1" d="m251.75,332.83c-2.42.79-4.41.32-5.04-1.28,1.79.2,3.47.4,5.15.59-.04.23-.08.46-.12.69Z"/>
      <path class="cls-1" d="m301.49,214.39c2.23.82,4.46,1.64,6.69,2.46l-.31.85c-2.23-.83-4.45-1.66-6.68-2.49l.3-.82Z"/>
      <path class="cls-1" d="m276.08,100.07c-.82-1.64-.68-3.11.97-4.57.89,1.93.93,3.42-1.04,4.51,0,0,.07.06.07.06Z"/>
      <path class="cls-1" d="m235.15,282.45c1.1,3.15,1.26,3.26,4.19,3.14.39,1.4-.04,1.89-1.42,1.28-1-.44-1.95-.96-3.25-1.6.1-.59.25-1.49.48-2.82Z"/>
      <path class="cls-1" d="m302.1,267.21l-1.19-7.73c.26-.04.52-.07.79-.11.35,2.61.7,5.22,1.05,7.83-.21,0-.43,0-.64,0Z"/>
      <path class="cls-1" d="m184.98,69.56c1.48.76,2.94,1.52,4.2,2.17-4.27.6-4.39.54-4.2-2.17Z"/>
      <path class="cls-1" d="m248.28,174.23c-1.56.94-3.12,1.89-4.68,2.83-.17-.28-.34-.56-.51-.84,1.54-.97,3.08-1.94,4.63-2.91.19.31.37.61.56.92Z"/>
      <path class="cls-1" d="m196.71,330.65c.03-.06.05-.11.05-.16.99-.11,1.98-.21,3.75-.4-.9,1.47-1.36,2.22-1.9,3.1-.78-1.05-1.34-1.79-1.9-2.54Z"/>
      <path class="cls-2" d="m231.18,301.48c.26.6.52,1.2.78,1.8-.43.16-1.03.58-1.25.43-.5-.33-.8-.94-1.18-1.44.59-.26,1.18-.52,1.77-.78,0,0-.12,0-.12,0Z"/>
      <path class="cls-1" d="m245.94,274.27c-.04.94-.08,1.82-.13,2.7-.18.04-.35.09-.53.13-.19-.8-.13-1.93-.64-2.32-.73-.56-1.87-.58-2.71-1.35,1.25.26,2.49.53,4,.84Z"/>
      <path class="cls-2" d="m299.56,227.29c.06-.34.12-.67.18-1.01.21.26.42.51.63.77-.3.09-.6.18-.9.27,0,0,.09-.03.09-.03Z"/>
      <path class="cls-2" d="m137.42,289.83c.35.96.7,1.92,1.09,2.99-.96.95-2.82.24-3.65-1.86-1.37-3.49-2.67-6.86-6.41-8.75-1.05-.53-2.06-2.23-1.09-4.08.62-1.18.74-2.62,1.21-4.41-1,.43-1.53.66-2.37,1.03.39-1.89.73-3.54,1.06-5.15-2.9.1-3.84-2.25-2.51-7.18-.59.09-1.1.16-1.71.25-.53-3.13-1.15-6.35-1.55-9.6-.08-.69.66-1.49,1.16-2.52-3.61-2.74-3.97-6.12-.75-9.73-2.09-.97-1.58-2.64-1.18-4.03.88-3.03,3.04-5.79,1.75-9.21-.66-.12-1.33-.24-2.12-.39,1.54-2.28,2.93-4.34,4.55-6.74-.2-.36-.69-1.26-1-1.82,1.68-1.09,3.13-2.03,4.58-2.97.2-.13.4-.41.57-.4,3.24.28,4.05-2.61,5.75-4.34.57-.58,1.28-1.04,1.98-1.6-.39-3.93,4.4-2.66,5.25-4.93,1.52.98,2.13.18,2.65-.91.21-.44.4-.87.73-1.58.69.49,1.24.89,1.85,1.33.11-.13.32-.29.41-.49.74-1.68.53-4.13,3.47-3.98.4.02.85-.85,1.38-1.42.13.83.23,1.44.4,2.46.49-.66.74-1,1.04-1.4.8.45,1.61.91,2.47,1.39-.27-2.21-.5-4.15-.79-6.53,3.41,1.24,6.73,2.44,10.4,3.77-2.06,1.07-1.73,3.61-3.89,4.55-.76.33-.48,2.64-1.29,3.32-1.49,1.25-1.76,2.71-2.04,4.41-.13.8-1.02,1.47-1.8,2.51.54.66,1.28,1.57,2.13,2.61-.61.56-1.38,1.26-2.38,2.16.75.25,1.25.41,1.92.63-.47,1.05-.93,2.07-1.46,3.25,1.67.95,1.08,1.94-.31,3.11-1.26,1.06-2.31,2.38-3.45,3.58.13.22.26.44.4.66-.81-.36-1.63-.71-2.69-1.18.67,2.61,1.24,4.89,1.84,7.17.51,1.94.95,3.91,1.6,5.81.48,1.41.3,2.43-1,3.18-.64.54-1.29,1.09-1.94,1.64-.93.82-1.87,1.64-2.87,2.52-.05-.37-.12-.92-.29-2.22-.94,1.34-1.53,2.19-2.16,3.08-.48-.24-1.14-.57-1.71-.85-.82-2.23,1.08-3.42,2-4.99-2.14-.83-4.93-.2-6.14-3.52-.49.87-1.61,2.16-1.36,2.53,1.68,2.52-.25,2.67-1.89,3.15,2.99,1.06-.24,3.66,1.75,5.41.59-.6,1.21-1.23,2.25-2.28.27.27.76.76,1.21,1.2-1.37.99-2.25,1.63-3.14,2.27.64.37,1.28.74,1.65.95.72,1.49,1.37,2.81,2.09,4.29,0,1.68-1.77,3.47-.3,5.75.29.45-.85,1.82-1.34,2.78.09.02.53.1.66.13.13.97.25,1.82.41,2.95-.21.1-.78.36-1.34.62.04.13.09.39.13.38,1.86-.06,1.63,1.48,1.18,2.19-1.11,1.76-.65,3.06.67,4.22-.12.29-.13.52-.24.57-1.09.54-2.33.89-3.27,1.61-.86.67,1.02,1.49.08,2.7-.58.75-.09,2.33-.09,3.53-2.14-1.48-3.66-1.01-6.19,1.9.72.76,1.44,1.52,2.24,2.37.76-.1,2.3-1.53,1.95.94v-.19c-.1.49-.19.98-.28,1.47,0,0,.07-.1.07-.1Zm6.82-56.3c-1.23.8-2.04,1.33-2.86,1.86.45.51,1.19,1.52,1.31,1.45,1.03-.59,1.94-1.38,2.89-2.11-.1-.17-.2-.35-.3-.52.54.08,1.07.15,1.82.26-.6-.92-1.03-1.6-1.54-2.39-.35.49-.56.78-.78,1.1-1.33-2.26,1.31-2.16,2.1-3.58-.82-.47-2.16-1.48-2.35-1.3-1.19,1.15-2.13,2.56-3.23,3.99.87.37,1.6.68,2.94,1.25Zm3.1,4.01c-2.18.47-3.41.74-5.42,1.17,1.68.79,2.74,1.49,3.89,1.7.28.05.84-1.54,1.53-2.87Z"/>
      <path class="cls-2" d="m180.21,296.39c-1.1-1.14-1.97-2.27-1.69-4.11.14-.91-.64-1.96-1.03-2.93-.23-.57-.76-1.15-.71-1.68.25-2.52-.77-4.81-1.18-7.2-.32-1.83-1.15-3.57-1.69-5.37-.21-.68-.23-1.42-.38-2.12-.13-.63-.12-1.59-.51-1.83-3.49-2.12-2.57-5.9-3.51-8.97-.2-.65-.36-1.32-.61-1.95-.36-.89-1.25-1.84-1.09-2.59.6-2.78-.76-3.74-3.12-3.9.7-3.37,0-6.33-1.87-8.98-1.34-1.89-.88-4.83-1.77-6.55-.94-1.82,1.92-4.75-1.66-5.5-.04,0,.29-1.56.35-2.41.03-.44-.14-.89-.27-1.57.42-.51,1.08-1.31,1.95-2.36-1.58-.26-2.75-.46-4.5-.75,2.03-1.68,5.67-.87,5.3-4.6,1.98.38,4.24,1.14,4.1-2.27-.01-.32.83-.75,1.34-.99,1.02-.48,2.13-.77,3.12-1.31,1.97-1.08,3.97-2.15,5.79-3.47.99-.72,1.63-1.93,2.63-3.16.15.11.98.44.98.77,0,.76-.42,1.51-.71,2.39h1.34c-.19.73-.35,1.32-.51,1.92.52-.21,1.05-.43,1.85-.76-.05.9-.09,1.67-.13,2.47,1.12.69,2.33,1.42,3.73,2.28-1.78.75-3.37,1.42-5.26,2.22.66.87,1.21,1.59,1.9,2.49-.64.29-1.5.67-2.35,1.06.26.18.52.35.78.53,1.46.32,2.92.63,4.38.95-.08.23-.15.46-.23.69-2.43-.68-2.44-.66-2.74,3.38h3.35c-.07.36-.17.88-.26,1.29-1.5.8-3.61-2.24-4.55,1.04-.84,2.91,1.31,3.25,3.52,3.98-.79.69-1.51,1.07-1.78,1.65-.22.47-.11,1.48.24,1.75,1.62,1.22,1.85,3.11.1,4.08-1.59.88-1.2,2.13-1.25,3.38-.03.61-.06,1.21-.09,1.82-.62-.24-1.24-.48-1.99-.76-.21.57-.45,1.25-.88,2.43,1.73-.46,3.07-.81,3.96-1.04.41,1.17.84,2.42,1.21,3.48-.96,1.04-2.27,2.45-3.58,3.87q1.81,2.42.42,3.81c.5.21.93.39,1.56.65-1.08.79-1.95,1.42-2.82,2.05l.36.7c.8-.29,1.61-.58,2.64-.96.48,2.17-.04,4.06-1.18,5.84-1.83-.89-3.66-1.76-5.48-2.64,1.23,2.32,2.9,3.58,5.45,2.6.23.22.47.45.7.67-.64.44-1.29.89-2.2,1.52,1.46.53,2.55.93,3.64,1.33-.05.17-.11.35-.16.52-.37.02-.74.04-1.12.06q1.48,5.12-1.55,6.33c4.38,3.78,4.43,4.14,1.08,7.92,1.81.53,2.16,1.47,1.28,3.22-.5,1-.33,2.35-.49,3.83-.15.03-.84.18-1.91.4.6.4.97.65,2.04,1.37h-2.34.07Z"/>
      <path class="cls-2" d="m151.69,244.46c.65-.55,1.3-1.1,1.94-1.64.8.32,2.06.41,2.34.99.98,2.01,1.54,4.22,2.42,6.28,1.38,3.2,3.05,6.28,4.29,9.53.98,2.57,1.5,5.32,2.23,7.99.09.32.2.66.37.94.52.88,1.34,1.68,1.58,2.63,1.27,4.92,2.49,9.86,3.55,14.83.57,2.68.57,5.48,1.25,8.12.39,1.53,1.4,2.78-.38,4.1-.13.1.91,1.78,1.58,3.07v4.51c-1.14-.3-2.65-.7-4.45-1.17-3.03.57-3.72,2.88-2.34,6.25-1.13-.31-2.05-.68-2.12-.57-1.38,2.42-2.94,1.44-4.91.74-1.05-.37-2.67.78-3.99,1.33-.79.33-1.51.82-2.89,1.59.71-2.39,1.22-4.11,1.72-5.82-.23-.13-.47-.25-.7-.38-.74,1.13-1.48,2.25-2.23,3.39-.16-.52-.38-1.23-.73-2.35-.37,1.02-.59,1.65-.82,2.28-.18.05-.36.1-.54.15-.17-.71-.72-1.78-.45-2.08.9-.98-1.11-3.64,1.95-3.36.43.04,1.27-.83,1.39-1.39.52-2.45.85-4.93,1.27-7.52.74-.13,1.54-.28,1.98-.36-.34-1.11-.68-2.23-1.02-3.35.31-.09.63-.17.94-.26.16.69.31,1.38.58,2.57.74-.92,1.24-1.55,1.79-2.23-.86-.57-1.46-.97-2.61-1.73.71-.47,1.3-.78,1.77-1.22.36-.34.89-.97.78-1.27-.8-2.16.16-3.87.89-5.83.72-1.93.44-4.23.68-6.37.06-.56.38-1.09.55-1.56-.3-.16-.94-.29-1.05-.6-.86-2.53.31-4.8.36-7.23.25,0,.5,0,.76,0-.58-.33-1.17-.66-1.27-.71-.13-1.76-.24-3.11-.34-4.46-.25-.06-.51-.13-.76-.19.74-.34,1.49-.68,2.59-1.18-2.16-.77-4.12-1.47-6-2.13.11-1.21.21-2.24.32-3.46.44-.15,1.11-.37,1.18-.39-.99-.68-2.19-1.64-3.51-2.35-.55-.29-1.38-.05-2.31-.05-1.6-2.4,2.72-.6,2.06-2.29,1.49.41,2.84.78,4.2,1.15.03-.13.07-.27.1-.4-1.47-.7-3.23-1.1-4.34-2.17-1.31-1.26-1.26-3.02.33-4.38Zm7.47,64.23c-.5-1.4-.84-2.34-1.41-3.91-.75,1.47-1.07,2.09-1.44,2.8.83.32,1.56.61,2.85,1.11Z"/>
      <path class="cls-2" d="m112.6,263.24c-1.84-.93-4.56-.82-2.73-4.49-1.09.58-1.63.86-2.31,1.22-.03-.48-.15-.81-.04-.93,1.48-1.61.84-3.52.61-5.27-.35-2.65-1.08-5.24-1.48-7.88-.33-2.16-.29-4.38-.69-6.52-.11-.6-1.18-1.02-1.89-1.59.61-.13,1.22-.27,1.44-.32v-7.74c-.56-1.36-1.31-2.95-1.74-4.63-.05-.2,1.69-.86,2.88-1.44,2.01,13.31,3.97,26.29,5.97,39.58Z"/>
      <path class="cls-2" d="m154.11,336.74c1.3-2.62-1.18-2.93-2.55-4.01.18-.71.37-1.5.62-2.49.8.37,1.42.65,2.52,1.16-.69-2.35-.11-4.66-2.66-5.89-2.46-1.19-.09-3.02-.53-4.25,1.2-.4,2.24-1.08,3.19-.98,1.11.11,2.15.91,3.22,1.4-.09.28-.17.55-.26.83-.78,0-1.63-.2-2.32.05-.88.32-1.62,1.01-2.42,1.54.7.58,1.34,1.25,2.11,1.71.46.27,1.12.21,1.72.6-.43.08-.86.17-1.09.21-.06,1.07-.11,2.11-.16,3.15.59-.43,1.17-.86,1.76-1.29.18.16.36.31.54.47-.6.82-1.19,1.65-1.85,2.55.21.33.5.79.94,1.48-.92-.15-1.59-.25-2.2-.35-.75,1.4,1.62,3.26-.58,4.1Z"/>
      <path class="cls-2" d="m163.99,203.77h3.78c1.04-1.69,2.01-3.25,3.29-5.34.8,2.12,1.76,3.6,1.82,5.12.06,1.5-.68,3.09-1.32,4.53-.17.37-1.48.67-1.9.41-2.01-1.25-3.9-2.71-5.84-4.1.06-.21.11-.41.17-.62Z"/>
      <path class="cls-2" d="m170.14,311.28c-.57-.39-1.15-.79-1.72-1.19.05-.24.1-.48.14-.72,1.32.25,2.64.5,4.28.81-1.03-1.11-1.95-2.1-2.99-3.22,3.49-1.46,3.49,1.2,3.94,2.9.42,1.59.38,3.29.59,5.42-1.47-.43-2.64-.78-3.97-1.17-.02.34-.05.74-.1,1.52-.87-.54-1.59-.99-2.3-1.44.64-.87,1.29-1.74,2.14-2.9Z"/>
      <path class="cls-1" d="m137.63,288.66c.34-2.47-1.2-1.04-1.95-.94-.8-.85-1.52-1.61-2.24-2.37,2.53-2.91,4.06-3.38,6.19-1.9.13.59.36,1.16.36,1.74,0,.34-.33.68-.51,1.02-.62.82-1.24,1.64-1.85,2.45Z"/>
      <path class="cls-2" d="m173.19,335.51c-1.06.11-2.11.22-3.16.32-1.41.36-1.45-.33-.85-1.25.66-1.01,1.47-1.93,2.38-3.09-1.27-.45-2.01-.71-2.34-.82,1.03-.8,2.14-1.65,3.01-2.32.69,2.08,1.46,4.37,2.22,6.65-.42.17-.84.33-1.26.5Z"/>
      <path class="cls-2" d="m157.49,316.95c1.19.07,2.23.13,3.58.22q-6.17,2.63-7.66,1.13c.69-.19,1.27-.35,1.86-.51-.66-3.08-.31-3.58,3.09-3.9-.29,1.02-.54,1.92-.86,3.07Z"/>
      <path class="cls-2" d="m173.03,316.07c2.04,1.81-2.26,4.26,1.86,5.02h-7.98c2.09-1.71,4.11-3.37,6.12-5.02Z"/>
      <path class="cls-2" d="m220.4,157.18c5.84.66,11.6,1.32,17.27,1.96-2.04,0-4.23.04-6.42-.01-2.23-.05-4.46-.31-6.68-.25-1.81.05-3.44.1-4.17-1.7Z"/>
      <path class="cls-2" d="m163.23,326.71c-2.18,1.65-2.4,3.26-.81,5.11.23.27.09.87.12,1.32l-.83.34c-.97-1.56-2.76-3.16-2.7-4.67.08-1.97,2.22-2.6,4.27-2.05l-.05-.04Z"/>
      <path class="cls-2" d="m180.14,296.38c1.01.32,2.02.64,2.81.89-.59,2.23-1.15,4.35-1.7,6.44-.98-.41-1.56-3.84-1.03-7.31-.01,0-.08-.02-.08-.02Z"/>
      <path class="cls-2" d="m169.73,322.08c1.37.51,2.74,1.02,4.18,1.56-.57.87-1.1,1.68-1.48,2.26-1.29-.32-2.49-.61-3.82-.94.31-.8.69-1.77,1.12-2.88Z"/>
      <path class="cls-2" d="m148.64,316.6c1.75,1.35,2.04,4.09.48,6.61.07-1.36.13-2.72.2-3.94-1.17.27-2.23.56-3.31.7-.11.01-.34-.88-.7-1.83,2.47,1.71,2.74-.29,3.34-1.54Z"/>
      <path class="cls-2" d="m170.1,332.68c-1.2.59-1.84.91-2.39,1.18.1-2.3-4.14-1.57-3.09-4.84,1.81,1.21,3.45,2.3,5.48,3.66Z"/>
      <path class="cls-2" d="m116.37,224.6c1.23,1.99,1.73,3.57-.98,4.63-.18-1.65-2-3.41.98-4.63Z"/>
      <path class="cls-2" d="m186.99,208.97c-.21-1.59-.34-2.59-.54-4.09,1.16-.05,2.29-.11,3.42-.16.1.27.2.54.3.81-1.01,1.09-2.01,2.18-3.18,3.44Z"/>
      <path class="cls-2" d="m164.88,315.76c-1.16-.36-1.93-.6-2.69-.84-.22-.26-.44-.53-.66-.79,1.13-.89,2.27-1.77,3.4-2.66.24.11.47.21.71.32-.23,1.2-.46,2.41-.76,3.97Z"/>
      <path class="cls-2" d="m137.63,288.66c.62-.82,1.24-1.64,1.85-2.45.42.79,1.99.97,1.07,2.57-.28.48.8,1.75,1.41,2.95-1.21-.43-2.18-.77-3.16-1.12.14-.18.27-.35.41-.53-.53-.54-1.06-1.07-1.59-1.61,0,0,0,.19,0,.19Z"/>
      <path class="cls-2" d="m111.71,232.52c2.2-.89,3.56.16,4.84,2.48-1.98-.63-3.57-1.13-5.15-1.63l.31-.85Z"/>
      <path class="cls-2" d="m163.29,326.75c-.09-1.12-.17-2.24-.26-3.36l.76-.06c.18.58.36,1.16.63,2.01.67-.63,1.17-1.1,1.88-1.76.09.92.17,1.69.23,2.3-1.25.31-2.28.56-3.3.83,0,0,.06.05.06.05Z"/>
      <path class="cls-2" d="m197.24,327.84c-1.23-.3-1.82,2.52-3.35.68-.39-.47-.76-.94-1.21-1.49,1.99-1.23,3.29-.22,4.58.84,0,0-.01-.03-.01-.03Z"/>
      <path class="cls-2" d="m104.85,222.87v-5.5c1.88,2.27,1.9,4.75,0,5.5Z"/>
      <path class="cls-2" d="m159.95,315.49c.24-3.29-2.05-2.39-3.7-2.55.04-.28.08-.56.11-.83,1.23.08,2.58-.12,3.65.34.56.24.63,1.62.93,2.49-.33.19-.66.37-.99.56Z"/>
      <path class="cls-1" d="m173.19,335.51c.42-.17.84-.34,1.26-.5-.04.14-.05.26-.01.36-.42.05-.83.1-1.25.15Z"/>
      <path class="cls-1" d="m174.28,336.39c-.28.21-.56.42-.84.64.31-.17.62-.34.93-.51,0,0-.09-.12-.09-.12Z"/>
      <path class="cls-1" d="m137.42,289.83s-.07.11-.07.1c0,0,.07-.1.07-.1Z"/>
      <path class="cls-2" d="m347.42,234.21c1.32,3.74,2.63,7.48,3.98,11.21.25.67.68,1.28,1.11,2.05-1.64,1.63.34,2.55.79,3.7-.06,1.01-.39,2.1-.14,3.03,1.24,4.66,2.66,9.28,3.97,13.93.58,2.04,1.21,4.09,1.53,6.18.12.76-.38,1.92-.99,2.44-2.57,2.17-5.3,4.16-7.98,6.22,1.28.93,2.48,1.81,3.68,2.68-.05-.23-.09-.45-.14-.68,1.47-.34,3.24-1.33,4.31-.82,1.05.5,1.39,2.51,2.09,3.96-1.52.56-2.45.91-3.38,1.25l.05.62c.78.14,1.57.29,2.91.53-.23.98-.49,2.11-.76,3.24-1.22-.49-2.93,1.49-3.83-.8-.15-.37-.77-.72-1.22-.79-2.92-.49-1.77-1.75-.12-3.52-1.9.17-3.26.29-4.25.38-.83-1.38-1.66-2.77-2.6-4.32-.86.17-1.72.34-2.65.52.49.67.88,1.2,1.63,2.23-1.31-.42-1.96-.46-2.36-.8-.72-.62-1.89-1.5-1.81-2.12.5-3.74-.18-7.4-.43-11.09-.22-3.2.14-6.55-.73-9.55-.62-2.16-.82-3.98-.26-6.04.1-.37.05-.93-.17-1.21-1.92-2.38.14-3.85,1.23-6.03.69,2.76-.73,5.99,2.44,7.15-1.8-3.18-.61-6.35.34-9.61-2,.12-3.57.22-5.13.31,0-.2,0-.39,0-.59.47-.31.93-.62,1.4-.93-.36-.27-.88-.47-1.04-.82-.45-1.02-.9-2.07-1.09-3.16-.52-3.05-.71-6.18-1.43-9.18-.35-1.46.4-1.86,1.15-2.52.05,1.2-.6,2.75,1.7,3.03.59-1.31,1.18-2.62,1.77-3.93-.17-.11-.34-.22-.51-.33-1.02.47-2.05.94-3.07,1.41.82-.95,1.63-1.89,2.89-3.35-.36-2-.82-4.8-1.39-7.58-.09-.42-.6-.76-.97-1.19.5-.21.98-.42,1.03-.43-.86-4.31-1.66-8.37-2.52-12.69.06-.04.58-.4,1.49-1.03-.94-.26-1.47-.35-1.95-.55-.45-.18-.85-.48-1.74-.99,1.01-.11,1.56-.17,2.33-.26-.44-.52-.78-.92-1.12-1.33.44-.31.79-.55,1.43-1.01-.86-.24-1.39-.39-1.9-.53.07-.74.14-1.51.24-2.66.74-.44,1.91-1.36,3.22.03.33.35.64.72.88,1.13.2.34.2.8.41,1.12,1.95,2.89,1.98,6.18,2.07,9.48.02.88.45,1.75.67,2.64.9,3.51,1.71,7.05,2.73,10.52.3,1.02,1.21,1.86,1.84,2.78,0,0-.07-.07-.07-.07-.19.9-.62,1.83-.53,2.7.21,2.06.66,4.09,1.01,6.14l-.05-.08Z"/>
      <path class="cls-2" d="m320.26,217.18c-.83-.78-1.67-1.57-2.67-2.51,2.23-2.93,4.4-5.77,6.49-8.52-.11-.44-.27-1.37-.57-2.25-.17-.49-.49-.98-.88-1.32-2.94-2.57-5.9-5.13-8.89-7.65-1.25-1.05-2.65-1.94-3.9-3-.67-.57-1.15-1.36-1.66-2.39,2.03,2.72,3.85.28,5.79.09-.19-.34-.37-.66-.57-1.03,2.61-.35,4.69-.27,7.11,1.65,1.77,1.41,4.58,3.65,8.2,1.46-.6,1.04-.89,1.54-1.2,2.07.93.63,1.95,1.17,2.79,1.93.69.62,1.16,1.48,1.73,2.24-.89.58-1.79,1.16-3.09,2.01v2.76c1.51-.3,2.55-.51,3.14-.63-.56,1.65-1.16,3.39-1.75,5.12.18.07.37.14.55.22-.79.52-1.58,1.04-3,1.96,1.65.26,2.63.42,4.03.64-2.58,3.12.33,5.56,1.04,8.22.7,2.58,1.21,2.45.46,4.47.54.17,1.08.34,1.62.51-.1.29-.21.83-.31.82-.59,0-1.26.01-1.75-.25-3.76-2.06-7.49-4.2-11.24-6.27-.46-.25-1.04-.27-1.56-.4,0,0,.08.06.08.06Zm-2.66-27.25c-.3-.36-.61-.72-.91-1.07-.98.78-1.99,1.52-2.89,2.38-.09.09.47.86.73,1.32,1.02-.87,2.04-1.75,3.07-2.62Z"/>
      <path class="cls-2" d="m347.42,234.21l.05.08c.95-.37,2.35-.35,1.8-2.02-.74-2.28-1.52-4.54-2.28-6.82,0,0,.07.07.07.07-.46-2.97-1.05-5.93-1.31-8.91-.11-1.32.45-2.7.7-4.03-2.67-1.73-.87-4.53-1.77-6.77h4.54c.09,1.6,0,2.91.28,4.14.61,2.73,1.55,5.39,2.08,8.13.38,1.95.35,3.98.43,5.97.11,2.42.06,4.86.23,7.27.29,4.04.71,8.07,1.03,12.11.03.32-.33.67-.59,1.16-.76-2.5-1.77-4.71-2.05-7.01-.27-2.19-1.19-3.16-3.22-3.37Z"/>
      <path class="cls-2" d="m361.12,255.3c.86.57,1.59,1.05,2.95,1.94-3.1.28-3.51,1.71-2.89,3.87.21.74-.22,1.66-.36,2.52-2.12.2-2.12-1.34-1.98-2.6.44-3.95.87-7.91,1.62-11.81,1.41-7.39,3-14.74,4.61-22.09.49-2.24,1.24-4.43,2.01-6.6.18-.52.9-.85,1.47-1.35.47,4.14-.89,7.51-2.03,10.98-.94,2.86-1.22,5.92-1.85,8.89-1.14,5.37-2.33,10.73-3.54,16.25Z"/>
      <path class="cls-2" d="m317.25,208.43c-1.94-2.84-3.54-5.17-5.2-7.6.39-.08.95-.18,1.27-.24-.21-1.11-.41-2.09-.6-3.08.4-.13.8-.26,1.19-.39.82,1.67,1.64,3.33,2.58,5.22,1.47.33,3.56.81,5.71,1.3q-3.19,5.25-4.95,4.79Z"/>
      <path class="cls-2" d="m334.35,311.99c1.45.21,3.11.88,2.54-1.88-.12-.58.93-1.41,1.27-1.88.48.62,1.2,1.14,1.32,1.78.21,1.07-.04,2.21.05,3.31.08.93.37,1.85.59,2.9-.13.03-.65.13-1.43.28.54.66.97,1.2,1.43,1.76-.5.79-1,1.58-1.46,2.3-1.38-1.71-2.63-3.38-4.03-4.93-1.15-1.27-1.12-2.46-.18-3.76,0,0-.1.11-.1.11Z"/>
      <path class="cls-2" d="m343.07,303.86c-.6-.41-1.55-1.38.35-2.09,5.81-2.17,11.68-4.16,18.15-6.43-.74,1.16-1.12,1.74-1.46,2.27.3,1.05.6,2.1.9,3.14-.22.11-.44.23-.65.34-.77-1.1-1.53-2.2-2.3-3.3-.18.1-.35.2-.53.3.17.9.35,1.8.67,3.48-.86-.84-1.29-1.45-1.88-1.77-.61-.33-1.48-.7-2.04-.5-2.1.75-4.12,1.73-6.19,2.59-1.47.61-2.97,1.17-5.02,1.97Z"/>
      <path class="cls-2" d="m347.64,314.89c1.08,1.91-.91,1.83-1.66,2.55-.36-.58-.86-1.12-1.06-1.75-.82-2.66-1.54-5.35-2.37-8.29,1.99-.92,3.87-1.78,6.3-2.89-.54,1.06-.76,1.84-1.24,2.38-.49.54-1.2.78-.61,1.74.13.21-.36,1.05-.76,1.3-2.02,1.26-2.07,1.65-.25,3.22.56.48,1.03,1.07,1.53,1.61.05.05.09.09.13.13Z"/>
      <path class="cls-2" d="m343.72,294.94c1.74,1.3,3.22,2.41,4.91,3.68-2.12.71-4.14,1.39-6.64,2.23.84-2.28-1.21-4.8,1.73-5.91Z"/>
      <path class="cls-2" d="m355.27,282.3c-.87.43-1.7.84-2.53,1.25,1.98-2.88,3.74-6.48,7.95-3.18-2.16,2.61-3.69,3.12-5.42,1.93Z"/>
      <path class="cls-2" d="m362.33,315.06c.66.6,1.5,1.36,2.34,2.13-.18.19-.35.38-.53.57-2.04-1.2-4.09-2.41-6.21-3.66,2.78-.53,5.08-.97,7.37-1.41.12.22.23.44.35.67-1.04.53-2.09,1.07-3.32,1.7Z"/>
      <path class="cls-2" d="m358.51,307.22c.36-.65.72-1.29,1.22-2.18-.75-.48-1.47-.94-2.19-1.4,1.17-1.96,1.27-1.94,5.83.8-1.64.94-3.25,1.86-4.86,2.78h.01Z"/>
      <path class="cls-2" d="m334.35,311.99s.1-.11.1-.11c-.7.22-1.41.44-2.37.75-.91-1.52-1.82-3.05-2.99-5.01,1.8.35,3.1.61,4.58.9-.84.42-1.55.77-2.27,1.13.08.21.15.42.23.62.74-.21,1.48-.41,2.39-.66.12.82.23,1.6.34,2.38Z"/>
      <path class="cls-2" d="m318.94,322.22c1.35.86,2.03,1.29,2.48,1.58.27,1.16.59,2.1.68,3.07.04.47-.35.99-.54,1.48-.44-.23-1.17-.38-1.28-.72-.49-1.53-.8-3.12-1.35-5.41Z"/>
      <path class="cls-2" d="m312.39,258.52c-.15-1.28-.52-2.6-.35-3.84.1-.72,1.09-1.32,1.68-1.97.17.16.34.32.51.48-.29,1.76-.57,3.53-.86,5.29-.33.01-.65.03-.98.04Z"/>
      <path class="cls-1" d="m337.41,231.42c1.02-.47,2.05-.94,3.07-1.41.17.11.34.22.51.33-.59,1.31-1.18,2.62-1.77,3.93-2.3-.29-1.65-1.83-1.7-3.03,0,0-.12.18-.12.18Z"/>
      <path class="cls-2" d="m347.64,314.89s-.08-.08-.13-.13c-.14-.97-.28-1.93-.47-3.31,1.02.45,2.14.95,3.26,1.44.04.28.08.56.12.84-.93.38-1.85.77-2.78,1.15Z"/>
      <path class="cls-2" d="m355.31,313.66c-2.54.52-2.81.32-3.44-3.27,1.12,1.07,2.25,2.14,3.44,3.27Z"/>
      <path class="cls-2" d="m358.49,307.22c.94.83,2.82,1.45.7,2.82.59.27,1.13.52,2.24,1.04-4.64.54-2.74-2.25-2.92-3.87,0,0-.02,0-.02,0Z"/>
      <path class="cls-2" d="m366.92,323.84c-1.34-.96-2.06-1.48-2.85-2.04.33-.57.75-1.31,1.47-2.57.51,1.71.87,2.92,1.38,4.62Z"/>
      <path class="cls-2" d="m178.78,87.43c-.89-2.12-1.79-4.24-2.87-6.82,4.09,2.85,4.49,3.69,2.87,6.82Z"/>
      <path class="cls-2" d="m254.8,234.99c-.78-3.57-1.56-7.13-2.35-10.7.26-.07.52-.13.78-.2.94,3.5,1.89,7.01,2.83,10.51-.42.13-.84.26-1.26.39Z"/>
      <path class="cls-2" d="m258.14,301.71c1.14.61,2.28,1.23,3.41,1.84-.09.21-.19.43-.28.64-.61-.03-1.21-.07-1.92-.11-.08.9-.15,1.69-.23,2.48-.27.05-.55.09-.82.14-.31-1.5-.62-3-.94-4.49.26-.17.52-.33.77-.5Z"/>
      <path class="cls-2" d="m259.38,291.49c-.1.83-.19,1.62-.28,2.41-.23.02-.45.04-.68.07-.27-1.59-.53-3.17-.8-4.76.23-.14.46-.29.68-.43.99.7,1.98,1.4,3.6,2.54-1.34.09-1.89.13-2.52.17Z"/>
      <path class="cls-2" d="m267.22,324.63c-.64-.04-1.29-.09-2.06-.14-.09.76-.18,1.46-.27,2.16-.23.05-.47.1-.7.15-.34-1.34-.68-2.68-1.02-4.01.19-.19.38-.38.57-.57,1.28.54,2.55,1.07,3.83,1.61-.12.27-.23.54-.35.81Z"/>
      <path class="cls-2" d="m264.26,311.96v2c-.24.05-.49.1-.73.15-.27-1.34-.53-2.67-.96-4.8,1.81.78,2.96,1.26,4.1,1.75-.05.24-.1.47-.15.71-.65.06-1.3.11-2.26.2Z"/>
      <path class="cls-2" d="m255.22,302.97c.65,1.35,1.23,2.03,1.22,2.7-.01.45-.86.88-1.34,1.32-.36-.54-.97-1.07-1.01-1.64-.04-.56.51-1.15,1.13-2.38Z"/>
      <path class="cls-2" d="m254.13,256.06c.55.46,1.1.93,1.42,1.19-.54,1.23-.98,2.24-1.42,3.25-.16.04-.32.07-.48.11-.11-1.48-.23-2.96-.34-4.44l.83-.11Z"/>
      <path class="cls-2" d="m258.13,281.21c-.13-1.8-.21-2.98-.33-4.77,1.18.7,1.92,1.14,2.6,1.55-.74,1.05-1.29,1.83-2.27,3.22Z"/>
      <path class="cls-2" d="m227.03,293.39c-1.69.09-3.24.18-4.79.27-.1-.13-.19-.26-.29-.38.5-.22.99-.55,1.52-.64,1.48-.26,3.01-.31,4.46-.67,2.56-.63,6.64,1.49,6.74,3.68.05,1.04.12,1.93-1.55,2.2-3.71.6-5.31-.32-6.09-4.45Z"/>
      <path class="cls-2" d="m227.49,310.03c-.53.03-1.06.1-1.59.09-.89-.01-1.79-.08-2.68-.12.29-.97.55-1.96.92-2.91.08-.21.57-.26.88-.39.37.49.73.98,1.19,1.59,1.03-4.25,2.69-4.7,5.83-1.8-1.03.22-2.05.43-2.96.63-.53.97-1.05,1.94-1.58,2.91Z"/>
      <path class="cls-2" d="m225.25,335.86c-.05-.73-.27-1.5-.12-2.19.18-.84.73-2.32,1-2.29,1.37.13,3.26-.45,3.87,1.91-1.03.07-1.89.12-2.92.19-.15.93-.3,1.86-.47,2.93-.53-.23-.96-.41-1.39-.6l.03.05Z"/>
      <path class="cls-2" d="m221.36,326.41c-.13,1.02-.26,1.96-.4,3.08-2.09-1.06-1.42-2.77-1.4-4.22,0-.32.66-.93.91-.88,1.3.25,2.56.68,3.83,1.04-.07.27-.14.55-.21.82-.88.05-1.75.1-2.74.16Z"/>
      <path class="cls-2" d="m225.22,335.81c-.48.3-.94.81-1.43.84-.72.05-1.68-.02-2.13-.46-.33-.32,0-1.31.05-2,.79.12,1.64.11,2.36.4.48.19.78.81,1.17,1.26,0,.01-.02-.04-.02-.04Z"/>
      <path class="cls-2" d="m230.82,330.8c-1.1-.46-1.91-.8-2.85-1.19.07-.73.14-1.42.21-2.13,2.44-.14,3.08,1.03,2.64,3.32Z"/>
      <path class="cls-2" d="m226.28,288.32c-.07.89-.14,1.78-.22,2.67-.56-.13-1.61-.27-1.6-.38.03-.85.26-1.68.43-2.52.46.08.93.16,1.39.24Z"/>
      <path class="cls-2" d="m242.09,291.11c.47-.67.95-1.33,1.42-2,.41.41.83.83,1.24,1.24-.56.54-1.13,1.07-1.69,1.61-.32-.28-.65-.56-.97-.85Z"/>
      <path class="cls-2" d="m250.49,154.5c1.27-.78,2.53-1.56,3.8-2.34.23.25.46.51.69.76-1.99,2.21-3.98,4.43-5.97,6.64-.34-.25-.68-.49-1.02-.74.86-1.46,1.73-2.93,2.59-4.39,0,0-.08.08-.08.08Z"/>
      <path class="cls-2" d="m231.27,317.07c-.88-.21-1.57-.37-2.43-.57.25-.91.45-1.65.68-2.47,2.21-.1,2.43,1.02,1.75,3.04Z"/>
      <path class="cls-1" d="m144.24,233.53c-1.34-.57-2.07-.88-2.94-1.25,1.1-1.42,2.04-2.84,3.23-3.99.19-.18,1.52.83,2.35,1.3-.79,1.42-3.42,1.32-2.1,3.58.22-.32.43-.61.78-1.1.51.78.94,1.46,1.54,2.39-.75-.11-1.28-.18-1.82-.26.1.17.2.35.3.52-.95.73-1.86,1.52-2.89,2.11-.12.07-.86-.94-1.31-1.45.82-.53,1.63-1.06,2.86-1.86Z"/>
      <path class="cls-1" d="m147.34,237.54c-.69,1.33-1.26,2.92-1.53,2.87-1.15-.21-2.22-.9-3.89-1.7,2.01-.44,3.25-.7,5.42-1.17Z"/>
      <path class="cls-1" d="m181.17,269.22c-2.55.98-4.22-.28-5.45-2.6,1.83.88,3.65,1.76,5.48,2.64,0,0-.03-.04-.03-.04Z"/>
      <path class="cls-1" d="m159.16,308.7c-1.28-.5-2.01-.79-2.85-1.11.36-.71.68-1.33,1.44-2.8.57,1.57.91,2.51,1.41,3.91Z"/>
      <path class="cls-1" d="m346.99,225.45c.76,2.27,1.54,4.54,2.28,6.82.55,1.67-.86,1.66-1.8,2.02-.35-2.04-.8-4.08-1.01-6.14-.09-.87.34-1.8.53-2.7Z"/>
      <path class="cls-1" d="m317.6,189.94c-1.02.87-2.04,1.75-3.07,2.62-.26-.46-.82-1.23-.73-1.32.9-.86,1.91-1.6,2.89-2.38.3.36.61.72.91,1.07Z"/>
    </g>
  </g>
</svg>