<?xml version="1.0" encoding="UTF-8"?>
<svg id="Layer_2" data-name="Layer 2" xmlns="http://www.w3.org/2000/svg" viewBox="0 0 374 356">
  <defs>
    <style>
      .cls-1, .cls-2 {
        stroke-width: 0px;
      }

      .cls-2 {
        fill: #fff;
      }
    </style>
  </defs>
  <g id="Layer_1-2" data-name="Layer 1">
    <g>
      <path class="cls-2" d="m48.99,356H0c0-118.63,0-237.27,0-356h374v261.97c-2.84-3.41-4.16-6.87-3.52-11.74.73-5.57-5.43-10.08-3.5-16.62.85-2.87-1.24-6.48-1.04-9.69.41-6.37-1.51-11.88-5.36-16.65-3-3.73-3.08-7.54-2.07-12.27,1.75,1.18,3.05,2.05,4.36,2.94,2.28-2.54,2.72-4.87.16-7.11-3.5-3.06-3.71-6.96-3.81-11.32-.23-10.01,2.95-20.06-1.26-30.08-2.02-4.79-2.32-10.32-3.32-15.53-1.18-6.18-1.93-12.48-3.49-18.56-2.78-10.87-6.03-21.61-9.09-32.41.34-.14.69-.27,1.03-.41,1.34,2.74,2.68,5.49,4.02,8.23-1.51-10.37-3.92-20.33-6.17-30.32-.76-3.39-2.32-7.29-1.33-10.22,1.32-3.94-.71-6.05-2.32-8.44-2.41-3.57-5.14-6.99-8.1-10.12-5.46-5.77-10.48-12.1-18.8-14.26-3.15-.82-5.97-2.86-9.1-3.86-3.83-1.23-7.87-2.88-11.71-2.64-3.27.21-5.27-.12-7.16-2.7-3.78-5.19-9-7.49-15.27-6.03-5.65,1.31-11.46,2.65-16.65,5.13-12.49,5.97-24.43,12.85-32.38,24.92-2.17,3.29-5.1,6.06-7.62,9.12-5.57,6.75-11.1,13.52-16.62,20.31-.23.28-.15.81-.23,1.34.84-.35,1.46-.62,2.6-1.1-1.14,2.56-2.04,4.59-2.94,6.63.23.16.47.31.7.47,2.2-2.78,4.4-5.56,6.6-8.34.51.4,1.02.8,1.53,1.2-3.29,4.41-6.43,8.93-9.9,13.19-4.05,4.97-8.81,9.22-10.91,15.75-1.87,5.79-7.31,9.91-7.59,16.82-.25,6.02-1.96,11.98-3.02,17.97l1.33.36c3.45-5.38,6.9-10.76,10.35-16.15.42.25.83.5,1.25.75-2.61,5.09-4.68,10.58-7.96,15.2-6.11,8.62-7.79,18.54-9.86,28.43-.06.26-.17.51-.34.72-.59,3.13-2.77,7.63-1.47,9.12,3.63,4.18,1.64,7.92,1.04,11.94-.17,1.15-.38,2.3-.58,3.46.21.05.43.1.64.15.74-1.72,1.49-3.45,2.23-5.17.41,2.14.15,4.1-.74,5.73-1.49,2.75-4.37,5.09-4.89,7.94-1.14,6.19-5.95,7.93-10.45,9.86-3.04,1.3-6.63,1.31-9.77,1.87,1.23,2.19,3.77,4.69,3.59,6.96-.18,2.16-3.21,4.09-4.97,6.12-.1.12-.12.31-.21.45-6.22,9.09-9.52,19.28-11.77,29.87-.66-.77-1.32-1.54-1.98-2.3,2.36-.96,6.54-1.59,6.78-2.93,1.21-6.81,6.37-10.67,10.21-15.5.78-.99,2.04-1.9,3.24-2.17,1.32-.3,3.03-.17,4.15.48.5.29.21,2.38-.11,3.55-.55,2.03-1.39,3.98-2.12,5.96.18.1.35.19.53.29,1.33-1.88,2.67-3.77,4.19-5.91,3.95,4.32,5.2,8.2,2.36,13.11-3.02,5.23-5.55,10.75-8.3,16.14.32.15.64.31.96.46,3.31-5.74,6.62-11.48,9.93-17.22.57.12,1.13.24,1.7.36.87,8.36,1.62,16.73,2.64,25.07.78,6.39-1.46,11.31-5.34,16.41-5.06,6.66-8.88,14.27-13.23,21.47l.09-.15c-2.59,6.55-5.2,13.11-7.78,19.66-.64,1.63-.91,4.44-1.89,4.71-3.64.98-7.97,2.41-11.15,1.24-3.94-1.45-5.1-7.87-3.51-12.07-6.04-2.12-3.52-7.38-3.73-11.43-.16-3.14,1.35-6.34,1.61-9.56.06-.77-2.29-2.63-2.89-2.38-1.75.7-3.42,1.99-4.68,3.44-7.6,8.75-14.57,18.12-22.72,26.31-12.29,12.35-25.37,23.91-38.12,35.8Z"/>
      <path class="cls-1" d="m48.99,356c12.75-11.9,25.83-23.45,38.12-35.8,8.15-8.19,15.12-17.56,22.72-26.31,1.26-1.45,2.93-2.74,4.68-3.44.6-.24,2.96,1.61,2.89,2.38-.25,3.21-1.77,6.41-1.61,9.56.21,4.05-2.31,9.31,3.73,11.43-1.59,4.19-.43,10.62,3.51,12.07,3.18,1.17,7.52-.26,11.15-1.24.98-.26,1.25-3.08,1.89-4.71,2.58-6.56,5.18-13.11,7.78-19.67,1.04,2.96,2.7,1.8,4.05.44,3.13-3.16,5.89-6.72,9.2-9.66,3.42-3.04,3.59-5.58-.24-8.58-2.17,2.92-4.35,5.81-6.48,8.72-2.24,3.07-4.43,6.16-6.64,9.25,4.35-7.2,8.17-14.81,13.23-21.47,3.88-5.1,6.12-10.02,5.34-16.41-1.02-8.34-1.77-16.71-2.64-25.07-.57-.12-1.13-.24-1.7-.36-3.31,5.74-6.62,11.48-9.93,17.22-.32-.15-.64-.31-.96-.46,2.74-5.39,5.27-10.91,8.3-16.14,2.84-4.91,1.59-8.79-2.36-13.11-1.52,2.14-2.85,4.03-4.19,5.91-.18-.1-.35-.19-.53-.29.72-1.98,1.57-3.93,2.12-5.96.32-1.17.61-3.26.11-3.55-1.12-.65-2.83-.78-4.15-.48-1.19.27-2.45,1.18-3.24,2.17-3.84,4.83-9,8.69-10.21,15.5-.24,1.34-4.42,1.97-6.78,2.93.66.77,1.32,1.54,1.98,2.3,2.25-10.59,5.55-20.78,11.77-29.87.09-.13.11-.33.21-.45,1.77-2.04,4.79-3.96,4.97-6.12.19-2.27-2.35-4.76-3.59-6.96,3.13-.55,6.73-.56,9.77-1.87,4.5-1.93,9.31-3.68,10.45-9.86.52-2.84,3.4-5.19,4.89-7.94.88-1.63,1.14-3.59.74-5.73-.74,1.72-1.49,3.45-2.23,5.17-.21-.05-.43-.1-.64-.15.19-1.15.4-2.3.58-3.46.6-4.01,2.59-7.76-1.04-11.94-1.29-1.49.88-5.99,1.47-9.12-.51,3.2-2.15,6.47.35,9.66,3.5-2.58,4.19-9.01,1.43-11.45-.09-.08-.95.7-1.44,1.07,2.07-9.89,3.76-19.82,9.86-28.43,3.28-4.62,5.34-10.1,7.96-15.2-.42-.25-.83-.5-1.25-.75-3.45,5.38-6.9,10.76-10.35,16.15l-1.33-.36c1.06-5.99,2.77-11.95,3.02-17.97.28-6.91,5.72-11.03,7.59-16.82,2.1-6.52,6.86-10.78,10.91-15.75,3.47-4.26,6.61-8.78,9.9-13.19-.51-.4-1.02-.8-1.53-1.2-2.2,2.78-4.4,5.56-6.6,8.34-.23-.16-.47-.31-.7-.47.9-2.03,1.81-4.07,2.94-6.63-1.14.48-1.77.74-2.6,1.1.08-.53,0-1.06.23-1.34,5.52-6.79,11.05-13.56,16.62-20.31,2.52-3.06,5.45-5.84,7.62-9.12,7.95-12.06,19.9-18.94,32.38-24.92,5.19-2.48,11-3.81,16.65-5.13,6.27-1.46,11.49.84,15.27,6.03,1.88,2.58,3.89,2.9,7.16,2.7,3.84-.24,7.89,1.4,11.71,2.64,3.12,1.01,5.94,3.04,9.1,3.86,8.32,2.16,13.35,8.5,18.8,14.26,2.96,3.13,5.69,6.55,8.1,10.12,1.62,2.39,3.65,4.5,2.32,8.44-.99,2.93.57,6.83,1.33,10.22,2.25,9.99,4.66,19.94,6.17,30.32-1.34-2.74-2.68-5.49-4.02-8.23-.34.14-.69.27-1.03.41,3.05,10.8,6.3,21.54,9.09,32.41,1.56,6.09,2.31,12.38,3.49,18.56,1,5.21,1.3,10.74,3.32,15.53,4.21,10.01,1.02,20.07,1.26,30.08.1,4.37.31,8.26,3.81,11.32,2.56,2.24,2.13,4.57-.16,7.11-1.32-.89-2.61-1.76-4.36-2.94-1.01,4.74-.93,8.55,2.07,12.27,3.84,4.78,5.76,10.28,5.36,16.65-.2,3.21,1.89,6.82,1.04,9.69-1.93,6.54,4.23,11.05,3.5,16.62-.64,4.88.68,8.33,3.52,11.74v19.01c-1.46-.85-2.91-1.71-4.37-2.56-.41.21-.82.42-1.23.63l5.6,9.93v67.02h-77c1.48-7.5.67-14.81-1.09-22.21-1.42-5.95-1.61-12.18-2.87-18.17-.62-2.95-1.67-6.57-3.8-8.29-6.97-5.61-15.6-7.67-24.17-9.72,3.58,4.6,7.51,8.64,11.22,12.86,7.34,8.34,12.45,17.27,8.09,29.03-.7,1.9-.13,4.7.77,6.66,1.58,3.45,3.86,6.58,5.85,9.85H114.99c-2.61-13.8-5.22-27.61-7.95-42.04-1.85,1.5-3.19,2.46-4.38,3.58-9.35,8.77-18.73,17.51-27.98,26.38-4.04,3.88-7.8,8.04-11.69,12.08h-14ZM258.03,73.36c3.53,1.45,7.12,2.77,10.59,4.37,5.25,2.43,9.71,1.79,13.04-2.87,3.92-5.46,8.99-7.57,15.5-6.96,3.09.29,6.19.35,10.34.56-1.44-8.5-2.58-16.32-4.11-24.07-2.21-11.2-8.65-16.05-20.16-15.99-2.73.01-5.47-.93-8.2-1.47-2.29-.46-4.56-.97-7.39-1.58-.18-.36-.73-1.45-1.07-2.11-5.26,2.09-9.97,4.71-15.01,5.8-8.89,1.92-14.46,7.46-17.94,15.13-4.37,9.62-7.98,19.58-11.94,29.46h35.79c.19-.06.38-.15.58-.27Zm-33.95,92.71c-2.26-2.19-2.7-.35-2.14,1.26,1.67,4.84,3.7,9.55,5.59,14.31.41-.16.81-.32,1.22-.48-.51-2.92-1.01-5.85-1.52-8.77,1.57,4.73,3.01,9.51,4.72,14.19,5.6,15.39,12.91,29.5,28.31,36.8-2.11,7.19-.75,13.97,1.51,20.54,2.6,7.57,4.33,14.61-1.34,21.94-2.82,3.64-4.29,8.56-5.53,13.13-2.07,7.6,1.08,12.16,8.44,14.75,7.27,2.56,15.52,2.46,21.72,7.92,3.19,2.8,6.39,5.59,9.83,8.58.62-.93,1.02-1.87,1.71-2.49,5.93-5.3,7.66-11.75,5.28-19.28-2.16-6.82-1.47-13.4.8-20.08,1.87-5.49,5.19-10.87,2.65-17.03-1.61-.39-3.19-.78-5-1.23.13-.88.26-1.49.3-2.11.61-8.66-2.55-12.52-11.14-12.83-3.24-.11-6.78.3-9.72,1.55-4.41,1.88-5.7.15-6.2-3.75-.63-5.03-1.33-10.05-1.98-14.94-1.6,0-3.46.42-3.73-.07-2.34-4.15-4.62-8.37-6.35-12.8-.42-1.07,1.69-2.9,1.94-4.5.31-2,.73-4.92-.35-6.04-3.64-3.79-7.98-6.89-11.91-10.41-1-.89-1.48-2.36-2.2-3.57,1.29-.35,2.58-1.01,3.85-.98,5.48.14,10.96.8,16.43.68,8.71-.19,15.04-4.32,19.19-12.17,3.25-6.16,7.18-11.96,10.67-18.01,3.21-5.57,7.42-10.84,5.26-18.09-.35-1.18.44-2.9,1.11-4.15,1.26-2.34,2.87-4.48,4.23-6.77,1.4-2.35,1.36-4.69-1.39-5.86-5.09-2.16-10.38-3.09-16.79-1.49,2.09,4.08,3.83,7.59,5.67,11.04,4.11,7.67,3.24,11.85-3.6,17.21-1.16.91-2.16,2.01-3.21,3,2.72,3.67.59,13.72-3.62,16.33-1.46.91-3.76.97-5.57.71-3.02-.43-5.96-1.47-8.94-2.2-2.61-.64-5.24-1.21-7.86-1.81,9.36-.65,17.53-2.84,22.69-11.39-2.27-.18-4.3.39-6.36.62-1.12.12-2.3-.36-3.45-.57.98-.82,1.94-1.64,2.94-2.44.25-.2.61-.43.9-.41,5.11.4,4.23-2.53,3.61-4.79-5.05-1.26-9.47-2.36-14.45-3.6,5.25-1.67,9.83-3.13,15.02-4.78-3.49-1.67-6.56-3.18-9.66-4.62-4.9-2.27-5.14-3.6-1.33-7.32,5.44-5.31,10.12-10.79,5.61-19.12-.83-1.53-.39-3.72-1.13-5.34-1.02-2.23-2.61-4.21-3.95-6.3-1.93,1.52-4.5,2.66-5.67,4.64-4.26,7.21-6.57,15.88-15.49,19.36-.28.11-.48.46-.67.73-4.45,6.59-8.83,13.23-13.39,19.74-.81,1.16-2.41,1.77-4.56,3.27-.13-12.76,10-16.96,16.89-24.41-2.22-.61-3.87-1.13-5.55-1.51-3.73-.86-7.46-1.68-11.21-2.48-6.63-1.42-10.38-5.49-11.58-12.14-.39-2.18-1.26-4.27-2.14-7.16-9.24,7.9-4.21,18.77-7.49,27.77-1.29-1.7-2.24-2.95-2.71-3.58-3.42,1.64-6.37,3.07-10.44,5.02,1.72,6.69,3.71,14.43,5.7,22.16.36-.08.72-.16,1.08-.24-.35-4-.7-8.01-1.04-12.01,1.77,4.57,2.77,9.19,4.06,13.73,1.4,4.93,1.52,4.89-3.44,7.01.9,1.38,1.78,2.72,2.9,4.43.5-1.44.89-2.56,1.29-3.69l1.5,1.29c.15,2.02.3,4.03.45,6.05.24-.02.49-.05.73-.07v-25.44c1.39,1.31,2.1,2.9,2.51,4.57,2.53,10.3,5,20.62,7.49,30.94Zm18.46-91.76c-5.25.69-9,.74-12.43,1.81-1.83.57-4.4,2.89-4.41,4.43-.03,5.93.33,11.97,1.63,17.73.53,2.35,3.62,5.45,5.93,5.82,7.62,1.23,15.42,1.67,23.15,1.71,1.94.01,4.74-2.16,5.66-4.05,2.24-4.59,3.84-9.53,5.25-14.46,1.3-4.55-.51-7.99-5.27-9.07-6.94-1.58-13.95-2.81-19.5-3.91Zm79.82,9.87c-.28,15.48-3.99,22.62-11.73,23.01,0-.64-.11-1.3.02-1.9,1.22-5.53-3.18-13.17-8.91-14.04-4.8-.72-9.79-.15-13.91-.15.18,3.97,1.06,7.9.34,11.51-.74,3.73.74,5.31,3.64,5.55,6.05.49,12.21,1.02,18.21.44,10.14-.97,16.69-13.56,12.33-24.43Zm-61,213.86c-.48.32-.95.65-1.43.97,7.32,12.53,14.64,25.07,21.96,37.6.43-.08.85-.17,1.28-.25,0-3.67.79-7.54-.14-10.96-3.31-12.2-13.24-19.22-21.66-27.36Zm43.55-9.53c5.64-8.83,5.42-18.11,6.68-27.01.11-.76-1.08-1.71-1.66-2.57-.79.71-1.88,1.27-2.31,2.16-4.09,8.43-5.37,17.19-2.7,27.41Zm-166.45,32.01c6.25-6.91,13-13.49,15.45-22.92-7.82,5.82-14.47,12.42-15.45,22.92Zm167.38-239.62c-.13-.49-.27-.99-.4-1.48-13.03-2.41-21.59-.19-21.18,6.05,7.25-1.54,14.42-3.05,21.58-4.57Zm-119.96,185.46l-1.75-.49c-3.15,3.06-.35,6.81-.77,10.19.43.05.86.11,1.29.16.41-3.28.82-6.57,1.23-9.85Zm108.37-191.7c0,.25.01.49.02.74h12.85c-.03-.51-.05-1.02-.08-1.54-4.26.27-8.53.53-12.79.8Z"/>
      <path class="cls-2" d="m62.99,356c3.89-4.04,7.65-8.2,11.69-12.08,9.25-8.87,18.63-17.61,27.98-26.38,1.19-1.12,2.53-2.08,4.38-3.58,2.73,14.43,5.34,28.24,7.95,42.04h-52Z"/>
      <path class="cls-2" d="m291,356c-1.99-3.26-4.27-6.39-5.85-9.85-.9-1.96-1.47-4.76-.77-6.66,4.36-11.76-.75-20.69-8.09-29.03-3.71-4.22-7.64-8.25-11.22-12.86,8.57,2.04,17.2,4.11,24.17,9.72,2.14,1.72,3.19,5.34,3.8,8.29,1.26,6,1.45,12.22,2.87,18.17,1.76,7.4,2.57,14.71,1.09,22.21h-6Z"/>
      <path class="cls-2" d="m374,288.98l-5.6-9.93c.41-.21.82-.42,1.23-.63,1.46.85,2.91,1.71,4.37,2.56v8Z"/>
      <path class="cls-2" d="m165.83,154.14c.5-.38,1.35-1.15,1.44-1.07,2.76,2.45,2.07,8.87-1.43,11.45-2.5-3.19-.85-6.46-.35-9.66.16-.22.28-.46.34-.72Z"/>
      <path class="cls-2" d="m224.08,166.07c-2.49-10.31-4.95-20.63-7.49-30.94-.41-1.67-1.12-3.26-2.51-4.57v25.44c-.24.02-.49.05-.73.07-.15-2.02-.3-4.03-.45-6.05l-1.5-1.29c-.39,1.13-.78,2.25-1.29,3.69-1.12-1.71-2-3.05-2.9-4.43,4.95-2.12,4.84-2.08,3.44-7.01-1.29-4.54-2.3-9.15-4.06-13.73.35,4,.7,8.01,1.04,12.01-.36.08-.72.16-1.08.24-1.99-7.74-3.98-15.47-5.7-22.16,4.06-1.96,7.02-3.38,10.44-5.02.48.63,1.42,1.88,2.71,3.58,3.28-9-1.75-19.86,7.49-27.77.88,2.89,1.75,4.98,2.14,7.16,1.2,6.65,4.95,10.72,11.58,12.14,3.74.8,7.48,1.62,11.21,2.48,1.68.39,3.33.9,5.55,1.51-6.89,7.45-17.02,11.65-16.89,24.41,2.15-1.5,3.75-2.11,4.56-3.27,4.57-6.51,8.94-13.15,13.39-19.74.18-.27.39-.62.67-.73,8.92-3.48,11.23-12.15,15.49-19.36,1.17-1.97,3.74-3.11,5.67-4.64,1.34,2.09,2.93,4.07,3.95,6.3.74,1.61.3,3.8,1.13,5.34,4.51,8.33-.16,13.81-5.61,19.12-3.81,3.72-3.57,5.05,1.33,7.32,3.1,1.44,6.17,2.95,9.66,4.62-5.19,1.65-9.77,3.11-15.02,4.78,4.98,1.24,9.39,2.34,14.45,3.6.62,2.26,1.51,5.19-3.61,4.79-.29-.02-.64.21-.9.41-.99.79-1.96,1.62-2.94,2.44,1.15.21,2.33.69,3.45.57,2.07-.22,4.09-.8,6.36-.62-5.16,8.55-13.33,10.75-22.69,11.39,2.62.6,5.25,1.17,7.86,1.81,2.98.73,5.92,1.76,8.94,2.2,1.81.26,4.1.2,5.57-.71,4.21-2.61,6.34-12.66,3.62-16.33,1.05-.99,2.05-2.09,3.21-3,6.84-5.36,7.71-9.54,3.6-17.21-1.85-3.45-3.58-6.96-5.67-11.04,6.41-1.59,11.7-.67,16.79,1.49,2.75,1.17,2.8,3.51,1.39,5.86-1.36,2.29-2.97,4.43-4.23,6.77-.67,1.25-1.46,2.97-1.11,4.15,2.16,7.25-2.04,12.52-5.26,18.09-3.49,6.04-7.41,11.84-10.67,18.01-4.14,7.85-10.47,11.99-19.19,12.17-5.47.12-10.95-.54-16.43-.68-1.28-.03-2.57.64-3.85.98.72,1.2,1.2,2.67,2.2,3.57,3.93,3.52,8.28,6.62,11.91,10.41,1.08,1.12.66,4.04.35,6.04-.25,1.59-2.35,3.43-1.94,4.5,1.73,4.42,4.01,8.65,6.35,12.8.27.48,2.13.07,3.73.07.65,4.89,1.34,9.91,1.98,14.94.49,3.9,1.78,5.63,6.2,3.75,2.94-1.25,6.48-1.66,9.72-1.55,8.59.3,11.75,4.17,11.14,12.83-.04.62-.17,1.23-.3,2.11,1.81.44,3.39.83,5,1.23,2.54,6.16-.79,11.54-2.65,17.03-2.27,6.68-2.96,13.26-.8,20.08,2.39,7.52.65,13.98-5.28,19.28-.69.62-1.09,1.56-1.71,2.49-3.43-3-6.64-5.78-9.83-8.58-6.21-5.46-14.46-5.36-21.72-7.92-7.36-2.59-10.51-7.15-8.44-14.75,1.24-4.57,2.72-9.48,5.53-13.13,5.66-7.33,3.94-14.37,1.34-21.94-2.26-6.58-3.62-13.35-1.51-20.54-15.4-7.31-22.71-21.42-28.31-36.8-1.71-4.68-3.15-9.46-4.71-14.17-1.05-2.1-2.1-4.22-3.16-6.35Zm27.48-32.67c-3.22.58-6.42,1.16-9.63,1.74-.1.54-.2,1.09-.3,1.63,1.86,1.53,3.72,3.06,4.92,4.04,1.78-2.63,3.18-4.7,5.01-7.41Z"/>
      <path class="cls-2" d="m257.45,73.63h-35.79c3.97-9.88,7.58-19.84,11.94-29.46,3.48-7.67,9.06-13.22,17.94-15.13,5.04-1.09,9.76-3.71,15.01-5.8.34.67.89,1.75,1.07,2.11,2.83.61,5.1,1.13,7.39,1.58,2.73.54,5.47,1.48,8.2,1.47,11.51-.06,17.95,4.79,20.16,15.99,1.53,7.75,2.67,15.57,4.11,24.07-4.15-.22-7.26-.27-10.34-.56-6.51-.61-11.58,1.5-15.5,6.96-3.34,4.65-7.79,5.29-13.04,2.87-3.46-1.6-7.05-2.92-10.58-4.37,1.61,0,3.21,0,5.21,0-.47-4.99-4.39-5.75-7.45-6.42-6.68-1.48-13.46-1.67-19.86,2.04,7.98-1.68,14.68,1.8,21.51,4.66Z"/>
      <path class="cls-2" d="m242.55,74.31c5.55,1.1,12.56,2.34,19.5,3.91,4.76,1.08,6.57,4.52,5.27,9.07-1.4,4.93-3.01,9.87-5.25,14.46-.92,1.89-3.73,4.06-5.66,4.05-7.73-.05-15.53-.48-23.15-1.71-2.31-.37-5.4-3.47-5.93-5.82-1.3-5.75-1.66-11.8-1.63-17.73,0-1.54,2.58-3.86,4.41-4.43,3.43-1.07,7.18-1.12,12.43-1.81Zm16.54,14.92c.1-6.27-3.63-9.8-9.81-9.93-5.82-.13-11.18,1.55-15.84,4.97-1.14.84-1.39,2.87-2.06,4.35,1.46.07,2.92.29,4.37.19,3.21-.21,6.42-.9,9.61-.8,4.57.13,9.12.79,13.73,1.22Z"/>
      <path class="cls-2" d="m322.36,84.18c4.37,10.87-2.18,23.45-12.33,24.43-6.01.58-12.16.05-18.21-.44-2.9-.24-4.38-1.82-3.64-5.55.71-3.62-.16-7.54-.34-11.51,4.12,0,9.11-.57,13.91.15,5.73.86,10.13,8.51,8.91,14.04-.13.6-.02,1.26-.02,1.9,7.74-.4,11.44-7.54,11.73-23.01Z"/>
      <path class="cls-2" d="m261.36,298.04c8.43,8.14,18.35,15.16,21.66,27.36.93,3.41.14,7.29.14,10.96-.43.08-.85.17-1.28.25-7.32-12.53-14.64-25.07-21.96-37.6.48-.32.95-.65,1.43-.97Z"/>
      <path class="cls-2" d="m304.91,288.52c-2.67-10.22-1.38-18.99,2.7-27.41.43-.89,1.53-1.45,2.31-2.16.58.86,1.77,1.8,1.66,2.57-1.26,8.9-1.04,18.18-6.68,27.01Z"/>
      <path class="cls-1" d="m257.45,73.63c-6.83-2.87-13.53-6.34-21.51-4.66,6.4-3.71,13.17-3.52,19.86-2.04,3.06.68,6.98,1.43,7.45,6.42-1.99,0-3.6,0-5.21,0-.2.12-.4.21-.59.27Z"/>
      <path class="cls-2" d="m138.46,320.52c.98-10.5,7.64-17.1,15.45-22.92-2.45,9.43-9.2,16.01-15.45,22.92Z"/>
      <path class="cls-2" d="m143.77,300.43c2.21-3.08,4.41-6.18,6.64-9.25,2.13-2.92,4.3-5.8,6.48-8.72,3.83,3.01,3.66,5.54.24,8.58-3.31,2.94-6.08,6.5-9.2,9.66-1.35,1.37-3.02,2.53-4.05-.44,0,.01-.1.16-.1.16Z"/>
      <path class="cls-2" d="m305.84,80.9c-7.16,1.52-14.33,3.03-21.58,4.57-.41-6.24,8.15-8.46,21.18-6.05.13.49.27.99.4,1.48Z"/>
      <path class="cls-2" d="m224.08,166.07c1.06,2.13,2.12,4.25,3.16,6.35.49,2.9,1,5.82,1.51,8.75-.41.16-.81.32-1.22.48-1.89-4.76-3.93-9.47-5.59-14.31-.56-1.61-.12-3.45,2.14-1.26Z"/>
      <path class="cls-2" d="m185.88,266.36c-.41,3.28-.82,6.57-1.23,9.85-.43-.05-.86-.11-1.29-.16.41-3.38-2.39-7.13.77-10.19l1.75.49Z"/>
      <path class="cls-2" d="m294.25,74.66c4.26-.27,8.53-.53,12.79-.8.03.51.05,1.02.08,1.54h-12.85c0-.25-.01-.49-.02-.74Z"/>
      <path class="cls-1" d="m251.56,133.4c-1.83,2.71-3.24,4.79-5.01,7.41-1.19-.98-3.06-2.51-4.92-4.04.1-.54.2-1.09.3-1.63,3.2-.58,6.4-1.16,9.63-1.74Z"/>
      <path class="cls-1" d="m259.08,89.24c-4.61-.44-9.16-1.09-13.73-1.22-3.19-.09-6.4.59-9.61.8-1.45.09-2.91-.12-4.37-.19.66-1.48.92-3.52,2.06-4.35,4.65-3.42,10.02-5.1,15.84-4.97,6.18.14,9.91,3.66,9.81,9.93Z"/>
    </g>
  </g>
</svg>