<?xml version="1.0" encoding="UTF-8"?>
<svg id="Layer_2" data-name="Layer 2" xmlns="http://www.w3.org/2000/svg" viewBox="0 0 480.75 450">
  <defs>
    <style>
      .cls-1, .cls-2 {
        stroke-width: 0px;
      }

      .cls-2 {
        fill: #fff;
      }
    </style>
  </defs>
  <g id="Layer_1-2" data-name="Layer 1">
    <g>
      <path class="cls-2" d="m189.73,450H0V0C160.23,0,320.49,0,480.75,0v300.22c-7.12-5.96-13.45-12.92-21.82-17.31-.43-.22-.73-.67-1.12-.98-3.75-2.97-7.48-5.97-11.28-8.88-1.97-1.51-4.18-2.71-6.09-4.28-5.52-4.53-10.91-9.21-16.4-13.77-5.97-4.96-10.45-10.92-13.07-18.31-.99-2.79-2.64-5.35-3.99-8.02-.32.12-.65.25-.97.37-.11,1.31-.21,2.62-.36,4.4-4.52-1.68-1.93,3.96-4.77,4.52-.87-8.35-1.73-16.68-2.64-25.39-5.35,2.45-4.53,10.73-11.81,10.07v-14.05c-3.71,6.21-4.4,12.86-9.43,17.35.43-8.07,1.63-16.03.3-24.11-1.31,1.66-1.84,3.44-2.28,5.23-1.67,6.89-3.16,13.83-5.07,20.66-.56,2.02-2.25,3.73-3.42,5.58-1-.95-1.3-1.47-1.2-1.87,2.64-9.87,2.91-19.9,2.26-30.02-.06-.94.06-2.36.66-2.8,3.73-2.74,3.25-6.81,3.74-10.62.14-1.12.6-2.21,1.03-3.27.56-1.36,1.27-2.67,1.87-4.01,1.99-4.39,1.5-9.18,2.28-13.73,1.15-6.75,3.83-13.23,5.75-19.86.33-1.12.15-2.39.21-3.59-4.65,4.35-6.39,4.16-9.46-.83-.48-.78-1.06-1.86-1.8-2.07-2.85-.81-2.67-2.91-2.43-5.03.37-3.14.86-6.27,1.29-9.33.42.21,1.3.67,2.19,1.12l-.27-1.02c1.65-.96,3.56-2.96,4.88-2.62,1.98.51,4,2.37,5.14,4.19,1.08,1.73,1.07,4.15,1.51,6.27,1.17,5.7,2.23,11.42,3.56,17.08.26,1.1,1.53,1.96,2.51,3.13.47-3.01.79-5.02,1.16-7.34,1.27,2.11,2.22,3.68,3.17,5.25.32-.02.64-.04.95-.05.51-4.78,2.79-8.01,8.35-9.45-2.54,3.93-4.57,7.3-6.86,10.49-1.3,1.81-2.57,3.44-1.26,5.73,1.56,2.71.56,5.1-.45,7.8-2.3,6.16-4.24,12.47-6.01,18.8-.32,1.15.89,2.73,1.4,4.11,1.31-1.05,3.2-1.83,3.81-3.19,1.45-3.21,4.67-6.17,2.4-10.33-.19-.34.32-1.17.65-1.67,1.92-2.88,3.76-5.82,5.86-8.56,2.87-3.75,4.16-7.9,3.94-12.57-.07-1.55-.19-3.09-.29-4.63.18-.03.35-.06.53-.08.58,1.25,1.17,2.5,1.82,3.89,3.78-4.52,4.58-16.05,1.81-18.29.88-6.2,2.25-12.18,2.4-18.2.11-4.41-.05-9.2-3.97-12.77-.96-.88-1.41-3.93-.68-4.78,3.35-3.9.53-6.54-1.28-9.52-.41-.67-.59-1.47-.88-2.21.23-.11.46-.21.69-.32.88.72,1.76,1.43,2.64,2.15.38-1.08.21-1.81-.12-2.46-3.31-6.68-8.03-13.03-4.58-21.74.41,1.09.89,1.8.89,2.51-.01,1.98-.34,3.96-.31,5.93.01.69.61,1.47,1.14,2.01.14.15,1.4-.32,1.49-.68.49-1.89,1.52-4.08.97-5.7-1.73-5.1-.95-10.93-4.57-15.47-.47-.59-.23-1.71-.49-2.53-.53-1.71-1.01-3.47-1.83-5.05-.91-1.76-2.14-3.35-3.27-4.99-2.79-4.08-4.83-9.14-8.57-11.98-6.48-4.92-13.92-8.62-21.13-12.51-4.03-2.17-8.38-3.81-12.67-5.46-4.62-1.78-9.34-3.28-14.01-4.91-1.76-.61-3.48-1.51-5.29-1.81-4.14-.69-8.33-1.12-12.51-1.57-.81-.09-2.35.06-2.4.31-.75,4.07-4.31,1.71-6.33,3.43.06-1.12.09-1.65.13-2.26-5.31,2.19-10.45,4.39-15.67,6.43-4.31,1.68-5.67,7.73-11.25,7.5-.17,0-.4.58-.53.91-1.96,4.87-4.77,7.24-9.4,6.17-7.66-1.77-13.88.98-19.52,5.29-5.61,4.29-9.74,9.7-8.61,17.54.19,1.29-.05,2.75-.49,3.99-3.82,10.75-5.59,21.4,1,31.82.24.38.26.95.25,1.43-.08,3.67-.45,7.35-.24,11,.66,11.47-.91,23.06,1.94,34.43,1.48,5.9,2.58,11.89,3.95,18.29.18-1.13.34-1.85.4-2.57.79-9.32-2.55-18.8,1.06-28.02.04-.11,0-.25,0-.37.91-11.99,2.77-23.81,7.42-34.97,2.3-5.52,5.99-10.96,12.02-11.93,6.51-1.04,13.44-.39,20.07.46,6.01.77,11.71,2.68,18.06,1.56,4.89-.86,10.12-.15,15.15.32,1.25.12,3.51,2.56,3.3,3.05-1.53,3.46.61,5.27,2.51,7.45.64.73.55,2.11.75,3.2.79,4.28-.1,9.13,4.28,12.2.42.29.43,1.33.43,2.02-.02,1.67-.15,3.34-.24,5-1.58,4.47-3.72,8.87.49,13.24-4.03,2.48-7.67,4.56-11.12,6.91-1.87,1.28-4.84,3.03-4.82,4.53.04,2.4-.93,3.36-2.4,4.46-2.09,1.56-4.2,3.11-6.35,4.58-4.1,2.8-6.9,6.24-7.33,11.52-.24,2.99-1.6,5.88-2.27,8.86-1.05,4.68-2.36,9.35-2.78,14.09-.49,5.46,3.27,11.1-.68,16.52-.24.33.38,1.92.79,2,3.97.78,8.01,2,11.96,1.8,3.33-.17,4.47.88,5.28,3.68.73,2.53,1.96,4.91,2.79,7.42.61,1.85.47,3.32-2.13,3.65-8.87,1.12-17.71,2.41-26.56,3.64,7.27,1.93,15.24.38,21.75,4.34.3,2.26.45,5.1,1.83,5.95,3.78,2.33,3.19,4.36.7,6.98-.44.46-.61,1.19-.97,1.92,6.02-.09,7.11-.51,12.02-3.9.74-.51,2.3-.83,2.85-.41,1.42,1.09,2.48,2.63,3.85,4.17-3.91,3.63-4.7,9.92-10.38,10.83-.36,3.04.12,6.41-1.26,8.65-1.4,2.28-3.08,3.88-1.25,6.57-7.95,5.2-16.75,3.13-25.96,3.9,1.63,2.05,2.82,3.56,4.02,5.06.89,1.13,1.68,2.36,2.69,3.37,1.08,1.07,2.23,2.4,3.59,2.78,2,.55,4.6-.34,6.24.61,4.51,2.62,8.98.66,13.45.65,2.81,0,5.45-.72,5.85-3.3,4.1,1.28,7.99,2.49,11.01,3.43-1.18,3.01-2.08,6.3-3.7,9.19-1.68,2.99-4.06,5.6-6.13,8.37.37.34.75.67,1.12,1.01,4.73-3.94,9.45-7.88,14.76-12.3-.26,4.27-.09,7.62-.75,10.79-1.11,5.34-2.47,10.67-4.31,15.8-.68,1.91-2.78,3.57-4.62,4.74-2.05,1.31-4.6,1.81-6.82,2.89-2.56,1.25-2.7,3.82-1.67,6.4,1.32,3.31,3.41,1.88,6.04,1.03-.94,2.11-1.57,3.53-2.46,5.53-2.56-2.49-4.75-4.62-6.95-6.76-.31.34-.62.69-.94,1.03,3.37,5.01,7.32,9.41,12.27,13.11,3.95,2.95,4.12,1.89,6.19-1.81.42-.74.57-1.64.79-2.48.72-2.68,2.34-3.53,5.2-2.59-1.72,5.7-5.95,9.75-8.23,15.02-6.58,15.2-14.53,29.8-21.54,44.82-5.96,12.76-11.48,25.73-16.95,38.71-3.18,7.56-5.89,15.32-8.8,22.99h-20.25c-.29-.9-1.03-1.94-.8-2.68.69-2.27,1.76-4.43,2.67-6.63.97-2.32,2.14-4.23,5.24-3.67.88.16,1.9-.4,2.85-.63.02-.38.04-.76.06-1.14-1.06-.38-2.21-.6-3.17-1.16-5.66-3.31-13.23-3.35-16.72-10.44-1.55-3.15-1.35-5.89,1.76-7.84,2.61-1.63,4.94-3.7,7.59-5.24,1.15-.67,2.79-.49,4.2-.72,1.54-.25,3.51-.02,4.54-.88,3.23-2.71,6.42-5.59,9.04-8.87,2.76-3.46,4.84-7.45,7.22-11.21-.4-.49-.8-.98-1.2-1.48-2.48.76-5.09,1.26-7.42,2.35-3.66,1.71-6.86.2-6.85-3.9,0-2.5.7-5.1,1.62-7.46.89-2.28,2.55-4.25,3.68-6.46.55-1.07.68-2.36,1-3.55-.39-.13-.79-.25-1.18-.38l-2.86,2.54c-.35-.22-.7-.44-1.05-.66,2.39-4.3,4.78-8.61,7.3-13.13.96.82,1.55,1.32,2.73,2.33,0-4.25-.09-7.8.03-11.35.12-3.65.11-7.36.78-10.93.65-3.48,4.94-6.06,2.78-10.77-1.11.98-1.95,1.72-2.79,2.47-.37-.09-.74-.19-1.11-.28.22-1.51-.1-3.53.75-4.41,1.98-2.04,4.36-4.6,6.9-5,4.51-.72,9.26.04,13.91.05.74,0,1.89-.49,2.11-1.05.24-.61-.18-1.69-.64-2.34-.71-1-2.1-1.66-2.46-2.72-.4-1.17-.49-3.14.22-3.86,2.15-2.21,4.75-3.99,7.16-5.96.92-.76,1.8-1.57,2.69-2.36-5.04.44-5.54-.29-4.2-5.01.51-1.82.41-3.81.69-6.77-4.6,2.56-8.13,6.41-11.57.43-2.25,2.79-4.05,5.14-6,7.37-.91,1.03-2.1,1.81-3.17,2.7-.78-1.23-2.23-2.45-2.25-3.69-.15-11.4-4.04-22.02-6.69-32.89-.26-1.05-1.15-2.32-2.09-2.77-3.24-1.53-6.64-2.73-9.97-4.08-.36-.15-.89-.32-.99-.61-2.09-5.74-4.19-11.47-6.17-17.25-.94-2.74-2.25-4.27-5.51-3.37-1.88.52-3.95.35-5.94.46-5.73.34-11.62-.06-17.16,1.13-14.24,3.07-22.2,13.2-25.51,26.53-2.96,11.94-4.85,24.22-6.24,36.45-1.53,13.49-1.92,27.1-2.87,40.66-.1,1.45-.48,2.94-1.02,4.29-1.52,3.76-3.47,7.36-4.73,11.19-1.31,4.01-1.96,8.23-2.99,12.33-3.58,14.26-7.68,28.42-10.67,42.8-2.72,13.04-4.25,26.32-6.3,39.49Zm97.72-310.14c-5.24-2.83-16.4-1.96-20.55,1.54-.84.71-1.29,1.94-1.74,3-.07.17,1,1.15,1.21,1.05,1.05-.49,2.09-1.1,2.94-1.89,1.32-1.22,2.48-2.62,4.35-4.63,1.38,5.37,3.18,8.25,8.45,7.63,4.49-.53,4.21-3.77,5.33-6.7Zm30.32,141.3c6.08,3.92,8.5,3.7,11.41-.65,1.71-2.56.11-3.39-1.78-3.99-2.65-.84-8.11,1.9-9.64,4.64Zm-12.55,53.59c4.38,2.24,12.92-1.34,14.41-6.04-5.6.52-9.47,3.93-14.41,6.04Zm12.76-93.14c1.94,1.04,4.65,1.63,5.6,3.25.97,1.67.22,4.34.22,6.81,2.84-2.31,4.73-7.06,3.26-8.84-2.24-2.73-5.45-2.76-9.08-1.22Z"/>
      <path class="cls-1" d="m300.74,450c2.92-7.67,5.62-15.43,8.8-22.99,5.47-12.98,10.99-25.95,16.95-38.71,7.01-15.02,14.96-29.62,21.54-44.82,2.28-5.27,6.51-9.32,8.23-15.02-2.87-.94-4.49-.09-5.2,2.59-.22.84-.38,1.74-.79,2.48-2.07,3.7-2.24,4.76-6.19,1.81-4.95-3.7-8.9-8.1-12.27-13.11.31-.34.62-.69.94-1.03,2.2,2.14,4.39,4.28,6.95,6.76.89-2,1.52-3.42,2.46-5.53-2.63.85-4.72,2.28-6.04-1.03-1.03-2.59-.89-5.15,1.67-6.4,2.22-1.08,4.77-1.58,6.82-2.89,1.84-1.17,3.93-2.83,4.62-4.74,1.83-5.13,3.2-10.46,4.31-15.8.66-3.17.49-6.52.75-10.79-5.3,4.42-10.03,8.36-14.76,12.3-.37-.34-.75-.67-1.12-1.01,2.07-2.77,4.45-5.38,6.13-8.37,1.62-2.89,2.52-6.18,3.7-9.19-3.02-.94-6.91-2.15-11.01-3.43-.4,2.57-3.04,3.29-5.85,3.3-4.46.02-8.94,1.97-13.45-.65-1.64-.95-4.24-.06-6.24-.61-1.36-.37-2.51-1.7-3.59-2.78-1.01-1.01-1.8-2.24-2.69-3.37-1.19-1.51-2.39-3.01-4.02-5.06,9.21-.77,18.02,1.31,25.96-3.9-1.84-2.7-.16-4.29,1.25-6.57,1.38-2.24.9-5.61,1.26-8.65,5.67-.91,6.47-7.2,10.38-10.83-1.36-1.54-2.43-3.09-3.85-4.17-.55-.42-2.11-.1-2.85.41-4.92,3.39-6,3.81-12.02,3.9.36-.73.52-1.46.97-1.92,2.5-2.63,3.08-4.65-.7-6.98-1.38-.85-1.54-3.69-1.83-5.95-6.51-3.96-14.49-2.4-21.75-4.34,8.85-1.23,17.7-2.52,26.56-3.64,2.6-.33,2.75-1.79,2.13-3.65-.83-2.51-2.06-4.89-2.79-7.42-.81-2.8-1.95-3.85-5.28-3.68-3.95.2-7.99-1.02-11.96-1.8-.4-.08-1.03-1.67-.79-2,3.96-5.41.19-11.06.68-16.52.43-4.74,1.73-9.42,2.78-14.09.67-2.98,2.03-5.87,2.27-8.86.43-5.28,3.23-8.72,7.33-11.52,2.15-1.47,4.26-3.02,6.35-4.58,1.47-1.1,2.44-2.06,2.4-4.46-.03-1.5,2.94-3.26,4.82-4.53,3.45-2.35,7.09-4.43,11.12-6.91-4.21-4.37-2.07-8.77-.49-13.24.09-1.67.23-3.33.24-5,0-.69,0-1.73-.43-2.02-4.38-3.07-3.49-7.92-4.28-12.2-.2-1.09-.12-2.47-.75-3.2-1.9-2.18-4.04-3.98-2.51-7.45.22-.49-2.05-2.93-3.3-3.05-5.03-.48-10.26-1.19-15.15-.32-6.35,1.12-12.05-.79-18.06-1.56-6.63-.85-13.56-1.5-20.07-.46-6.03.97-9.72,6.41-12.02,11.93-4.65,11.16-6.51,22.98-7.42,34.97,0,.12.03.26,0,.37-3.61,9.22-.27,18.69-1.06,28.02-.06.72-.22,1.43-.4,2.57-1.37-6.4-2.47-12.4-3.95-18.29-2.85-11.37-1.28-22.96-1.94-34.43-.21-3.65.16-7.33.24-11,.01-.48,0-1.05-.25-1.43-6.59-10.42-4.82-21.07-1-31.82.44-1.24.68-2.7.49-3.99-1.13-7.84,3-13.25,8.61-17.54,5.64-4.31,11.87-7.06,19.52-5.29,4.63,1.07,7.44-1.3,9.4-6.17.14-.34.37-.92.53-.91,5.58.23,6.94-5.81,11.25-7.5,5.21-2.04,10.36-4.24,15.67-6.43-.03.61-.06,1.14-.13,2.26,2.02-1.72,5.59.64,6.33-3.43.05-.25,1.59-.4,2.4-.31,4.18.45,8.37.88,12.51,1.57,1.81.3,3.53,1.2,5.29,1.81,4.67,1.63,9.4,3.14,14.01,4.91,4.29,1.65,8.64,3.28,12.67,5.46,7.21,3.88,14.66,7.59,21.13,12.51,3.74,2.84,5.78,7.91,8.57,11.98,1.12,1.64,2.36,3.23,3.27,4.99.81,1.58,1.29,3.34,1.83,5.05.26.82.02,1.94.49,2.53,3.62,4.54,2.84,10.37,4.57,15.47.55,1.62-.49,3.81-.97,5.7-.09.35-1.35.82-1.49.68-.53-.54-1.13-1.31-1.14-2.01-.03-1.98.3-3.96.31-5.93,0-.71-.48-1.42-.89-2.51-3.45,8.71,1.27,15.06,4.58,21.74.32.65.5,1.38.12,2.46-.88-.72-1.76-1.43-2.64-2.15-.23.11-.46.21-.69.32.29.74.48,1.54.88,2.21,1.81,2.97,4.64,5.61,1.28,9.52-.73.85-.28,3.9.68,4.78,3.92,3.58,4.08,8.36,3.97,12.77-.15,6.02-1.53,12-2.4,18.2,2.76,2.23,1.97,13.77-1.81,18.29-.65-1.4-1.23-2.65-1.82-3.89-.18.03-.35.06-.53.08.1,1.54.22,3.09.29,4.63.22,4.67-1.07,8.82-3.94,12.57-2.1,2.74-3.94,5.68-5.86,8.56-.34.5-.84,1.33-.65,1.67,2.27,4.16-.95,7.11-2.4,10.33-.61,1.36-2.5,2.14-3.81,3.19-.51-1.38-1.72-2.96-1.4-4.11,1.76-6.34,3.7-12.64,6.01-18.8,1.01-2.7,2-5.09.45-7.8-1.32-2.29-.04-3.91,1.26-5.73,2.28-3.19,4.31-6.57,6.86-10.49-5.57,1.44-7.84,4.67-8.35,9.45-.32.02-.64.04-.95.05-.95-1.57-1.9-3.14-3.17-5.25-.37,2.32-.68,4.33-1.16,7.34-.98-1.18-2.25-2.04-2.51-3.13-1.33-5.66-2.39-11.39-3.56-17.08-.44-2.12-.43-4.54-1.51-6.27-1.14-1.82-3.16-3.68-5.14-4.19-1.31-.34-3.23,1.67-4.88,2.62l.27,1.02c-.89-.46-1.77-.91-2.19-1.12-.43,3.07-.92,6.19-1.29,9.33-.25,2.12-.42,4.22,2.43,5.03.74.21,1.32,1.29,1.8,2.07,3.07,4.99,4.81,5.18,9.46.83-.06,1.2.11,2.47-.21,3.59-1.93,6.63-4.6,13.11-5.75,19.86-.78,4.55-.3,9.34-2.28,13.73-.61,1.34-1.31,2.65-1.87,4.01-.43,1.06-.89,2.15-1.03,3.27-.48,3.81,0,7.87-3.74,10.62-.6.44-.72,1.86-.66,2.8.65,10.12.38,20.15-2.26,30.02-.11.41.19.92,1.2,1.87,1.17-1.85,2.86-3.56,3.42-5.58,1.9-6.83,3.39-13.77,5.07-20.66.44-1.8.97-3.57,2.28-5.23,1.34,8.09.13,16.05-.3,24.11,5.04-4.49,5.72-11.14,9.43-17.35v14.05c7.28.65,6.46-7.62,11.81-10.07.9,8.71,1.77,17.04,2.64,25.39,2.85-.56.25-6.19,4.77-4.52.14-1.78.25-3.09.36-4.4.32-.12.65-.25.97-.37,1.35,2.67,3,5.23,3.99,8.02,2.62,7.39,7.1,13.34,13.07,18.31,5.49,4.56,10.88,9.24,16.4,13.77,1.91,1.57,4.12,2.77,6.09,4.28,3.8,2.91,7.53,5.91,11.28,8.88.39.31.7.76,1.12.98,8.37,4.39,14.7,11.35,21.82,17.31v149.78h-180.01Zm49.83-246.37c.5-1.16.94-1.7.92-2.22-.28-8.18-.75-16.35-.85-24.53-.02-1.9.89-3.94,1.82-5.68,1.67-3.13,3.81-6,5.43-9.15.32-.63-.62-2.15-1.31-3-.91-1.14-2.92-1.96-3.01-3.04-.09-1.12,1.54-2.38,2.43-3.57-2.3-.9-4.54-2.3-6.92-2.58-5.18-.6-8.36-2.8-8.61-8.3,0-.14-.38-.27-.7-.47-1.33.57-2.73,1.16-4.12,1.75-.2-.43-.39-.87-.59-1.3,2.35-.99,4.64-2.17,7.07-2.94,6.41-2.03,12.42.91,18.61,1.72.75.1,2.08.13,2.2-.18.31-.8.46-2.04.04-2.68-3.39-5.17-8.59-9.29-15.68-7.42-2.53.67-5.1,1.35-7.69,1.63-9.28,1-15.48,6.9-16.61,16.11-.07.59.08,1.23.25,1.82,1.41,5.02,2.62,10.12,4.35,15.03,1.22,3.45,2.16,6.26-3.02,6.56.14.67.09,1.11.3,1.35,2.84,3.37,6.8,6.02,7.05,11.07.02.37.67.69.99,1.06,1.28,1.48,2.44,3.07,3.83,4.42,1.63,1.58,3.43,3,5.23,4.39.74.58,1.95.7,2.48,1.4,1.99,2.62,3.78,5.39,6.1,8.77Zm-10.06,17.78c.03,5,2.28,6.37,6.25,4.53.87-.41,2.01-.26,2.86-.7,1-.51,2.43-1.25,2.6-2.1.55-2.83.63-5.75.75-8.65,0-.11-1.5-.22-2.27-.46-.92-.29-2.36-.49-2.61-1.12-1.18-2.88-3.34-4.23-6.21-4.69-1-.16-2.55-.44-2.95.06-.55.68-.66,2.27-.22,3.08,1.84,3.39,4.42,6.55,1.8,10.04Zm60.39-149.94c-.32.04-.64.08-.95.11.62,2.85-1.31,6.27,2.8,9.33-.73-3.76-1.29-6.6-1.84-9.44Z"/>
      <path class="cls-1" d="m189.73,450c2.06-13.17,3.59-26.45,6.3-39.49,3-14.38,7.09-28.54,10.67-42.8,1.03-4.1,1.68-8.33,2.99-12.33,1.26-3.83,3.21-7.44,4.73-11.19.55-1.35.92-2.84,1.02-4.29.95-13.56,1.34-27.17,2.87-40.66,1.38-12.24,3.28-24.51,6.24-36.45,3.3-13.34,11.26-23.46,25.51-26.53,5.54-1.2,11.43-.8,17.16-1.13,1.99-.12,4.06.05,5.94-.46,3.26-.9,4.57.64,5.51,3.37,1.98,5.78,4.07,11.51,6.17,17.25.1.29.63.46.99.61,3.33,1.34,6.73,2.55,9.97,4.08.94.44,1.83,1.71,2.09,2.77,2.65,10.87,6.55,21.49,6.69,32.89.02,1.24,1.46,2.46,2.25,3.69,1.07-.89,2.27-1.67,3.17-2.7,1.95-2.23,3.75-4.58,6-7.37,3.45,5.98,6.97,2.14,11.57-.43-.28,2.96-.17,4.95-.69,6.77-1.34,4.73-.84,5.45,4.2,5.01-.9.79-1.77,1.61-2.69,2.36-2.41,1.97-5.01,3.74-7.16,5.96-.7.72-.61,2.69-.22,3.86.36,1.06,1.75,1.72,2.46,2.72.46.64.88,1.72.64,2.34-.22.56-1.37,1.05-2.11,1.05-4.65-.01-9.39-.77-13.91-.05-2.53.41-4.91,2.96-6.9,5-.86.88-.54,2.91-.75,4.41.37.09.74.19,1.11.28.84-.74,1.68-1.48,2.79-2.47,2.17,4.72-2.13,7.29-2.78,10.77-.67,3.57-.66,7.28-.78,10.93-.12,3.55-.03,7.1-.03,11.35-1.19-1.01-1.77-1.51-2.73-2.33-2.51,4.52-4.9,8.82-7.3,13.13.35.22.7.44,1.05.66l2.86-2.54c.39.13.79.25,1.18.38-.32,1.19-.45,2.48-1,3.55-1.14,2.2-2.8,4.18-3.68,6.46-.92,2.35-1.61,4.96-1.62,7.46-.01,4.1,3.19,5.61,6.85,3.9,2.33-1.09,4.93-1.59,7.42-2.35.4.49.8.98,1.2,1.48-2.38,3.76-4.46,7.75-7.22,11.21-2.62,3.28-5.81,6.16-9.04,8.87-1.03.87-3,.63-4.54.88-1.41.23-3.05.05-4.2.72-2.65,1.54-4.98,3.61-7.59,5.24-3.11,1.94-3.31,4.69-1.76,7.84,3.49,7.09,11.07,7.13,16.72,10.44.95.56,2.11.78,3.17,1.16-.02.38-.04.76-.06,1.14-.95.23-1.97.79-2.85.63-3.1-.56-4.27,1.35-5.24,3.67-.92,2.2-1.98,4.36-2.67,6.63-.23.74.51,1.78.8,2.68h-27c-.27-2.48-.45-5.51-4.02-4.3-2.15.73-3.84,2.82-5.73,4.3h-54Zm31.29-2.78c3.65-2.22,6.71-4.31,9.98-6.01,3.29-1.72,6.85-2.91,10.16-4.59,6.55-3.33,12.48-7.41,15.19-14.7.94-2.52,1.65-5.13,2.61-8.15.74-.03,2.58,3.34,3.92-.09,1.62-4.17,3.27-8.34,4.69-12.58.4-1.19.08-2.63,0-3.95-.09-1.74-.8-3.66-.29-5.19,2.2-6.73,1.81-13.22-1.27-19.51-.44-.9-2.18-2-2.93-1.77-2.55.8-3.3-.54-3.55-2.45-.2-1.57.07-3.19.08-4.79.02-3.33,0-6.66,0-10.36-3.75,2.68-6.89,5.05-7.18,9.5-.22,3.31-.38,6.63-.65,9.94-.35,4.37-2.87,7.22-6.06,6.36-3.02-.82-4.65.61-5,2.92-.77,4.96-.93,10.02-1.36,15.03-.15,1.81-.35,3.61-.53,5.42-.36.01-.72.03-1.08.04-.39-.58-.81-1.14-1.16-1.74-2.68-4.56-5.8-4.7-8.89-.36-.5.71-.98,1.48-1.24,2.3-3.14,9.7-6.32,19.38-9.23,29.15-.38,1.28.19,3.56,1.16,4.39,2.55,2.17,3.89,4.21,2.25,7.57-.42.87.2,2.24.37,3.61Zm58.81-67.33c.39.16.77.33,1.16.49,1.91-3.77,3.81-7.54,5.72-11.3-.26-.14-.52-.28-.78-.43-.67.32-1.34.63-2.02.95-.35-.24-.7-.48-1.05-.72,3.35-6.92,6.7-13.85,10.08-20.84-2.73-2.86-2.57-3.04-1.14-7.06.37-1.04-.85-2.72-1.57-3.99-.07-.13-1.91.36-2.51.97-3.74,3.79-7.35,7.7-10.7,11.23-1.47-1.17-2.43-2.1-3.57-2.7-.21-.11-1.73,1.33-1.6,1.63.65,1.55,1.63,2.96,2.68,4.74-3.29,9.1-3.7,23.27-.13,26.72,1.22-2.08,2.25-4.17,3.6-6.01.54-.74,1.8-.96,2.73-1.41.26,1.01.88,2.08.72,3.01-.29,1.62-1.06,3.15-1.63,4.72Zm32.62-64.1c-2.9-1.98-2.96-4.29-1.52-6.41-2.22-1.61-4.15-3.01-6.58-4.77-1.6,4.89-3.06,9.35-4.51,13.82.37.32.73.63,1.1.95,2.61-5.22,6.82-4.51,11.52-3.59Zm-39.71-16.82c-.07-.45-.15-.89-.22-1.34,0-1.82-.27-3.68.06-5.44.59-3.19-2.19-3.33-3.8-4.12-.83-.41-3.57.94-3.53,1.24.35,2.58.6,5.46,1.97,7.52.89,1.34,3.61,1.47,5.51,2.14Zm13.36,35.58c-1.49-1.07-2.81-2.48-3.23-2.25-1.89,1.04-3.51,2.55-5.23,3.89,1.27,1.33,2.55,2.66,3.82,3.99,1.42-1.73,2.85-3.45,4.64-5.63Z"/>
      <path class="cls-2" d="m243.74,450c1.89-1.48,3.58-3.58,5.73-4.3,3.57-1.21,3.76,1.83,4.02,4.3h-9.75Z"/>
      <path class="cls-1" d="m287.45,139.86c-1.12,2.93-.84,6.17-5.33,6.7-5.28.62-7.07-2.26-8.45-7.63-1.87,2.01-3.03,3.41-4.35,4.63-.85.78-1.89,1.4-2.94,1.89-.21.1-1.28-.88-1.21-1.05.45-1.06.9-2.29,1.74-3,4.15-3.5,15.31-4.37,20.55-1.54Z"/>
      <path class="cls-1" d="m317.77,281.15c1.53-2.74,6.99-5.48,9.64-4.64,1.88.6,3.49,1.43,1.78,3.99-2.91,4.34-5.33,4.57-11.41.65Z"/>
      <path class="cls-1" d="m305.22,334.75c4.93-2.11,8.8-5.52,14.41-6.04-1.49,4.7-10.02,8.28-14.41,6.04Z"/>
      <path class="cls-1" d="m317.98,241.61c3.63-1.54,6.83-1.51,9.08,1.22,1.46,1.78-.42,6.53-3.26,8.84,0-2.47.76-5.14-.22-6.81-.94-1.62-3.66-2.21-5.6-3.25Z"/>
      <path class="cls-2" d="m350.58,203.63c-2.32-3.38-4.12-6.15-6.1-8.77-.52-.69-1.73-.82-2.48-1.4-1.8-1.39-3.6-2.81-5.23-4.39-1.4-1.35-2.55-2.94-3.83-4.42-.32-.37-.97-.69-.99-1.06-.25-5.05-4.2-7.7-7.05-11.07-.2-.24-.16-.68-.3-1.35,5.18-.3,4.24-3.1,3.02-6.56-1.73-4.91-2.94-10.01-4.35-15.03-.16-.59-.32-1.23-.25-1.82,1.13-9.21,7.32-15.12,16.61-16.11,2.59-.28,5.15-.96,7.69-1.63,7.09-1.86,12.29,2.25,15.68,7.42.42.65.27,1.89-.04,2.68-.12.31-1.45.28-2.2.18-6.19-.81-12.2-3.75-18.61-1.72-2.42.77-4.72,1.95-7.07,2.94.2.43.39.87.59,1.3,1.39-.59,2.79-1.18,4.12-1.75.32.21.69.33.7.47.25,5.5,3.43,7.69,8.61,8.3,2.37.28,4.61,1.69,6.91,2.58-.88,1.2-2.52,2.46-2.43,3.58.09,1.08,2.1,1.9,3.01,3.04.68.85,1.63,2.37,1.31,3-1.62,3.15-3.76,6.02-5.43,9.15-.93,1.74-1.85,3.79-1.82,5.68.1,8.18.57,16.35.85,24.53.02.52-.42,1.06-.92,2.22Z"/>
      <path class="cls-2" d="m340.51,221.41c2.61-3.49.03-6.65-1.8-10.04-.44-.81-.33-2.4.22-3.08.4-.5,1.95-.22,2.95-.06,2.87.46,5.04,1.81,6.21,4.69.26.63,1.69.83,2.61,1.12.76.24,2.27.34,2.27.46-.12,2.89-.2,5.82-.75,8.65-.16.85-1.6,1.59-2.6,2.1-.85.43-1.99.29-2.86.7-3.97,1.84-6.22.47-6.25-4.53Z"/>
      <path class="cls-2" d="m400.9,71.47c.55,2.84,1.11,5.68,1.84,9.44-4.1-3.07-2.17-6.48-2.8-9.33.32-.04.64-.08.95-.11Z"/>
      <path class="cls-2" d="m221.02,447.22c-.17-1.37-.8-2.75-.37-3.61,1.64-3.37.29-5.4-2.25-7.57-.97-.83-1.54-3.11-1.16-4.39,2.91-9.76,6.09-19.45,9.23-29.15.26-.82.74-1.59,1.24-2.3,3.09-4.34,6.21-4.2,8.89.36.35.6.77,1.16,1.16,1.74.36-.01.72-.03,1.08-.04.18-1.81.37-3.61.53-5.42.43-5.02.6-10.07,1.36-15.03.36-2.32,1.98-3.74,5-2.92,3.19.86,5.7-1.99,6.06-6.36.27-3.31.43-6.63.65-9.94.29-4.45,3.43-6.82,7.18-9.5,0,3.69.01,7.02,0,10.36,0,1.6-.28,3.22-.08,4.79.25,1.91,1,3.25,3.55,2.45.75-.24,2.49.87,2.93,1.77,3.08,6.29,3.47,12.78,1.27,19.51-.5,1.53.2,3.45.29,5.19.07,1.32.39,2.76,0,3.95-1.42,4.24-3.06,8.41-4.69,12.58-1.34,3.43-3.17.06-3.92.09-.96,3.02-1.67,5.63-2.61,8.15-2.71,7.29-8.64,11.37-15.19,14.7-3.31,1.68-6.87,2.87-10.16,4.59-3.26,1.71-6.33,3.79-9.98,6.01Zm31.65-43.75c-.27,2.46-.47,4.32-.67,6.17h6.29c1-4.54-2.19-4.84-5.62-6.17Z"/>
      <path class="cls-2" d="m279.83,379.89c.57-1.57,1.34-3.1,1.63-4.72.17-.93-.45-2-.72-3.01-.93.46-2.18.67-2.73,1.41-1.35,1.84-2.38,3.93-3.6,6.01-3.56-3.46-3.16-17.62.13-26.72-1.05-1.78-2.04-3.19-2.68-4.74-.12-.29,1.39-1.74,1.6-1.63,1.14.6,2.1,1.53,3.57,2.7,3.35-3.54,6.96-7.45,10.7-11.23.6-.61,2.44-1.09,2.51-.97.71,1.27,1.94,2.95,1.57,3.99-1.44,4.02-1.59,4.19,1.14,7.06-3.39,7-6.74,13.92-10.08,20.84.35.24.7.48,1.05.72.67-.32,1.34-.63,2.02-.95.26.14.52.28.78.43-1.91,3.77-3.81,7.54-5.72,11.3-.39-.16-.77-.33-1.16-.49Z"/>
      <path class="cls-2" d="m312.46,315.78c-4.7-.92-8.9-1.63-11.52,3.59-.37-.32-.73-.63-1.1-.95,1.46-4.47,2.92-8.93,4.51-13.82,2.43,1.76,4.37,3.16,6.58,4.77-1.44,2.11-1.38,4.42,1.52,6.41Z"/>
      <path class="cls-2" d="m272.74,298.96c-1.9-.67-4.61-.8-5.51-2.14-1.37-2.06-1.63-4.94-1.97-7.52-.04-.3,2.7-1.65,3.53-1.24,1.6.79,4.39.93,3.8,4.12-.33,1.76-.06,3.62-.06,5.44.07.45.15.89.22,1.34Z"/>
      <path class="cls-2" d="m286.1,334.54c-1.79,2.17-3.22,3.9-4.64,5.63-1.27-1.33-2.55-2.66-3.82-3.99,1.72-1.34,3.35-2.84,5.23-3.89.42-.23,1.74,1.18,3.23,2.25Z"/>
      <path class="cls-1" d="m252.67,403.47c3.43,1.34,6.61,1.63,5.62,6.17h-6.29c.2-1.85.4-3.71.67-6.17Z"/>
    </g>
  </g>
</svg>